BacktoBlackDemo.ufo
<glyph name="exclam" format="1">
  <advance width="387"/>
  <unicode hex="0021"/>
  <outline>
    <contour>
      <point x="82" y="279" type="qcurve" smooth="yes"/>
      <point x="74" y="303"/>
      <point x="100" y="393"/>
      <point x="146" y="500"/>
      <point x="202" y="614"/>
      <point x="247" y="711"/>
      <point x="271" y="779"/>
      <point x="263" y="787" type="qcurve" smooth="yes"/>
      <point x="256" y="793"/>
      <point x="283" y="809"/>
      <point x="324" y="811"/>
      <point x="366" y="791"/>
      <point x="375" y="761" type="qcurve" smooth="yes"/>
      <point x="383" y="735"/>
      <point x="355" y="647"/>
      <point x="306" y="544"/>
      <point x="245" y="436"/>
      <point x="196" y="341"/>
      <point x="168" y="268"/>
      <point x="176" y="253" type="qcurve" smooth="yes"/>
      <point x="180" y="245"/>
      <point x="159" y="228"/>
      <point x="126" y="227"/>
      <point x="91" y="249"/>
    </contour>
    <contour>
      <point x="89" y="10" type="qcurve" smooth="yes"/>
      <point x="89" y="3"/>
      <point x="62" y="3"/>
      <point x="30" y="16"/>
      <point x="3" y="44"/>
      <point x="3" y="66" type="qcurve" smooth="yes"/>
      <point x="3" y="72"/>
      <point x="13" y="92"/>
      <point x="26" y="114"/>
      <point x="36" y="133"/>
      <point x="36" y="138" type="qcurve" smooth="yes"/>
      <point x="36" y="144"/>
      <point x="62" y="144"/>
      <point x="93" y="130"/>
      <point x="119" y="102"/>
      <point x="119" y="81" type="qcurve" smooth="yes"/>
      <point x="119" y="76"/>
      <point x="110" y="57"/>
      <point x="98" y="36"/>
      <point x="89" y="16"/>
    </contour>
  </outline>
</glyph>
<glyph name="quotedbl" format="1">
  <advance width="388"/>
  <unicode hex="0022"/>
  <outline>
    <contour>
      <point x="82" y="627" type="qcurve" smooth="yes"/>
      <point x="80" y="634"/>
      <point x="107" y="636"/>
      <point x="141" y="626"/>
      <point x="170" y="604"/>
      <point x="170" y="587" type="qcurve" smooth="yes"/>
      <point x="171" y="559"/>
      <point x="141" y="479"/>
      <point x="99" y="409"/>
      <point x="54" y="366"/>
      <point x="40" y="375" type="qcurve" smooth="yes"/>
      <point x="34" y="379"/>
      <point x="36" y="415"/>
      <point x="47" y="466"/>
      <point x="62" y="525"/>
      <point x="75" y="578"/>
      <point x="84" y="619"/>
    </contour>
    <contour>
      <point x="282" y="627" type="qcurve" smooth="yes"/>
      <point x="280" y="634"/>
      <point x="307" y="636"/>
      <point x="341" y="626"/>
      <point x="370" y="604"/>
      <point x="370" y="587" type="qcurve" smooth="yes"/>
      <point x="371" y="559"/>
      <point x="341" y="479"/>
      <point x="299" y="409"/>
      <point x="254" y="366"/>
      <point x="240" y="375" type="qcurve" smooth="yes"/>
      <point x="234" y="379"/>
      <point x="236" y="415"/>
      <point x="247" y="466"/>
      <point x="262" y="525"/>
      <point x="275" y="578"/>
      <point x="284" y="619"/>
    </contour>
  </outline>
</glyph>
<glyph name="numbersign" format="1">
  <advance width="669"/>
  <unicode hex="0023"/>
  <outline>
    <contour>
      <point x="619" y="278" type="qcurve" smooth="yes"/>
      <point x="625" y="281"/>
      <point x="627" y="252"/>
      <point x="618" y="213"/>
      <point x="599" y="176"/>
      <point x="584" y="172" type="qcurve" smooth="yes"/>
      <point x="568" y="167"/>
      <point x="484" y="179"/>
      <point x="428" y="192" type="qcurve"/>
      <point x="405" y="146"/>
      <point x="366" y="90"/>
      <point x="356" y="93" type="qcurve" smooth="yes"/>
      <point x="349" y="95"/>
      <point x="353" y="159"/>
      <point x="360" y="209" type="qcurve"/>
      <point x="328" y="218"/>
      <point x="264" y="236"/>
      <point x="234" y="246" type="qcurve"/>
      <point x="219" y="213"/>
      <point x="189" y="155"/>
      <point x="163" y="113"/>
      <point x="142" y="91"/>
      <point x="136" y="93" type="qcurve" smooth="yes"/>
      <point x="132" y="94"/>
      <point x="131" y="124"/>
      <point x="135" y="173"/>
      <point x="143" y="239"/>
      <point x="149" y="276" type="qcurve"/>
      <point x="98" y="295"/>
      <point x="37" y="328"/>
      <point x="40" y="338" type="qcurve" smooth="yes"/>
      <point x="42" y="343"/>
      <point x="107" y="340"/>
      <point x="158" y="334" type="qcurve"/>
      <point x="164" y="369"/>
      <point x="175" y="439"/>
      <point x="180" y="472" type="qcurve"/>
      <point x="149" y="483"/>
      <point x="96" y="504"/>
      <point x="58" y="523"/>
      <point x="38" y="539"/>
      <point x="40" y="545" type="qcurve" smooth="yes"/>
      <point x="41" y="548"/>
      <point x="65" y="550"/>
      <point x="105" y="548"/>
      <point x="159" y="542"/>
      <point x="191" y="538" type="qcurve"/>
      <point x="197" y="580"/>
      <point x="202" y="637"/>
      <point x="200" y="643" type="qcurve" smooth="yes"/>
      <point x="197" y="649"/>
      <point x="237" y="651"/>
      <point x="291" y="642"/>
      <point x="339" y="622"/>
      <point x="344" y="606" type="qcurve" smooth="yes"/>
      <point x="347" y="595"/>
      <point x="341" y="549"/>
      <point x="333" y="519" type="qcurve"/>
      <point x="352" y="516"/>
      <point x="388" y="510"/>
      <point x="406" y="508" type="qcurve"/>
      <point x="414" y="562"/>
      <point x="423" y="636"/>
      <point x="420" y="643" type="qcurve" smooth="yes"/>
      <point x="417" y="649"/>
      <point x="457" y="651"/>
      <point x="511" y="642"/>
      <point x="559" y="622"/>
      <point x="564" y="606" type="qcurve" smooth="yes"/>
      <point x="568" y="592"/>
      <point x="557" y="531"/>
      <point x="545" y="489" type="qcurve"/>
      <point x="575" y="485"/>
      <point x="614" y="483"/>
      <point x="619" y="485" type="qcurve" smooth="yes"/>
      <point x="625" y="488"/>
      <point x="627" y="459"/>
      <point x="618" y="420"/>
      <point x="599" y="383"/>
      <point x="584" y="379" type="qcurve" smooth="yes"/>
      <point x="574" y="376"/>
      <point x="535" y="378"/>
      <point x="509" y="383" type="qcurve"/>
      <point x="492" y="334"/>
      <point x="473" y="291" type="qcurve"/>
      <point x="532" y="283"/>
      <point x="613" y="274"/>
    </contour>
    <contour>
      <point x="307" y="431" type="line"/>
      <point x="288" y="375"/>
      <point x="266" y="320" type="qcurve"/>
      <point x="374" y="305" type="line"/>
      <point x="390" y="408" type="line"/>
    </contour>
  </outline>
</glyph>
<glyph name="dollar" format="1">
  <advance width="598"/>
  <unicode hex="0024"/>
  <outline>
    <contour>
      <point x="401" y="712" type="qcurve" smooth="yes"/>
      <point x="398" y="717"/>
      <point x="427" y="732"/>
      <point x="464" y="739"/>
      <point x="497" y="735"/>
      <point x="500" y="720" type="qcurve" smooth="yes"/>
      <point x="501" y="714"/>
      <point x="496" y="692" type="qcurve"/>
      <point x="527" y="687"/>
      <point x="544" y="676" type="qcurve" smooth="yes"/>
      <point x="572" y="660"/>
      <point x="574" y="634" type="qcurve" smooth="yes"/>
      <point x="582" y="573"/>
      <point x="468" y="493" type="qcurve" smooth="yes"/>
      <point x="461" y="488"/>
      <point x="445" y="489"/>
      <point x="440" y="495" type="qcurve" smooth="yes"/>
      <point x="436" y="502"/>
      <point x="441" y="519"/>
      <point x="449" y="524" type="qcurve" smooth="yes"/>
      <point x="491" y="554"/>
      <point x="536" y="606"/>
      <point x="534" y="623" type="qcurve" smooth="yes"/>
      <point x="532" y="634"/>
      <point x="506" y="650"/>
      <point x="483" y="653" type="qcurve"/>
      <point x="466" y="604"/>
      <point x="401" y="460"/>
      <point x="363" y="381" type="qcurve"/>
      <point x="385" y="355"/>
      <point x="424" y="299"/>
      <point x="446" y="238"/>
      <point x="443" y="171"/>
      <point x="424" y="134" type="qcurve" smooth="yes"/>
      <point x="406" y="100"/>
      <point x="344" y="52"/>
      <point x="270" y="20"/>
      <point x="192" y="3"/>
      <point x="158" y="0" type="qcurve"/>
      <point x="144" y="-20"/>
      <point x="125" y="-42"/>
      <point x="120" y="-42" type="qcurve" smooth="yes"/>
      <point x="114" y="-41"/>
      <point x="127" y="-1" type="qcurve"/>
      <point x="106" y="-1"/>
      <point x="67" y="8"/>
      <point x="37" y="23"/>
      <point x="19" y="45"/>
      <point x="19" y="59" type="qcurve" smooth="yes"/>
      <point x="16" y="120"/>
      <point x="152" y="193" type="qcurve" smooth="yes"/>
      <point x="170" y="203"/>
      <point x="179" y="186" type="qcurve" smooth="yes"/>
      <point x="182" y="179"/>
      <point x="175" y="164"/>
      <point x="167" y="159" type="qcurve" smooth="yes"/>
      <point x="106" y="127"/>
      <point x="60" y="79"/>
      <point x="59" y="68" type="qcurve" smooth="yes"/>
      <point x="60" y="62"/>
      <point x="74" y="52"/>
      <point x="96" y="44"/>
      <point x="123" y="39"/>
      <point x="137" y="39" type="qcurve" smooth="yes"/>
      <point x="140" y="39" type="line"/>
      <point x="160" y="96"/>
      <point x="226" y="259"/>
      <point x="262" y="347" type="qcurve"/>
      <point x="243" y="367"/>
      <point x="206" y="407"/>
      <point x="176" y="449"/>
      <point x="160" y="494"/>
      <point x="162" y="519" type="qcurve" smooth="yes"/>
      <point x="165" y="557"/>
      <point x="209" y="617"/>
      <point x="276" y="660"/>
      <point x="357" y="687"/>
      <point x="397" y="692" type="qcurve"/>
      <point x="402" y="710"/>
    </contour>
    <contour>
      <point x="314" y="282" type="qcurve"/>
      <point x="280" y="213"/>
      <point x="214" y="91"/>
      <point x="186" y="45" type="qcurve"/>
      <point x="227" y="56"/>
      <point x="298" y="110"/>
      <point x="319" y="149" type="qcurve" smooth="yes"/>
      <point x="340" y="187"/>
      <point x="332" y="253"/>
    </contour>
    <contour>
      <point x="304" y="450" type="qcurve"/>
      <point x="326" y="504"/>
      <point x="363" y="599"/>
      <point x="377" y="634" type="qcurve"/>
      <point x="347" y="622"/>
      <point x="295" y="586"/>
      <point x="281" y="566" type="qcurve" smooth="yes"/>
      <point x="259" y="539"/>
      <point x="279" y="482"/>
    </contour>
  </outline>
</glyph>
<glyph name="percent" format="1">
  <advance width="580"/>
  <unicode hex="0025"/>
  <outline>
    <contour>
      <point x="393" y="692" type="qcurve" smooth="yes"/>
      <point x="392" y="696"/>
      <point x="410" y="695"/>
      <point x="439" y="687"/>
      <point x="473" y="672"/>
      <point x="503" y="652"/>
      <point x="523" y="630"/>
      <point x="523" y="619" type="qcurve" smooth="yes"/>
      <point x="524" y="605"/>
      <point x="488" y="536"/>
      <point x="430" y="442"/>
      <point x="353" y="332"/>
      <point x="272" y="223"/>
      <point x="191" y="122"/>
      <point x="125" y="47"/>
      <point x="78" y="5"/>
      <point x="71" y="10" type="qcurve" smooth="yes"/>
      <point x="66" y="13"/>
      <point x="90" y="72"/>
      <point x="134" y="166"/>
      <point x="194" y="284"/>
      <point x="257" y="407"/>
      <point x="318" y="527"/>
      <point x="366" y="623"/>
      <point x="394" y="686"/>
    </contour>
    <contour>
      <point x="37" y="598" type="qcurve" smooth="yes"/>
      <point x="37" y="638"/>
      <point x="92" y="694"/>
      <point x="132" y="694" type="qcurve" smooth="yes"/>
      <point x="172" y="694"/>
      <point x="228" y="638"/>
      <point x="228" y="598" type="qcurve" smooth="yes"/>
      <point x="228" y="558"/>
      <point x="172" y="503"/>
      <point x="132" y="503" type="qcurve" smooth="yes"/>
      <point x="92" y="503"/>
      <point x="37" y="558"/>
    </contour>
    <contour>
      <point x="347" y="98" type="qcurve" smooth="yes"/>
      <point x="347" y="138"/>
      <point x="402" y="194"/>
      <point x="442" y="194" type="qcurve" smooth="yes"/>
      <point x="482" y="194"/>
      <point x="538" y="138"/>
      <point x="538" y="98" type="qcurve" smooth="yes"/>
      <point x="538" y="58"/>
      <point x="482" y="3"/>
      <point x="442" y="3" type="qcurve" smooth="yes"/>
      <point x="402" y="3"/>
      <point x="347" y="58"/>
    </contour>
  </outline>
</glyph>
<glyph name="ampersand" format="1">
  <advance width="698"/>
  <unicode hex="0026"/>
  <outline>
    <contour>
      <point x="555" y="-250" type="qcurve" smooth="yes"/>
      <point x="523" y="-250"/>
      <point x="495" y="-243" type="qcurve" smooth="yes"/>
      <point x="448" y="-230"/>
      <point x="372" y="-171"/>
      <point x="314" y="-93"/>
      <point x="271" y="-3"/>
      <point x="257" y="42" type="qcurve"/>
      <point x="231" y="19"/>
      <point x="150" y="-3"/>
      <point x="74" y="6"/>
      <point x="21" y="53"/>
      <point x="23" y="99" type="qcurve" smooth="yes"/>
      <point x="24" y="129"/>
      <point x="61" y="211"/>
      <point x="115" y="295"/>
      <point x="176" y="374"/>
      <point x="199" y="402" type="qcurve"/>
      <point x="197" y="470"/>
      <point x="208" y="569"/>
      <point x="221" y="599" type="qcurve" smooth="yes"/>
      <point x="236" y="634"/>
      <point x="269" y="677"/>
      <point x="303" y="699"/>
      <point x="335" y="701"/>
      <point x="347" y="696" type="qcurve" smooth="yes"/>
      <point x="382" y="681"/>
      <point x="408" y="630"/>
      <point x="401" y="568"/>
      <point x="370" y="498"/>
      <point x="326" y="428"/>
      <point x="277" y="362"/>
      <point x="256" y="335" type="qcurve"/>
      <point x="256" y="316"/>
      <point x="260" y="256"/>
      <point x="266" y="191"/>
      <point x="274" y="132"/>
      <point x="278" y="113" type="qcurve"/>
      <point x="296" y="132"/>
      <point x="334" y="188"/>
      <point x="372" y="265"/>
      <point x="407" y="366"/>
      <point x="422" y="431" type="qcurve" smooth="yes"/>
      <point x="425" y="440"/>
      <point x="447" y="447"/>
      <point x="471" y="444"/>
      <point x="489" y="432"/>
      <point x="486" y="422" type="qcurve" smooth="yes"/>
      <point x="469" y="348"/>
      <point x="421" y="239"/>
      <point x="367" y="156"/>
      <point x="313" y="95"/>
      <point x="290" y="69" type="qcurve"/>
      <point x="309" y="-4"/>
      <point x="368" y="-109"/>
      <point x="453" y="-166"/>
      <point x="569" y="-171"/>
      <point x="645" y="-144" type="qcurve" smooth="yes"/>
      <point x="654" y="-141"/>
      <point x="668" y="-165"/>
      <point x="673" y="-198"/>
      <point x="667" y="-229"/>
      <point x="658" y="-232" type="qcurve" smooth="yes"/>
      <point x="605" y="-250"/>
    </contour>
    <contour>
      <point x="213" y="295" type="qcurve"/>
      <point x="181" y="246"/>
      <point x="137" y="158"/>
      <point x="135" y="110" type="qcurve" smooth="yes"/>
      <point x="134" y="75"/>
      <point x="157" y="46"/>
      <point x="191" y="45"/>
      <point x="229" y="66"/>
      <point x="244" y="83" type="qcurve"/>
      <point x="232" y="134"/>
      <point x="219" y="239"/>
    </contour>
    <contour>
      <point x="325" y="660" type="qcurve" smooth="yes"/>
      <point x="313" y="660"/>
      <point x="276" y="627"/>
      <point x="258" y="584" type="qcurve" smooth="yes"/>
      <point x="250" y="565"/>
      <point x="240" y="492"/>
      <point x="239" y="443" type="qcurve"/>
      <point x="249" y="454"/>
      <point x="277" y="494"/>
      <point x="305" y="539"/>
      <point x="329" y="587"/>
      <point x="342" y="628"/>
      <point x="338" y="656"/>
    </contour>
  </outline>
</glyph>
<glyph name="quotesingle" format="1">
  <advance width="171"/>
  <unicode hex="0027"/>
  <outline>
    <contour>
      <point x="73" y="627" type="qcurve" smooth="yes"/>
      <point x="71" y="634"/>
      <point x="98" y="636"/>
      <point x="132" y="626"/>
      <point x="161" y="604"/>
      <point x="161" y="587" type="qcurve" smooth="yes"/>
      <point x="162" y="559"/>
      <point x="132" y="479"/>
      <point x="90" y="409"/>
      <point x="45" y="366"/>
      <point x="31" y="375" type="qcurve" smooth="yes"/>
      <point x="25" y="379"/>
      <point x="27" y="415"/>
      <point x="38" y="466"/>
      <point x="53" y="525"/>
      <point x="66" y="578"/>
      <point x="75" y="619"/>
    </contour>
  </outline>
</glyph>
<glyph name="parenleft" format="1">
  <advance width="477"/>
  <unicode hex="0028"/>
  <outline>
    <contour>
      <point x="263" y="-177" type="qcurve" smooth="yes"/>
      <point x="261" y="-177"/>
      <point x="259" y="-176"/>
      <point x="257" y="-176" type="qcurve" smooth="yes"/>
      <point x="141" y="-135"/>
      <point x="83" y="-46" type="qcurve" smooth="yes"/>
      <point x="56" y="-5"/>
      <point x="27" y="93"/>
      <point x="27" y="148" type="qcurve" smooth="yes"/>
      <point x="27" y="227"/>
      <point x="56" y="311" type="qcurve" smooth="yes"/>
      <point x="85" y="396"/>
      <point x="138" y="469" type="qcurve" smooth="yes"/>
      <point x="195" y="547"/>
      <point x="268" y="603" type="qcurve" smooth="yes"/>
      <point x="348" y="665"/>
      <point x="440" y="698" type="qcurve" smooth="yes"/>
      <point x="448" y="701"/>
      <point x="463" y="694"/>
      <point x="466" y="686" type="qcurve" smooth="yes"/>
      <point x="469" y="678"/>
      <point x="462" y="663"/>
      <point x="454" y="660" type="qcurve" smooth="yes"/>
      <point x="413" y="643"/>
      <point x="333" y="568"/>
      <point x="264" y="466"/>
      <point x="208" y="345"/>
      <point x="172" y="217"/>
      <point x="159" y="91"/>
      <point x="176" y="-21"/>
      <point x="226" y="-111"/>
      <point x="270" y="-138" type="qcurve" smooth="yes"/>
      <point x="277" y="-143"/>
      <point x="285" y="-155"/>
      <point x="282" y="-163" type="qcurve" smooth="yes"/>
      <point x="277" y="-177"/>
    </contour>
  </outline>
</glyph>
<glyph name="parenright" format="1">
  <advance width="481"/>
  <unicode hex="0029"/>
  <outline>
    <contour>
      <point x="218" y="702" type="qcurve" smooth="yes"/>
      <point x="220" y="702"/>
      <point x="222" y="701"/>
      <point x="224" y="701" type="qcurve" smooth="yes"/>
      <point x="340" y="660"/>
      <point x="398" y="571" type="qcurve" smooth="yes"/>
      <point x="425" y="530"/>
      <point x="454" y="432"/>
      <point x="454" y="377" type="qcurve" smooth="yes"/>
      <point x="454" y="298"/>
      <point x="425" y="214" type="qcurve" smooth="yes"/>
      <point x="396" y="129"/>
      <point x="343" y="56" type="qcurve" smooth="yes"/>
      <point x="286" y="-22"/>
      <point x="213" y="-78" type="qcurve" smooth="yes"/>
      <point x="133" y="-140"/>
      <point x="41" y="-173" type="qcurve" smooth="yes"/>
      <point x="33" y="-176"/>
      <point x="18" y="-169"/>
      <point x="15" y="-161" type="qcurve" smooth="yes"/>
      <point x="12" y="-153"/>
      <point x="19" y="-138"/>
      <point x="27" y="-135" type="qcurve" smooth="yes"/>
      <point x="68" y="-118"/>
      <point x="148" y="-43"/>
      <point x="217" y="58"/>
      <point x="273" y="180"/>
      <point x="309" y="307"/>
      <point x="322" y="434"/>
      <point x="305" y="546"/>
      <point x="255" y="636"/>
      <point x="211" y="663" type="qcurve" smooth="yes"/>
      <point x="204" y="668"/>
      <point x="196" y="680"/>
      <point x="199" y="688" type="qcurve" smooth="yes"/>
      <point x="204" y="702"/>
    </contour>
  </outline>
</glyph>
<glyph name="asterisk" format="1">
  <advance width="300"/>
  <unicode hex="002A"/>
  <outline>
    <contour>
      <point x="63" y="571" type="qcurve" smooth="yes"/>
      <point x="76" y="571"/>
      <point x="110" y="552"/>
      <point x="129" y="538" type="qcurve"/>
      <point x="131" y="558"/>
      <point x="130" y="588"/>
      <point x="124" y="594" type="qcurve" smooth="yes"/>
      <point x="120" y="597"/>
      <point x="128" y="610"/>
      <point x="145" y="617"/>
      <point x="167" y="613"/>
      <point x="178" y="600" type="qcurve" smooth="yes"/>
      <point x="184" y="592"/>
      <point x="189" y="568"/>
      <point x="190" y="552" type="qcurve"/>
      <point x="217" y="571"/>
      <point x="236" y="571" type="qcurve" smooth="yes"/>
      <point x="253" y="570"/>
      <point x="269" y="555"/>
      <point x="273" y="537"/>
      <point x="268" y="523"/>
      <point x="263" y="524" type="qcurve" smooth="yes"/>
      <point x="252" y="526"/>
      <point x="218" y="498"/>
      <point x="197" y="478" type="qcurve"/>
      <point x="221" y="456"/>
      <point x="258" y="427"/>
      <point x="266" y="432" type="qcurve" smooth="yes"/>
      <point x="270" y="434"/>
      <point x="274" y="417"/>
      <point x="270" y="395"/>
      <point x="253" y="376"/>
      <point x="236" y="376" type="qcurve" smooth="yes"/>
      <point x="223" y="375"/>
      <point x="195" y="390"/>
      <point x="180" y="403" type="qcurve"/>
      <point x="178" y="383"/>
      <point x="180" y="356"/>
      <point x="186" y="354" type="qcurve" smooth="yes"/>
      <point x="190" y="352"/>
      <point x="179" y="338"/>
      <point x="159" y="329"/>
      <point x="133" y="331"/>
      <point x="123" y="345" type="qcurve" smooth="yes"/>
      <point x="116" y="353"/>
      <point x="111" y="380"/>
      <point x="111" y="397" type="qcurve"/>
      <point x="98" y="387"/>
      <point x="74" y="375"/>
      <point x="63" y="376" type="qcurve" smooth="yes"/>
      <point x="46" y="376"/>
      <point x="29" y="395"/>
      <point x="25" y="417"/>
      <point x="29" y="434"/>
      <point x="33" y="432" type="qcurve" smooth="yes"/>
      <point x="40" y="427"/>
      <point x="77" y="456"/>
      <point x="101" y="478" type="qcurve"/>
      <point x="81" y="498"/>
      <point x="47" y="526"/>
      <point x="36" y="524" type="qcurve" smooth="yes"/>
      <point x="31" y="523"/>
      <point x="26" y="537"/>
      <point x="30" y="555"/>
      <point x="46" y="570"/>
    </contour>
  </outline>
</glyph>
<glyph name="plus" format="1">
  <advance width="515"/>
  <unicode hex="002B"/>
  <outline>
    <contour>
      <point x="459" y="357" type="qcurve" smooth="yes"/>
      <point x="464" y="362"/>
      <point x="477" y="330"/>
      <point x="484" y="283"/>
      <point x="478" y="237"/>
      <point x="464" y="228" type="qcurve" smooth="yes"/>
      <point x="447" y="217"/>
      <point x="363" y="211"/>
      <point x="309" y="213" type="qcurve"/>
      <point x="304" y="177"/>
      <point x="292" y="111"/>
      <point x="278" y="61"/>
      <point x="263" y="32"/>
      <point x="255" y="32" type="qcurve" smooth="yes"/>
      <point x="250" y="32"/>
      <point x="240" y="63"/>
      <point x="230" y="115"/>
      <point x="220" y="183"/>
      <point x="216" y="220" type="qcurve"/>
      <point x="175" y="224"/>
      <point x="100" y="237"/>
      <point x="43" y="252"/>
      <point x="9" y="269"/>
      <point x="9" y="278" type="qcurve" smooth="yes"/>
      <point x="9" y="283"/>
      <point x="41" y="293"/>
      <point x="95" y="303"/>
      <point x="166" y="313"/>
      <point x="204" y="318" type="qcurve"/>
      <point x="200" y="349"/>
      <point x="193" y="406"/>
      <point x="186" y="450"/>
      <point x="179" y="479"/>
      <point x="176" y="482" type="qcurve" smooth="yes"/>
      <point x="171" y="487"/>
      <point x="203" y="500"/>
      <point x="250" y="507"/>
      <point x="296" y="501"/>
      <point x="305" y="487" type="qcurve" smooth="yes"/>
      <point x="316" y="470"/>
      <point x="322" y="385"/>
      <point x="320" y="331" type="qcurve"/>
      <point x="374" y="338"/>
      <point x="453" y="351"/>
    </contour>
  </outline>
</glyph>
<glyph name="comma" format="1">
  <advance width="255"/>
  <unicode hex="002C"/>
  <outline>
    <contour>
      <point x="34" y="114" type="qcurve" smooth="yes"/>
      <point x="31" y="120"/>
      <point x="56" y="129"/>
      <point x="90" y="128"/>
      <point x="120" y="114"/>
      <point x="123" y="97" type="qcurve" smooth="yes"/>
      <point x="129" y="59"/>
      <point x="106" y="-12"/>
      <point x="67" y="-64"/>
      <point x="20" y="-88"/>
      <point x="0" y="-78" type="qcurve" smooth="yes"/>
      <point x="-10" y="-73"/>
      <point x="13" y="-40"/>
      <point x="40" y="11"/>
      <point x="53" y="76"/>
    </contour>
  </outline>
</glyph>
<glyph name="hyphen" format="1">
  <advance width="526"/>
  <unicode hex="002D"/>
  <outline>
    <contour>
      <point x="454" y="357" type="qcurve" smooth="yes"/>
      <point x="459" y="362"/>
      <point x="472" y="330"/>
      <point x="479" y="283"/>
      <point x="473" y="237"/>
      <point x="459" y="228" type="qcurve" smooth="yes"/>
      <point x="443" y="218"/>
      <point x="363" y="211"/>
      <point x="262" y="215"/>
      <point x="153" y="227"/>
      <point x="62" y="245"/>
      <point x="4" y="267"/>
      <point x="4" y="278" type="qcurve" smooth="yes"/>
      <point x="4" y="285"/>
      <point x="67" y="300"/>
      <point x="164" y="314"/>
      <point x="277" y="327"/>
      <point x="377" y="340"/>
      <point x="448" y="351"/>
    </contour>
  </outline>
</glyph>
<glyph name="period" format="1">
  <advance width="206"/>
  <unicode hex="002E"/>
  <outline>
    <contour>
      <point x="45" y="10" type="qcurve" smooth="yes"/>
      <point x="45" y="3"/>
      <point x="18" y="3"/>
      <point x="-14" y="16"/>
      <point x="-41" y="44"/>
      <point x="-41" y="66" type="qcurve" smooth="yes"/>
      <point x="-41" y="72"/>
      <point x="-31" y="92"/>
      <point x="-18" y="114"/>
      <point x="-8" y="133"/>
      <point x="-8" y="138" type="qcurve" smooth="yes"/>
      <point x="-8" y="144"/>
      <point x="18" y="144"/>
      <point x="49" y="130"/>
      <point x="75" y="102"/>
      <point x="75" y="81" type="qcurve" smooth="yes"/>
      <point x="75" y="76"/>
      <point x="66" y="57"/>
      <point x="54" y="36"/>
      <point x="45" y="16"/>
    </contour>
  </outline>
</glyph>
<glyph name="slash" format="1">
  <advance width="492"/>
  <unicode hex="002F"/>
  <outline>
    <contour>
      <point x="353" y="692" type="qcurve" smooth="yes"/>
      <point x="352" y="696"/>
      <point x="370" y="695"/>
      <point x="399" y="687"/>
      <point x="433" y="672"/>
      <point x="463" y="652"/>
      <point x="483" y="630"/>
      <point x="483" y="619" type="qcurve" smooth="yes"/>
      <point x="484" y="605"/>
      <point x="448" y="536"/>
      <point x="390" y="442"/>
      <point x="313" y="332"/>
      <point x="232" y="223"/>
      <point x="151" y="122"/>
      <point x="85" y="47"/>
      <point x="38" y="5"/>
      <point x="31" y="10" type="qcurve" smooth="yes"/>
      <point x="26" y="13"/>
      <point x="50" y="72"/>
      <point x="94" y="166"/>
      <point x="154" y="284"/>
      <point x="217" y="407"/>
      <point x="278" y="527"/>
      <point x="326" y="623"/>
      <point x="354" y="686"/>
    </contour>
  </outline>
</glyph>
<glyph name="zero" format="1">
  <advance width="609"/>
  <unicode hex="0030"/>
  <outline>
    <contour>
      <point x="240" y="1" type="line" smooth="yes"/>
      <point x="175" y="3"/>
      <point x="95" y="60"/>
      <point x="57" y="150"/>
      <point x="58" y="263"/>
      <point x="74" y="323" type="qcurve" smooth="yes"/>
      <point x="83" y="355"/>
      <point x="114" y="434"/>
      <point x="158" y="516"/>
      <point x="215" y="595"/>
      <point x="287" y="656"/>
      <point x="373" y="694"/>
      <point x="423" y="695" type="qcurve" smooth="yes"/>
      <point x="462" y="696"/>
      <point x="529" y="645"/>
      <point x="544" y="603" type="qcurve" smooth="yes"/>
      <point x="558" y="568"/>
      <point x="564" y="479"/>
      <point x="559" y="425" type="qcurve" smooth="yes"/>
      <point x="553" y="390"/>
      <point x="536" y="316"/>
      <point x="522" y="280" type="qcurve" smooth="yes"/>
      <point x="494" y="204"/>
      <point x="457" y="146" type="qcurve" smooth="yes"/>
      <point x="412" y="81"/>
      <point x="362" y="44" type="qcurve" smooth="yes"/>
      <point x="334" y="23"/>
      <point x="274" y="2"/>
      <point x="244" y="1" type="qcurve" smooth="yes"/>
    </contour>
    <contour>
      <point x="247" y="41" type="qcurve" smooth="yes"/>
      <point x="292" y="33"/>
      <point x="383" y="105"/>
      <point x="423" y="165" type="qcurve" smooth="yes"/>
      <point x="459" y="220"/>
      <point x="509" y="358"/>
      <point x="518" y="427" type="qcurve" smooth="yes"/>
      <point x="523" y="466"/>
      <point x="519" y="548"/>
      <point x="498" y="615"/>
      <point x="457" y="656"/>
      <point x="426" y="653" type="qcurve" smooth="yes"/>
      <point x="394" y="650"/>
      <point x="334" y="597"/>
      <point x="281" y="513"/>
      <point x="236" y="407"/>
      <point x="218" y="351" type="qcurve" smooth="yes"/>
      <point x="200" y="296"/>
      <point x="181" y="189"/>
      <point x="185" y="104"/>
      <point x="215" y="47"/>
    </contour>
  </outline>
</glyph>
<glyph name="one" format="1">
  <advance width="417"/>
  <unicode hex="0031"/>
  <outline>
    <contour>
      <point x="245" y="587" type="line" smooth="yes"/>
      <point x="243" y="583"/>
      <point x="236" y="576"/>
      <point x="233" y="573" type="qcurve" smooth="yes"/>
      <point x="213" y="552"/>
      <point x="175" y="518"/>
      <point x="158" y="505" type="qcurve" smooth="yes"/>
      <point x="140" y="491"/>
      <point x="102" y="472"/>
      <point x="66" y="466"/>
      <point x="36" y="478"/>
      <point x="25" y="496" type="qcurve" smooth="yes"/>
      <point x="20" y="504"/>
      <point x="31" y="529"/>
      <point x="49" y="551"/>
      <point x="69" y="561"/>
      <point x="74" y="554" type="qcurve" smooth="yes"/>
      <point x="82" y="541"/>
      <point x="104" y="529"/>
      <point x="134" y="536"/>
      <point x="176" y="567"/>
      <point x="205" y="597" type="qcurve" smooth="yes"/>
      <point x="221" y="614"/>
      <point x="249" y="646"/>
      <point x="270" y="672"/>
      <point x="282" y="688"/>
      <point x="282" y="688" type="qcurve" smooth="yes"/>
      <point x="287" y="695"/>
      <point x="326" y="698"/>
      <point x="368" y="694"/>
      <point x="399" y="682"/>
      <point x="396" y="674" type="qcurve" smooth="yes"/>
      <point x="170" y="17" type="line" smooth="yes"/>
      <point x="167" y="8"/>
      <point x="127" y="2"/>
      <point x="82" y="4"/>
      <point x="48" y="15"/>
      <point x="51" y="24" type="qcurve" smooth="yes"/>
    </contour>
  </outline>
</glyph>
<glyph name="two" format="1">
  <advance width="572"/>
  <unicode hex="0032"/>
  <outline>
    <contour>
      <point x="747" y="-124" type="qcurve" smooth="yes"/>
      <point x="755" y="-120"/>
      <point x="768" y="-146"/>
      <point x="774" y="-183"/>
      <point x="771" y="-219"/>
      <point x="764" y="-224" type="qcurve" smooth="yes"/>
      <point x="742" y="-239"/>
      <point x="696" y="-250"/>
      <point x="673" y="-250" type="qcurve" smooth="yes"/>
      <point x="668" y="-250"/>
      <point x="659" y="-250"/>
      <point x="654" y="-249" type="qcurve" smooth="yes"/>
      <point x="605" y="-243"/>
      <point x="555" y="-208" type="qcurve" smooth="yes"/>
      <point x="511" y="-176"/>
      <point x="430" y="-82"/>
      <point x="391" y="-32" type="qcurve" smooth="yes"/>
      <point x="366" y="0"/>
      <point x="317" y="59"/>
      <point x="293" y="84" type="qcurve"/>
      <point x="269" y="66"/>
      <point x="242" y="51" type="qcurve" smooth="yes"/>
      <point x="206" y="29"/>
      <point x="141" y="5"/>
      <point x="114" y="0" type="qcurve" smooth="yes"/>
      <point x="81" y="-5"/>
      <point x="41" y="9"/>
      <point x="31" y="17" type="qcurve" smooth="yes"/>
      <point x="14" y="32"/>
      <point x="3" y="78"/>
      <point x="12" y="103" type="qcurve" smooth="yes"/>
      <point x="18" y="118"/>
      <point x="41" y="150"/>
      <point x="78" y="176"/>
      <point x="128" y="194"/>
      <point x="160" y="196" type="qcurve" smooth="yes"/>
      <point x="197" y="197"/>
      <point x="239" y="178" type="qcurve"/>
      <point x="262" y="204"/>
      <point x="303" y="262"/>
      <point x="320" y="294" type="qcurve" smooth="yes"/>
      <point x="353" y="354"/>
      <point x="384" y="477"/>
      <point x="379" y="529" type="qcurve" smooth="yes"/>
      <point x="377" y="560"/>
      <point x="361" y="611"/>
      <point x="330" y="641"/>
      <point x="281" y="646"/>
      <point x="247" y="632" type="qcurve" smooth="yes"/>
      <point x="239" y="628"/>
      <point x="224" y="634"/>
      <point x="221" y="642" type="qcurve" smooth="yes"/>
      <point x="216" y="660"/>
      <point x="233" y="669" type="qcurve" smooth="yes"/>
      <point x="270" y="683"/>
      <point x="300" y="690" type="qcurve"/>
      <point x="301" y="690" type="line"/>
      <point x="356" y="703"/>
      <point x="404" y="692" type="qcurve" smooth="yes"/>
      <point x="471" y="674"/>
      <point x="501" y="610" type="qcurve" smooth="yes"/>
      <point x="522" y="563"/>
      <point x="518" y="435"/>
      <point x="472" y="297"/>
      <point x="386" y="163"/>
      <point x="325" y="110" type="qcurve"/>
      <point x="350" y="84"/>
      <point x="399" y="24"/>
      <point x="423" y="-7" type="qcurve" smooth="yes"/>
      <point x="457" y="-50"/>
      <point x="525" y="-121"/>
      <point x="600" y="-160"/>
      <point x="690" y="-156"/>
    </contour>
    <contour>
      <point x="80" y="129" type="qcurve" smooth="yes"/>
      <point x="70" y="122"/>
      <point x="55" y="101"/>
      <point x="47" y="78"/>
      <point x="48" y="58"/>
      <point x="56" y="52" type="qcurve" smooth="yes"/>
      <point x="67" y="44"/>
      <point x="109" y="57"/>
      <point x="154" y="87"/>
      <point x="195" y="128"/>
      <point x="207" y="146" type="qcurve"/>
      <point x="191" y="155"/>
      <point x="155" y="157"/>
      <point x="120" y="150"/>
      <point x="90" y="136"/>
    </contour>
  </outline>
</glyph>
<glyph name="three" format="1">
  <advance width="602"/>
  <unicode hex="0033"/>
  <outline>
    <contour>
      <point x="182" y="5" type="qcurve" smooth="yes"/>
      <point x="162" y="5"/>
      <point x="123" y="13"/>
      <point x="107" y="21" type="qcurve" smooth="yes"/>
      <point x="74" y="37"/>
      <point x="54" y="64" type="qcurve" smooth="yes"/>
      <point x="43" y="78"/>
      <point x="30" y="111"/>
      <point x="27" y="129" type="qcurve" smooth="yes"/>
      <point x="25" y="151"/>
      <point x="33" y="195"/>
      <point x="41" y="218" type="qcurve" smooth="yes"/>
      <point x="60" y="264"/>
      <point x="99" y="297" type="qcurve" smooth="yes"/>
      <point x="118" y="313"/>
      <point x="167" y="337"/>
      <point x="218" y="346"/>
      <point x="264" y="336"/>
      <point x="281" y="318" type="qcurve" smooth="yes"/>
      <point x="287" y="311"/>
      <point x="273" y="286"/>
      <point x="250" y="264"/>
      <point x="225" y="253"/>
      <point x="221" y="262" type="qcurve" smooth="yes"/>
      <point x="207" y="291"/>
      <point x="150" y="291"/>
      <point x="124" y="268" type="qcurve" smooth="yes"/>
      <point x="93" y="242"/>
      <point x="78" y="205" type="qcurve" smooth="yes"/>
      <point x="71" y="188"/>
      <point x="66" y="154"/>
      <point x="67" y="138" type="qcurve" smooth="yes"/>
      <point x="72" y="111"/>
      <point x="100" y="66"/>
      <point x="126" y="57" type="qcurve" smooth="yes"/>
      <point x="170" y="42"/>
      <point x="260" y="83"/>
      <point x="332" y="165"/>
      <point x="378" y="274"/>
      <point x="380" y="380"/>
      <point x="329" y="468"/>
      <point x="269" y="489" type="qcurve" smooth="yes"/>
      <point x="258" y="494"/>
      <point x="255" y="504" type="qcurve" smooth="yes"/>
      <point x="255" y="517"/>
      <point x="265" y="524" type="qcurve" smooth="yes"/>
      <point x="445" y="657" type="line"/>
      <point x="208" y="657" type="line" smooth="yes"/>
      <point x="200" y="657"/>
      <point x="188" y="668"/>
      <point x="189" y="677" type="qcurve" smooth="yes"/>
      <point x="191" y="685"/>
      <point x="204" y="697"/>
      <point x="212" y="697" type="qcurve" smooth="yes"/>
      <point x="556" y="697" type="line" smooth="yes"/>
      <point x="569" y="697"/>
      <point x="574" y="683" type="qcurve" smooth="yes"/>
      <point x="575" y="677"/>
      <point x="570" y="665"/>
      <point x="564" y="661" type="qcurve" smooth="yes"/>
      <point x="368" y="515" type="line"/>
      <point x="434" y="486"/>
      <point x="498" y="388"/>
      <point x="504" y="275"/>
      <point x="458" y="158"/>
      <point x="373" y="64"/>
      <point x="253" y="5"/>
    </contour>
  </outline>
</glyph>
<glyph name="four" format="1">
  <advance width="743"/>
  <unicode hex="0034"/>
  <outline>
    <contour>
      <point x="829" y="744" type="qcurve" smooth="yes"/>
      <point x="837" y="743"/>
      <point x="844" y="728"/>
      <point x="841" y="720" type="qcurve" smooth="yes"/>
      <point x="838" y="712"/>
      <point x="823" y="705"/>
      <point x="815" y="705" type="qcurve" smooth="yes"/>
      <point x="763" y="704"/>
      <point x="638" y="664"/>
      <point x="507" y="600"/>
      <point x="381" y="517"/>
      <point x="274" y="430"/>
      <point x="196" y="343"/>
      <point x="180" y="307" type="qcurve"/>
      <point x="447" y="307" type="line"/>
      <point x="539" y="568" type="line" smooth="yes"/>
      <point x="542" y="578"/>
      <point x="582" y="585"/>
      <point x="627" y="583"/>
      <point x="661" y="571"/>
      <point x="657" y="561" type="qcurve" smooth="yes"/>
      <point x="467" y="16" type="line" smooth="yes"/>
      <point x="464" y="7"/>
      <point x="424" y="-1"/>
      <point x="380" y="2"/>
      <point x="346" y="14"/>
      <point x="349" y="23" type="qcurve" smooth="yes"/>
      <point x="433" y="267" type="line"/>
      <point x="68" y="267" type="line" smooth="yes"/>
      <point x="58" y="267"/>
      <point x="53" y="277" type="qcurve" smooth="yes"/>
      <point x="51" y="282"/>
      <point x="55" y="291"/>
      <point x="57" y="297" type="qcurve" smooth="yes"/>
      <point x="70" y="339"/>
      <point x="150" y="444"/>
      <point x="268" y="550"/>
      <point x="417" y="648"/>
      <point x="580" y="720"/>
      <point x="749" y="754"/>
    </contour>
  </outline>
</glyph>
<glyph name="five" format="1">
  <advance width="705"/>
  <unicode hex="0035"/>
  <outline>
    <contour>
      <point x="665" y="697" type="line"/>
      <point x="673" y="697"/>
      <point x="683" y="685"/>
      <point x="681" y="677" type="qcurve" smooth="yes"/>
      <point x="679" y="668"/>
      <point x="666" y="657"/>
      <point x="658" y="657" type="qcurve" smooth="yes"/>
      <point x="301" y="657" type="line"/>
      <point x="217" y="431" type="line"/>
      <point x="240" y="444"/>
      <point x="288" y="464"/>
      <point x="312" y="467" type="qcurve" smooth="yes"/>
      <point x="384" y="476"/>
      <point x="477" y="448"/>
      <point x="527" y="388"/>
      <point x="536" y="305"/>
      <point x="509" y="214"/>
      <point x="451" y="124"/>
      <point x="367" y="52"/>
      <point x="260" y="4"/>
      <point x="198" y="0" type="qcurve" smooth="yes"/>
      <point x="160" y="-2"/>
      <point x="91" y="17"/>
      <point x="42" y="54"/>
      <point x="18" y="107"/>
      <point x="25" y="139" type="qcurve" smooth="yes"/>
      <point x="27" y="149"/>
      <point x="57" y="161"/>
      <point x="89" y="165"/>
      <point x="114" y="158"/>
      <point x="112" y="149" type="qcurve" smooth="yes"/>
      <point x="101" y="103"/>
      <point x="146" y="41"/>
      <point x="193" y="41" type="qcurve" smooth="yes"/>
      <point x="247" y="41"/>
      <point x="334" y="100"/>
      <point x="392" y="187"/>
      <point x="418" y="289"/>
      <point x="408" y="375"/>
      <point x="358" y="430"/>
      <point x="311" y="428" type="qcurve" smooth="yes"/>
      <point x="280" y="426"/>
      <point x="217" y="392"/>
      <point x="188" y="370" type="qcurve" smooth="yes"/>
      <point x="182" y="365"/>
      <point x="145" y="364"/>
      <point x="105" y="370"/>
      <point x="77" y="381"/>
      <point x="80" y="388" type="qcurve" smooth="yes"/>
      <point x="191" y="680" type="line" smooth="yes"/>
      <point x="193" y="688"/>
      <point x="205" y="697"/>
      <point x="212" y="697" type="qcurve" smooth="yes"/>
      <point x="665" y="697" type="line"/>
    </contour>
  </outline>
</glyph>
<glyph name="six" format="1">
  <advance width="557"/>
  <unicode hex="0036"/>
  <outline>
    <contour>
      <point x="31" y="142" type="qcurve" smooth="yes"/>
      <point x="15" y="197"/>
      <point x="37" y="330"/>
      <point x="67" y="396" type="qcurve" smooth="yes"/>
      <point x="98" y="464"/>
      <point x="197" y="587"/>
      <point x="325" y="674"/>
      <point x="479" y="711"/>
      <point x="565" y="692" type="qcurve" smooth="yes"/>
      <point x="573" y="690"/>
      <point x="581" y="677"/>
      <point x="578" y="669" type="qcurve" smooth="yes"/>
      <point x="576" y="661"/>
      <point x="561" y="652"/>
      <point x="553" y="653" type="qcurve" smooth="yes"/>
      <point x="503" y="659"/>
      <point x="408" y="630"/>
      <point x="324" y="574"/>
      <point x="250" y="496"/>
      <point x="194" y="408"/>
      <point x="155" y="317"/>
      <point x="147" y="277" type="qcurve"/>
      <point x="181" y="312"/>
      <point x="281" y="352"/>
      <point x="332" y="350" type="qcurve" smooth="yes"/>
      <point x="366" y="349"/>
      <point x="421" y="325"/>
      <point x="459" y="286"/>
      <point x="477" y="234"/>
      <point x="473" y="204" type="qcurve" smooth="yes"/>
      <point x="468" y="167"/>
      <point x="426" y="97"/>
      <point x="363" y="42"/>
      <point x="285" y="4"/>
      <point x="245" y="0" type="qcurve" smooth="yes"/>
      <point x="210" y="-4"/>
      <point x="142" y="11"/>
      <point x="85" y="47"/>
      <point x="41" y="104"/>
    </contour>
    <contour>
      <point x="128" y="153" type="qcurve"/>
      <point x="129" y="106"/>
      <point x="168" y="53"/>
      <point x="228" y="36"/>
      <point x="300" y="51"/>
      <point x="366" y="90"/>
      <point x="419" y="150"/>
      <point x="430" y="188" type="qcurve" smooth="yes"/>
      <point x="434" y="204"/>
      <point x="432" y="243"/>
      <point x="412" y="278"/>
      <point x="371" y="304"/>
      <point x="336" y="308" type="qcurve" smooth="yes"/>
      <point x="306" y="311"/>
      <point x="237" y="286"/>
      <point x="175" y="241"/>
      <point x="132" y="182"/>
    </contour>
  </outline>
</glyph>
<glyph name="seven" format="1">
  <advance width="646"/>
  <unicode hex="0037"/>
  <outline>
    <contour>
      <point x="602" y="698" type="line" smooth="yes"/>
      <point x="616" y="698"/>
      <point x="630" y="689"/>
      <point x="633" y="676"/>
      <point x="627" y="662"/>
      <point x="621" y="658" type="qcurve" smooth="yes"/>
      <point x="612" y="652"/>
      <point x="575" y="616"/>
      <point x="528" y="567"/>
      <point x="476" y="507"/>
      <point x="428" y="448"/>
      <point x="389" y="392"/>
      <point x="379" y="371" type="qcurve"/>
      <point x="478" y="370" type="line" smooth="yes"/>
      <point x="486" y="369"/>
      <point x="496" y="357"/>
      <point x="494" y="349" type="qcurve" smooth="yes"/>
      <point x="493" y="341"/>
      <point x="480" y="330"/>
      <point x="472" y="330" type="qcurve" smooth="yes"/>
      <point x="354" y="332" type="line"/>
      <point x="316" y="268"/>
      <point x="238" y="111"/>
      <point x="203" y="16" type="qcurve" smooth="yes"/>
      <point x="199" y="5"/>
      <point x="159" y="-2"/>
      <point x="115" y="2"/>
      <point x="82" y="15"/>
      <point x="86" y="25" type="qcurve" smooth="yes"/>
      <point x="117" y="108"/>
      <point x="188" y="261"/>
      <point x="231" y="333" type="qcurve"/>
      <point x="150" y="334" type="line" smooth="yes"/>
      <point x="142" y="334"/>
      <point x="132" y="346"/>
      <point x="133" y="354" type="qcurve" smooth="yes"/>
      <point x="135" y="362"/>
      <point x="148" y="374"/>
      <point x="156" y="374" type="qcurve" smooth="yes"/>
      <point x="255" y="372" type="line"/>
      <point x="276" y="407"/>
      <point x="332" y="486"/>
      <point x="394" y="563"/>
      <point x="457" y="631"/>
      <point x="484" y="656" type="qcurve"/>
      <point x="201" y="655" type="line"/>
      <point x="154" y="577" type="line" smooth="yes"/>
      <point x="149" y="568"/>
      <point x="114" y="565"/>
      <point x="78" y="572"/>
      <point x="54" y="586"/>
      <point x="60" y="594" type="qcurve" smooth="yes"/>
      <point x="113" y="683" type="line" smooth="yes"/>
      <point x="122" y="695"/>
      <point x="133" y="695" type="qcurve" smooth="yes"/>
    </contour>
  </outline>
</glyph>
<glyph name="eight" format="1">
  <advance width="625"/>
  <unicode hex="0038"/>
  <outline>
    <contour>
      <point x="494" y="291" type="qcurve" smooth="yes"/>
      <point x="535" y="239"/>
      <point x="521" y="179" type="qcurve" smooth="yes"/>
      <point x="513" y="145"/>
      <point x="464" y="78"/>
      <point x="425" y="53" type="qcurve" smooth="yes"/>
      <point x="388" y="29"/>
      <point x="274" y="1"/>
      <point x="160" y="-1"/>
      <point x="64" y="25"/>
      <point x="45" y="55" type="qcurve" smooth="yes"/>
      <point x="29" y="83"/>
      <point x="30" y="151"/>
      <point x="50" y="186" type="qcurve" smooth="yes"/>
      <point x="82" y="243"/>
      <point x="160" y="293" type="qcurve" smooth="yes"/>
      <point x="186" y="310"/>
      <point x="239" y="337"/>
      <point x="268" y="350" type="qcurve"/>
      <point x="251" y="363"/>
      <point x="221" y="389"/>
      <point x="209" y="405" type="qcurve" smooth="yes"/>
      <point x="168" y="458"/>
      <point x="182" y="517" type="qcurve" smooth="yes"/>
      <point x="190" y="552"/>
      <point x="240" y="618"/>
      <point x="278" y="643" type="qcurve" smooth="yes"/>
      <point x="314" y="668"/>
      <point x="400" y="696"/>
      <point x="441" y="696" type="qcurve" smooth="yes"/>
      <point x="465" y="696"/>
      <point x="488" y="690" type="qcurve"/>
      <point x="489" y="690" type="line"/>
      <point x="541" y="678"/>
      <point x="567" y="641" type="qcurve" smooth="yes"/>
      <point x="585" y="615"/>
      <point x="583" y="546"/>
      <point x="563" y="511" type="qcurve" smooth="yes"/>
      <point x="547" y="483"/>
      <point x="491" y="428"/>
      <point x="451" y="403" type="qcurve" smooth="yes"/>
      <point x="439" y="395"/>
      <point x="413" y="381"/>
      <point x="399" y="373" type="qcurve"/>
      <point x="403" y="371"/>
      <point x="408" y="367"/>
      <point x="411" y="365" type="qcurve" smooth="yes"/>
      <point x="434" y="348"/>
      <point x="477" y="313"/>
    </contour>
    <contour>
      <point x="535" y="535" type="qcurve" smooth="yes"/>
      <point x="543" y="554"/>
      <point x="544" y="593"/>
      <point x="528" y="626"/>
      <point x="495" y="647"/>
      <point x="468" y="647" type="qcurve" smooth="yes"/>
      <point x="446" y="647"/>
      <point x="396" y="626"/>
      <point x="351" y="590"/>
      <point x="317" y="543"/>
      <point x="312" y="517" type="qcurve" smooth="yes"/>
      <point x="307" y="491"/>
      <point x="323" y="447"/>
      <point x="334" y="433" type="qcurve" smooth="yes"/>
      <point x="341" y="424"/>
      <point x="359" y="406"/>
      <point x="368" y="398" type="qcurve"/>
      <point x="403" y="415"/>
      <point x="436" y="435" type="qcurve" smooth="yes"/>
      <point x="469" y="457"/>
      <point x="524" y="512"/>
    </contour>
    <contour>
      <point x="82" y="82" type="qcurve" smooth="yes"/>
      <point x="95" y="62"/>
      <point x="147" y="41"/>
      <point x="180" y="41" type="qcurve" smooth="yes"/>
      <point x="214" y="41"/>
      <point x="287" y="64"/>
      <point x="317" y="84" type="qcurve" smooth="yes"/>
      <point x="346" y="104"/>
      <point x="386" y="154"/>
      <point x="391" y="179" type="qcurve" smooth="yes"/>
      <point x="397" y="205"/>
      <point x="380" y="249"/>
      <point x="369" y="263" type="qcurve" smooth="yes"/>
      <point x="355" y="280"/>
      <point x="319" y="311"/>
      <point x="300" y="325" type="qcurve"/>
      <point x="268" y="311"/>
      <point x="206" y="279"/>
      <point x="177" y="261" type="qcurve" smooth="yes"/>
      <point x="144" y="240"/>
      <point x="98" y="195"/>
      <point x="84" y="172" type="qcurve" smooth="yes"/>
      <point x="70" y="148"/>
      <point x="68" y="101"/>
    </contour>
  </outline>
</glyph>
<glyph name="nine" format="1">
  <advance width="608"/>
  <unicode hex="0039"/>
  <outline>
    <contour>
      <point x="561" y="564" type="qcurve" smooth="yes"/>
      <point x="577" y="509"/>
      <point x="555" y="376"/>
      <point x="525" y="310" type="qcurve" smooth="yes"/>
      <point x="494" y="242"/>
      <point x="395" y="119"/>
      <point x="267" y="32"/>
      <point x="113" y="-5"/>
      <point x="27" y="14" type="qcurve" smooth="yes"/>
      <point x="19" y="16"/>
      <point x="11" y="29"/>
      <point x="14" y="37" type="qcurve" smooth="yes"/>
      <point x="16" y="45"/>
      <point x="31" y="54"/>
      <point x="39" y="53" type="qcurve" smooth="yes"/>
      <point x="89" y="47"/>
      <point x="184" y="76"/>
      <point x="268" y="132"/>
      <point x="342" y="210"/>
      <point x="398" y="298"/>
      <point x="437" y="389"/>
      <point x="445" y="429" type="qcurve"/>
      <point x="411" y="394"/>
      <point x="311" y="354"/>
      <point x="260" y="356" type="qcurve" smooth="yes"/>
      <point x="226" y="357"/>
      <point x="171" y="381"/>
      <point x="133" y="420"/>
      <point x="115" y="472"/>
      <point x="119" y="502" type="qcurve" smooth="yes"/>
      <point x="124" y="539"/>
      <point x="166" y="609"/>
      <point x="229" y="664"/>
      <point x="307" y="701"/>
      <point x="347" y="706" type="qcurve" smooth="yes"/>
      <point x="382" y="710"/>
      <point x="450" y="695"/>
      <point x="507" y="659"/>
      <point x="550" y="602"/>
    </contour>
    <contour>
      <point x="464" y="553" type="qcurve"/>
      <point x="463" y="600"/>
      <point x="424" y="653"/>
      <point x="364" y="670"/>
      <point x="292" y="655"/>
      <point x="226" y="616"/>
      <point x="173" y="555"/>
      <point x="162" y="518" type="qcurve" smooth="yes"/>
      <point x="157" y="501"/>
      <point x="160" y="463"/>
      <point x="180" y="428"/>
      <point x="221" y="402"/>
      <point x="256" y="398" type="qcurve" smooth="yes"/>
      <point x="286" y="395"/>
      <point x="355" y="420"/>
      <point x="417" y="465"/>
      <point x="460" y="524"/>
    </contour>
  </outline>
</glyph>
<glyph name="colon" format="1">
  <advance width="255"/>
  <unicode hex="003A"/>
  <outline>
    <contour>
      <point x="23" y="41" type="qcurve" smooth="yes"/>
      <point x="23" y="58"/>
      <point x="49" y="82"/>
      <point x="68" y="82" type="qcurve" smooth="yes"/>
      <point x="87" y="82"/>
      <point x="113" y="58"/>
      <point x="113" y="41" type="qcurve" smooth="yes"/>
      <point x="113" y="24"/>
      <point x="87" y="0"/>
      <point x="68" y="0" type="qcurve" smooth="yes"/>
      <point x="49" y="0"/>
      <point x="23" y="24"/>
    </contour>
    <contour>
      <point x="117" y="381" type="qcurve" smooth="yes"/>
      <point x="117" y="398"/>
      <point x="143" y="422"/>
      <point x="162" y="422" type="qcurve" smooth="yes"/>
      <point x="181" y="422"/>
      <point x="207" y="398"/>
      <point x="207" y="381" type="qcurve" smooth="yes"/>
      <point x="207" y="364"/>
      <point x="181" y="340"/>
      <point x="162" y="340" type="qcurve" smooth="yes"/>
      <point x="143" y="340"/>
      <point x="117" y="364"/>
    </contour>
  </outline>
</glyph>
<glyph name="semicolon" format="1">
  <advance width="255"/>
  <unicode hex="003B"/>
  <outline>
    <contour>
      <point x="117" y="381" type="qcurve" smooth="yes"/>
      <point x="117" y="398"/>
      <point x="143" y="422"/>
      <point x="162" y="422" type="qcurve" smooth="yes"/>
      <point x="181" y="422"/>
      <point x="207" y="398"/>
      <point x="207" y="381" type="qcurve" smooth="yes"/>
      <point x="207" y="364"/>
      <point x="181" y="340"/>
      <point x="162" y="340" type="qcurve" smooth="yes"/>
      <point x="143" y="340"/>
      <point x="117" y="364"/>
    </contour>
    <contour>
      <point x="34" y="114" type="qcurve" smooth="yes"/>
      <point x="31" y="120"/>
      <point x="56" y="129"/>
      <point x="90" y="128"/>
      <point x="120" y="114"/>
      <point x="123" y="97" type="qcurve" smooth="yes"/>
      <point x="129" y="59"/>
      <point x="106" y="-12"/>
      <point x="67" y="-64"/>
      <point x="20" y="-88"/>
      <point x="0" y="-78" type="qcurve" smooth="yes"/>
      <point x="-10" y="-73"/>
      <point x="13" y="-40"/>
      <point x="40" y="11"/>
      <point x="53" y="76"/>
    </contour>
  </outline>
</glyph>
<glyph name="less" format="1">
  <advance width="293"/>
  <unicode hex="003C"/>
  <outline>
    <contour>
      <point x="194" y="144" type="qcurve" smooth="yes"/>
      <point x="191" y="151"/>
      <point x="160" y="178"/>
      <point x="119" y="212"/>
      <point x="72" y="250"/>
      <point x="34" y="284"/>
      <point x="9" y="313"/>
      <point x="10" y="320" type="qcurve" smooth="yes"/>
      <point x="9" y="328"/>
      <point x="34" y="356"/>
      <point x="72" y="390"/>
      <point x="119" y="428"/>
      <point x="160" y="462"/>
      <point x="191" y="490"/>
      <point x="194" y="497" type="qcurve" smooth="yes"/>
      <point x="197" y="503"/>
      <point x="220" y="489"/>
      <point x="241" y="461"/>
      <point x="251" y="426"/>
      <point x="241" y="412" type="qcurve" smooth="yes"/>
      <point x="232" y="399"/>
      <point x="202" y="373"/>
      <point x="164" y="349"/>
      <point x="121" y="327"/>
      <point x="101" y="320" type="qcurve"/>
      <point x="121" y="312"/>
      <point x="164" y="292"/>
      <point x="202" y="268"/>
      <point x="232" y="242"/>
      <point x="241" y="229" type="qcurve" smooth="yes"/>
      <point x="251" y="215"/>
      <point x="241" y="180"/>
      <point x="220" y="152"/>
      <point x="197" y="138"/>
    </contour>
  </outline>
</glyph>
<glyph name="equal" format="1">
  <advance width="541"/>
  <unicode hex="003D"/>
  <outline>
    <contour>
      <point x="459" y="527" type="qcurve" smooth="yes"/>
      <point x="464" y="532"/>
      <point x="477" y="500"/>
      <point x="484" y="453"/>
      <point x="478" y="407"/>
      <point x="464" y="398" type="qcurve" smooth="yes"/>
      <point x="448" y="388"/>
      <point x="368" y="381"/>
      <point x="267" y="385"/>
      <point x="158" y="397"/>
      <point x="67" y="415"/>
      <point x="9" y="437"/>
      <point x="9" y="448" type="qcurve" smooth="yes"/>
      <point x="9" y="455"/>
      <point x="72" y="470"/>
      <point x="169" y="484"/>
      <point x="282" y="497"/>
      <point x="382" y="510"/>
      <point x="453" y="521"/>
    </contour>
    <contour>
      <point x="459" y="317" type="qcurve" smooth="yes"/>
      <point x="464" y="322"/>
      <point x="477" y="290"/>
      <point x="484" y="243"/>
      <point x="478" y="197"/>
      <point x="464" y="188" type="qcurve" smooth="yes"/>
      <point x="448" y="178"/>
      <point x="368" y="171"/>
      <point x="267" y="175"/>
      <point x="158" y="187"/>
      <point x="67" y="205"/>
      <point x="9" y="227"/>
      <point x="9" y="238" type="qcurve" smooth="yes"/>
      <point x="9" y="245"/>
      <point x="72" y="260"/>
      <point x="169" y="274"/>
      <point x="282" y="287"/>
      <point x="382" y="300"/>
      <point x="453" y="311"/>
    </contour>
  </outline>
</glyph>
<glyph name="greater" format="1">
  <advance width="293"/>
  <unicode hex="003E"/>
  <outline>
    <contour>
      <point x="99" y="144" type="qcurve" smooth="yes"/>
      <point x="96" y="138"/>
      <point x="73" y="152"/>
      <point x="52" y="180"/>
      <point x="42" y="215"/>
      <point x="52" y="229" type="qcurve" smooth="yes"/>
      <point x="61" y="242"/>
      <point x="91" y="268"/>
      <point x="129" y="292"/>
      <point x="172" y="312"/>
      <point x="192" y="320" type="qcurve"/>
      <point x="172" y="327"/>
      <point x="129" y="349"/>
      <point x="91" y="373"/>
      <point x="61" y="399"/>
      <point x="52" y="412" type="qcurve" smooth="yes"/>
      <point x="42" y="426"/>
      <point x="52" y="461"/>
      <point x="73" y="489"/>
      <point x="96" y="503"/>
      <point x="99" y="497" type="qcurve" smooth="yes"/>
      <point x="102" y="490"/>
      <point x="133" y="462"/>
      <point x="174" y="428"/>
      <point x="221" y="390"/>
      <point x="259" y="356"/>
      <point x="284" y="328"/>
      <point x="283" y="320" type="qcurve" smooth="yes"/>
      <point x="284" y="312"/>
      <point x="259" y="284"/>
      <point x="221" y="250"/>
      <point x="174" y="212"/>
      <point x="133" y="178"/>
      <point x="102" y="151"/>
    </contour>
  </outline>
</glyph>
<glyph name="question" format="1">
  <advance width="457"/>
  <unicode hex="003F"/>
  <outline>
    <contour>
      <point x="109" y="10" type="qcurve" smooth="yes"/>
      <point x="109" y="3"/>
      <point x="82" y="3"/>
      <point x="50" y="16"/>
      <point x="23" y="44"/>
      <point x="23" y="66" type="qcurve" smooth="yes"/>
      <point x="23" y="72"/>
      <point x="33" y="92"/>
      <point x="46" y="114"/>
      <point x="56" y="133"/>
      <point x="56" y="138" type="qcurve" smooth="yes"/>
      <point x="56" y="144"/>
      <point x="82" y="144"/>
      <point x="113" y="130"/>
      <point x="139" y="102"/>
      <point x="139" y="81" type="qcurve" smooth="yes"/>
      <point x="139" y="76"/>
      <point x="130" y="57"/>
      <point x="118" y="36"/>
      <point x="109" y="16"/>
    </contour>
    <contour>
      <point x="81" y="278" type="qcurve" smooth="yes"/>
      <point x="75" y="306"/>
      <point x="110" y="383"/>
      <point x="165" y="468"/>
      <point x="229" y="555"/>
      <point x="278" y="632"/>
      <point x="297" y="692"/>
      <point x="280" y="708" type="qcurve" smooth="yes"/>
      <point x="266" y="721"/>
      <point x="213" y="710"/>
      <point x="150" y="674"/>
      <point x="86" y="621"/>
      <point x="62" y="593" type="qcurve" smooth="yes"/>
      <point x="56" y="586"/>
      <point x="39" y="588"/>
      <point x="33" y="594" type="qcurve" smooth="yes"/>
      <point x="28" y="600"/>
      <point x="29" y="616"/>
      <point x="34" y="622" type="qcurve" smooth="yes"/>
      <point x="50" y="642"/>
      <point x="98" y="693"/>
      <point x="153" y="744"/>
      <point x="212" y="789"/>
      <point x="270" y="815"/>
      <point x="321" y="818"/>
      <point x="341" y="802" type="qcurve" smooth="yes"/>
      <point x="370" y="778"/>
      <point x="365" y="689"/>
      <point x="324" y="580"/>
      <point x="262" y="461"/>
      <point x="206" y="355"/>
      <point x="170" y="272"/>
      <point x="175" y="253" type="qcurve" smooth="yes"/>
      <point x="178" y="244"/>
      <point x="153" y="230"/>
      <point x="119" y="231"/>
      <point x="86" y="252"/>
    </contour>
  </outline>
</glyph>
<glyph name="at" format="1">
  <advance width="611"/>
  <unicode hex="0040"/>
  <outline>
    <contour>
      <point x="447" y="688" type="qcurve" smooth="yes"/>
      <point x="492" y="670"/>
      <point x="547" y="611"/>
      <point x="574" y="539"/>
      <point x="575" y="459"/>
      <point x="566" y="420" type="qcurve" smooth="yes"/>
      <point x="557" y="380"/>
      <point x="527" y="308"/>
      <point x="487" y="253"/>
      <point x="436" y="221"/>
      <point x="407" y="221" type="qcurve" smooth="yes"/>
      <point x="373" y="221"/>
      <point x="345" y="260" type="qcurve"/>
      <point x="328" y="234"/>
      <point x="286" y="190"/>
      <point x="261" y="182" type="qcurve" smooth="yes"/>
      <point x="247" y="177"/>
      <point x="222" y="181"/>
      <point x="209" y="187" type="qcurve" smooth="yes"/>
      <point x="180" y="201"/>
      <point x="157" y="269"/>
      <point x="164" y="352"/>
      <point x="196" y="439"/>
      <point x="249" y="508"/>
      <point x="320" y="547"/>
      <point x="362" y="540" type="qcurve" smooth="yes"/>
      <point x="380" y="537"/>
      <point x="399" y="504"/>
      <point x="404" y="482" type="qcurve" smooth="yes"/>
      <point x="408" y="462"/>
      <point x="404" y="412"/>
      <point x="395" y="385" type="qcurve" smooth="yes"/>
      <point x="393" y="377"/>
      <point x="378" y="368"/>
      <point x="370" y="370" type="qcurve" smooth="yes"/>
      <point x="362" y="372"/>
      <point x="355" y="386"/>
      <point x="357" y="394" type="qcurve" smooth="yes"/>
      <point x="371" y="439"/>
      <point x="362" y="499"/>
      <point x="347" y="502" type="qcurve" smooth="yes"/>
      <point x="336" y="504"/>
      <point x="304" y="468"/>
      <point x="272" y="410"/>
      <point x="244" y="339"/>
      <point x="227" y="275"/>
      <point x="227" y="228"/>
      <point x="240" y="222" type="qcurve" smooth="yes"/>
      <point x="249" y="217"/>
      <point x="272" y="229"/>
      <point x="297" y="256"/>
      <point x="322" y="295"/>
      <point x="334" y="317" type="qcurve" smooth="yes"/>
      <point x="335" y="321"/>
      <point x="338" y="324" type="qcurve" smooth="yes"/>
      <point x="344" y="334"/>
      <point x="364" y="339"/>
      <point x="384" y="334"/>
      <point x="397" y="321"/>
      <point x="396" y="314" type="qcurve" smooth="yes"/>
      <point x="392" y="294"/>
      <point x="406" y="260"/>
      <point x="423" y="262" type="qcurve" smooth="yes"/>
      <point x="438" y="263"/>
      <point x="470" y="289"/>
      <point x="499" y="334"/>
      <point x="522" y="394"/>
      <point x="528" y="429" type="qcurve" smooth="yes"/>
      <point x="534" y="465"/>
      <point x="531" y="536"/>
      <point x="509" y="597"/>
      <point x="467" y="641"/>
      <point x="433" y="649" type="qcurve" smooth="yes"/>
      <point x="389" y="660"/>
      <point x="302" y="627"/>
      <point x="225" y="556"/>
      <point x="161" y="456"/>
      <point x="118" y="345"/>
      <point x="100" y="232"/>
      <point x="113" y="136"/>
      <point x="163" y="64"/>
      <point x="209" y="49" type="qcurve" smooth="yes"/>
      <point x="230" y="43"/>
      <point x="284" y="40"/>
      <point x="346" y="58"/>
      <point x="412" y="103"/>
      <point x="444" y="144" type="qcurve" smooth="yes"/>
      <point x="449" y="151"/>
      <point x="465" y="154"/>
      <point x="471" y="149" type="qcurve" smooth="yes"/>
      <point x="478" y="144"/>
      <point x="480" y="128"/>
      <point x="474" y="121" type="qcurve" smooth="yes"/>
      <point x="440" y="77"/>
      <point x="355" y="21"/>
      <point x="307" y="10" type="qcurve" smooth="yes"/>
      <point x="293" y="6"/>
      <point x="265" y="3"/>
      <point x="251" y="3" type="qcurve" smooth="yes"/>
      <point x="220" y="3"/>
      <point x="164" y="20"/>
      <point x="138" y="33" type="qcurve" smooth="yes"/>
      <point x="73" y="66"/>
      <point x="2" y="170"/>
      <point x="-21" y="291"/>
      <point x="1" y="421"/>
      <point x="58" y="541"/>
      <point x="145" y="641"/>
      <point x="254" y="702"/>
      <point x="380" y="715"/>
    </contour>
  </outline>
</glyph>
<glyph name="A" format="1">
  <advance width="927"/>
  <unicode hex="0041"/>
  <outline>
    <contour>
      <point x="956" y="320" type="qcurve" smooth="yes"/>
      <point x="975" y="315"/>
      <point x="970" y="296" type="qcurve" smooth="yes"/>
      <point x="964" y="277"/>
      <point x="946" y="268" type="qcurve" smooth="yes"/>
      <point x="926" y="256"/>
      <point x="848" y="258"/>
      <point x="784" y="272" type="qcurve"/>
      <point x="783" y="272" type="line"/>
      <point x="749" y="187"/>
      <point x="689" y="20"/>
      <point x="669" y="-58" type="qcurve" smooth="yes"/>
      <point x="663" y="-82"/>
      <point x="654" y="-152"/>
      <point x="655" y="-228"/>
      <point x="667" y="-301"/>
      <point x="697" y="-357"/>
      <point x="746" y="-387"/>
      <point x="783" y="-381" type="qcurve" smooth="yes"/>
      <point x="793" y="-380"/>
      <point x="805" y="-387"/>
      <point x="808" y="-398"/>
      <point x="801" y="-410"/>
      <point x="792" y="-413" type="qcurve" smooth="yes"/>
      <point x="739" y="-430"/>
      <point x="635" y="-412"/>
      <point x="554" y="-352"/>
      <point x="505" y="-256"/>
      <point x="507" y="-195" type="qcurve" smooth="yes"/>
      <point x="507" y="-129"/>
      <point x="531" y="-34" type="qcurve" smooth="yes"/>
      <point x="553" y="47"/>
      <point x="616" y="219"/>
      <point x="651" y="306" type="qcurve"/>
      <point x="610" y="317"/>
      <point x="528" y="342"/>
      <point x="488" y="354" type="qcurve"/>
      <point x="456" y="298"/>
      <point x="387" y="194"/>
      <point x="349" y="149" type="qcurve" smooth="yes"/>
      <point x="236" y="19"/>
      <point x="110" y="18" type="qcurve" smooth="yes"/>
      <point x="108" y="18" type="line" smooth="yes"/>
      <point x="7" y="18"/>
      <point x="-48" y="91" type="qcurve" smooth="yes"/>
      <point x="-72" y="123"/>
      <point x="-93" y="206"/>
      <point x="-89" y="254" type="qcurve" smooth="yes"/>
      <point x="-85" y="306"/>
      <point x="-44" y="405"/>
      <point x="-10" y="444" type="qcurve" smooth="yes"/>
      <point x="26" y="486"/>
      <point x="76" y="510" type="qcurve" smooth="yes"/>
      <point x="126" y="536"/>
      <point x="190" y="538" type="qcurve" smooth="yes"/>
      <point x="259" y="541"/>
      <point x="299" y="510" type="qcurve" smooth="yes"/>
      <point x="334" y="482"/>
      <point x="339" y="437" type="qcurve"/>
      <point x="339" y="434" type="line"/>
      <point x="372" y="426"/>
      <point x="434" y="412"/>
      <point x="470" y="401" type="qcurve"/>
      <point x="512" y="473"/>
      <point x="597" y="619"/>
      <point x="643" y="673" type="qcurve" smooth="yes"/>
      <point x="666" y="700"/>
      <point x="709" y="740"/>
      <point x="732" y="754" type="qcurve" smooth="yes"/>
      <point x="784" y="786"/>
      <point x="838" y="786" type="qcurve" smooth="yes"/>
      <point x="881" y="786"/>
      <point x="901" y="756" type="qcurve" smooth="yes"/>
      <point x="917" y="731"/>
      <point x="914" y="646"/>
      <point x="894" y="577" type="qcurve" smooth="yes"/>
      <point x="877" y="519"/>
      <point x="826" y="384"/>
      <point x="797" y="310" type="qcurve"/>
      <point x="824" y="305"/>
      <point x="866" y="298"/>
      <point x="883" y="297" type="qcurve" smooth="yes"/>
      <point x="906" y="295"/>
      <point x="925" y="300"/>
      <point x="929" y="302" type="qcurve" smooth="yes"/>
      <point x="930" y="302"/>
      <point x="931" y="303" type="qcurve" smooth="yes"/>
      <point x="931" y="304" type="line" smooth="yes"/>
      <point x="934" y="312"/>
      <point x="948" y="322"/>
    </contour>
    <contour>
      <point x="147" y="64" type="qcurve" smooth="yes"/>
      <point x="187" y="64"/>
      <point x="268" y="118"/>
      <point x="346" y="205"/>
      <point x="418" y="311"/>
      <point x="449" y="364" type="qcurve"/>
      <point x="418" y="373"/>
      <point x="362" y="387"/>
      <point x="333" y="394" type="qcurve"/>
      <point x="328" y="379"/>
      <point x="321" y="368" type="qcurve" smooth="yes"/>
      <point x="297" y="333"/>
      <point x="260" y="322" type="qcurve" smooth="yes"/>
      <point x="225" y="311"/>
      <point x="188" y="323"/>
      <point x="181" y="330" type="qcurve" smooth="yes"/>
      <point x="163" y="347"/>
      <point x="172" y="377" type="qcurve" smooth="yes"/>
      <point x="178" y="397"/>
      <point x="217" y="430"/>
      <point x="244" y="438" type="qcurve" smooth="yes"/>
      <point x="263" y="444"/>
      <point x="297" y="440" type="qcurve"/>
      <point x="293" y="457"/>
      <point x="264" y="492"/>
      <point x="238" y="493" type="qcurve" smooth="yes"/>
      <point x="194" y="494"/>
      <point x="127" y="450"/>
      <point x="81" y="381"/>
      <point x="55" y="300"/>
      <point x="51" y="264" type="qcurve" smooth="yes"/>
      <point x="48" y="235"/>
      <point x="49" y="165"/>
      <point x="67" y="105"/>
      <point x="109" y="64"/>
    </contour>
    <contour>
      <point x="508" y="390" type="qcurve"/>
      <point x="548" y="379"/>
      <point x="627" y="355"/>
      <point x="667" y="344" type="qcurve"/>
      <point x="695" y="416"/>
      <point x="744" y="546"/>
      <point x="759" y="600" type="qcurve" smooth="yes"/>
      <point x="766" y="624"/>
      <point x="778" y="668"/>
      <point x="784" y="701"/>
      <point x="781" y="723"/>
      <point x="772" y="725" type="qcurve" smooth="yes"/>
      <point x="758" y="729"/>
      <point x="719" y="700"/>
      <point x="673" y="648"/>
      <point x="622" y="577"/>
      <point x="572" y="500"/>
      <point x="526" y="423"/>
    </contour>
  </outline>
</glyph>
<glyph name="B" format="1">
  <advance width="931"/>
  <unicode hex="0042"/>
  <outline>
    <contour>
      <point x="954" y="153" type="qcurve" smooth="yes"/>
      <point x="956" y="145"/>
      <point x="946" y="131"/>
      <point x="938" y="129" type="qcurve" smooth="yes"/>
      <point x="883" y="116"/>
      <point x="770" y="81"/>
      <point x="713" y="61" type="qcurve"/>
      <point x="714" y="60"/>
      <point x="714" y="59" type="qcurve" smooth="yes"/>
      <point x="740" y="6"/>
      <point x="746" y="-55" type="qcurve" smooth="yes"/>
      <point x="755" y="-144"/>
      <point x="662" y="-300"/>
      <point x="564" y="-360" type="qcurve" smooth="yes"/>
      <point x="511" y="-392"/>
      <point x="386" y="-438"/>
      <point x="324" y="-447" type="qcurve" smooth="yes"/>
      <point x="286" y="-453"/>
      <point x="253" y="-453" type="qcurve" smooth="yes"/>
      <point x="243" y="-453"/>
      <point x="225" y="-452"/>
      <point x="217" y="-451" type="qcurve" smooth="yes"/>
      <point x="166" y="-445"/>
      <point x="137" y="-424" type="qcurve" smooth="yes"/>
      <point x="101" y="-396"/>
      <point x="91" y="-334"/>
      <point x="98" y="-311" type="qcurve" smooth="yes"/>
      <point x="109" y="-271"/>
      <point x="177" y="-192"/>
      <point x="265" y="-121"/>
      <point x="359" y="-62"/>
      <point x="396" y="-41" type="qcurve" smooth="yes"/>
      <point x="468" y="0"/>
      <point x="550" y="36" type="qcurve"/>
      <point x="544" y="49"/>
      <point x="532" y="73"/>
      <point x="524" y="84" type="qcurve"/>
      <point x="501" y="80"/>
      <point x="458" y="80"/>
      <point x="436" y="82" type="qcurve" smooth="yes"/>
      <point x="402" y="86"/>
      <point x="381" y="109" type="qcurve" smooth="yes"/>
      <point x="363" y="131"/>
      <point x="368" y="161" type="qcurve" smooth="yes"/>
      <point x="371" y="178"/>
      <point x="393" y="212"/>
      <point x="413" y="224" type="qcurve"/>
      <point x="413" y="224"/>
      <point x="415" y="226" type="qcurve" smooth="yes"/>
      <point x="445" y="245"/>
      <point x="490" y="245" type="qcurve" smooth="yes"/>
      <point x="537" y="245"/>
      <point x="584" y="215" type="qcurve"/>
      <point x="633" y="256"/>
      <point x="667" y="311" type="qcurve" smooth="yes"/>
      <point x="678" y="329"/>
      <point x="698" y="374"/>
      <point x="711" y="427"/>
      <point x="712" y="485"/>
      <point x="703" y="517" type="qcurve" smooth="yes"/>
      <point x="686" y="580"/>
      <point x="612" y="662"/>
      <point x="515" y="703"/>
      <point x="403" y="701"/>
      <point x="348" y="679" type="qcurve" smooth="yes"/>
      <point x="294" y="657"/>
      <point x="212" y="581"/>
      <point x="156" y="490"/>
      <point x="124" y="391"/>
      <point x="117" y="302"/>
      <point x="134" y="230"/>
      <point x="154" y="212" type="qcurve" smooth="yes"/>
      <point x="161" y="205"/>
      <point x="156" y="189"/>
      <point x="138" y="174"/>
      <point x="111" y="164"/>
      <point x="81" y="163"/>
      <point x="51" y="174"/>
      <point x="40" y="189" type="qcurve" smooth="yes"/>
      <point x="5" y="232"/>
      <point x="-5" y="341"/>
      <point x="30" y="454"/>
      <point x="101" y="562"/>
      <point x="147" y="604" type="qcurve" smooth="yes"/>
      <point x="188" y="642"/>
      <point x="290" y="700"/>
      <point x="337" y="717" type="qcurve" smooth="yes"/>
      <point x="384" y="734"/>
      <point x="485" y="749"/>
      <point x="586" y="746"/>
      <point x="681" y="724"/>
      <point x="722" y="704" type="qcurve" smooth="yes"/>
      <point x="781" y="675"/>
      <point x="857" y="587"/>
      <point x="872" y="530" type="qcurve" smooth="yes"/>
      <point x="893" y="454"/>
      <point x="867" y="371" type="qcurve" smooth="yes"/>
      <point x="842" y="295"/>
      <point x="783" y="230" type="qcurve" smooth="yes"/>
      <point x="759" y="201"/>
      <point x="701" y="155"/>
      <point x="669" y="136" type="qcurve"/>
      <point x="676" y="126"/>
      <point x="690" y="107"/>
      <point x="695" y="96" type="qcurve"/>
      <point x="815" y="139"/>
      <point x="932" y="168" type="qcurve" smooth="yes"/>
      <point x="940" y="170"/>
      <point x="953" y="161"/>
    </contour>
    <contour>
      <point x="137" y="-318" type="qcurve" smooth="yes"/>
      <point x="131" y="-347"/>
      <point x="147" y="-382"/>
      <point x="181" y="-399"/>
      <point x="229" y="-401"/>
      <point x="280" y="-392"/>
      <point x="329" y="-376"/>
      <point x="349" y="-367" type="qcurve" smooth="yes"/>
      <point x="420" y="-335"/>
      <point x="470" y="-292" type="qcurve" smooth="yes"/>
      <point x="491" y="-274"/>
      <point x="532" y="-228"/>
      <point x="564" y="-171"/>
      <point x="580" y="-102"/>
      <point x="576" y="-63" type="qcurve" smooth="yes"/>
      <point x="573" y="-30"/>
      <point x="564" y="0" type="qcurve"/>
      <point x="523" y="-18"/>
      <point x="448" y="-56"/>
      <point x="413" y="-76" type="qcurve" smooth="yes"/>
      <point x="356" y="-108"/>
      <point x="259" y="-173"/>
      <point x="224" y="-204" type="qcurve" smooth="yes"/>
      <point x="151" y="-268"/>
    </contour>
    <contour>
      <point x="180" y="54" type="qcurve" smooth="yes"/>
      <point x="172" y="78"/>
      <point x="197" y="168"/>
      <point x="242" y="276"/>
      <point x="297" y="390"/>
      <point x="342" y="487"/>
      <point x="365" y="555"/>
      <point x="357" y="563" type="qcurve" smooth="yes"/>
      <point x="352" y="567"/>
      <point x="366" y="578"/>
      <point x="392" y="585"/>
      <point x="425" y="587"/>
      <point x="455" y="579"/>
      <point x="477" y="557"/>
      <point x="479" y="537" type="qcurve" smooth="yes"/>
      <point x="483" y="499"/>
      <point x="456" y="411"/>
      <point x="411" y="318"/>
      <point x="358" y="224"/>
      <point x="312" y="136"/>
      <point x="282" y="58"/>
      <point x="284" y="28" type="qcurve" smooth="yes"/>
      <point x="284" y="19"/>
      <point x="259" y="2"/>
      <point x="224" y="2"/>
      <point x="189" y="24"/>
    </contour>
  </outline>
</glyph>
<glyph name="E" format="1">
  <advance width="820"/>
  <unicode hex="0045"/>
  <outline>
    <contour>
      <point x="635" y="738" type="qcurve" smooth="yes"/>
      <point x="680" y="722"/>
      <point x="754" y="658"/>
      <point x="799" y="579"/>
      <point x="810" y="494"/>
      <point x="793" y="457" type="qcurve" smooth="yes"/>
      <point x="788" y="446"/>
      <point x="761" y="436"/>
      <point x="729" y="434"/>
      <point x="696" y="440"/>
      <point x="672" y="452"/>
      <point x="664" y="469"/>
      <point x="673" y="479" type="qcurve" smooth="yes"/>
      <point x="695" y="504"/>
      <point x="711" y="564"/>
      <point x="707" y="622"/>
      <point x="681" y="671"/>
      <point x="641" y="698"/>
      <point x="585" y="698"/>
      <point x="553" y="677" type="qcurve" smooth="yes"/>
      <point x="519" y="656"/>
      <point x="470" y="592"/>
      <point x="442" y="516"/>
      <point x="437" y="434"/>
      <point x="449" y="395" type="qcurve" smooth="yes"/>
      <point x="449" y="394"/>
      <point x="450" y="394"/>
      <point x="450" y="393" type="qcurve"/>
      <point x="490" y="398"/>
      <point x="521" y="395" type="qcurve" smooth="yes"/>
      <point x="539" y="394"/>
      <point x="574" y="384"/>
      <point x="603" y="368"/>
      <point x="623" y="346"/>
      <point x="625" y="333" type="qcurve" smooth="yes"/>
      <point x="626" y="325"/>
      <point x="622" y="305"/>
      <point x="612" y="294" type="qcurve" smooth="yes"/>
      <point x="604" y="287"/>
      <point x="584" y="274"/>
      <point x="570" y="269" type="qcurve" smooth="yes"/>
      <point x="552" y="262" type="line" smooth="yes"/>
      <point x="509" y="249"/>
      <point x="417" y="256"/>
      <point x="377" y="275" type="qcurve" smooth="yes"/>
      <point x="376" y="275"/>
      <point x="375" y="276"/>
      <point x="374" y="276" type="qcurve" smooth="yes"/>
      <point x="329" y="247"/>
      <point x="300" y="213" type="qcurve" smooth="yes"/>
      <point x="271" y="177"/>
      <point x="230" y="97"/>
      <point x="221" y="56" type="qcurve" smooth="yes"/>
      <point x="216" y="35"/>
      <point x="214" y="-7"/>
      <point x="217" y="-27" type="qcurve" smooth="yes"/>
      <point x="222" y="-71"/>
      <point x="244" y="-107" type="qcurve" smooth="yes"/>
      <point x="276" y="-161"/>
      <point x="360" y="-212"/>
      <point x="452" y="-214"/>
      <point x="543" y="-170"/>
      <point x="582" y="-127" type="qcurve" smooth="yes"/>
      <point x="604" y="-103"/>
      <point x="633" y="-43"/>
      <point x="639" y="16"/>
      <point x="621" y="70"/>
      <point x="597" y="89" type="qcurve" smooth="yes"/>
      <point x="576" y="105"/>
      <point x="521" y="114"/>
      <point x="469" y="98"/>
      <point x="429" y="57"/>
      <point x="423" y="24" type="qcurve" smooth="yes"/>
      <point x="421" y="10"/>
      <point x="384" y="-1"/>
      <point x="343" y="1"/>
      <point x="309" y="16"/>
      <point x="310" y="30" type="qcurve" smooth="yes"/>
      <point x="311" y="58"/>
      <point x="349" y="106"/>
      <point x="407" y="140"/>
      <point x="479" y="159"/>
      <point x="549" y="159"/>
      <point x="612" y="138"/>
      <point x="632" y="115" type="qcurve" smooth="yes"/>
      <point x="656" y="88"/>
      <point x="677" y="21"/>
      <point x="671" y="-50"/>
      <point x="640" y="-121"/>
      <point x="612" y="-153" type="qcurve" smooth="yes"/>
      <point x="579" y="-191"/>
      <point x="490" y="-245"/>
      <point x="443" y="-257" type="qcurve" smooth="yes"/>
      <point x="419" y="-262"/>
      <point x="371" y="-269"/>
      <point x="346" y="-269" type="qcurve" smooth="yes"/>
      <point x="321" y="-269"/>
      <point x="272" y="-262"/>
      <point x="249" y="-256" type="qcurve" smooth="yes"/>
      <point x="137" y="-224"/>
      <point x="79" y="-128" type="qcurve" smooth="yes"/>
      <point x="29" y="-42"/>
      <point x="52" y="65" type="qcurve" smooth="yes"/>
      <point x="62" y="110"/>
      <point x="107" y="199"/>
      <point x="140" y="238" type="qcurve" smooth="yes"/>
      <point x="167" y="270"/>
      <point x="247" y="327"/>
      <point x="296" y="349" type="qcurve"/>
      <point x="291" y="357"/>
      <point x="284" y="374"/>
      <point x="281" y="384" type="qcurve" smooth="yes"/>
      <point x="267" y="429"/>
      <point x="272" y="524"/>
      <point x="289" y="570" type="qcurve" smooth="yes"/>
      <point x="306" y="615"/>
      <point x="364" y="688"/>
      <point x="402" y="711" type="qcurve" smooth="yes"/>
      <point x="420" y="722"/>
      <point x="471" y="743"/>
      <point x="531" y="753"/>
      <point x="599" y="750"/>
    </contour>
  </outline>
</glyph>
<glyph name="F" format="1">
  <advance width="887"/>
  <unicode hex="0046"/>
  <outline>
    <contour>
      <point x="126" y="113" type="qcurve" smooth="yes"/>
      <point x="125" y="99"/>
      <point x="111" y="90"/>
      <point x="94" y="101"/>
      <point x="83" y="132"/>
      <point x="85" y="158" type="qcurve" smooth="yes"/>
      <point x="88" y="195"/>
      <point x="134" y="237"/>
      <point x="207" y="257"/>
      <point x="302" y="258"/>
      <point x="355" y="254" type="qcurve"/>
      <point x="376" y="312"/>
      <point x="414" y="419"/>
      <point x="440" y="503"/>
      <point x="452" y="557"/>
      <point x="446" y="563" type="qcurve" smooth="yes"/>
      <point x="441" y="567"/>
      <point x="456" y="578"/>
      <point x="484" y="585"/>
      <point x="520" y="587"/>
      <point x="552" y="579"/>
      <point x="576" y="557"/>
      <point x="578" y="537" type="qcurve" smooth="yes"/>
      <point x="580" y="514"/>
      <point x="569" y="451"/>
      <point x="548" y="374"/>
      <point x="517" y="286"/>
      <point x="500" y="240" type="qcurve"/>
      <point x="548" y="237"/>
      <point x="648" y="238"/>
      <point x="731" y="248"/>
      <point x="785" y="267"/>
      <point x="788" y="283" type="qcurve" smooth="yes"/>
      <point x="790" y="298"/>
      <point x="809" y="299"/>
      <point x="826" y="283"/>
      <point x="831" y="257"/>
      <point x="819" y="246" type="qcurve" smooth="yes"/>
      <point x="807" y="235"/>
      <point x="756" y="212"/>
      <point x="673" y="192"/>
      <point x="555" y="180"/>
      <point x="476" y="179" type="qcurve"/>
      <point x="451" y="116"/>
      <point x="402" y="-7"/>
      <point x="363" y="-115"/>
      <point x="339" y="-200"/>
      <point x="341" y="-224" type="qcurve" smooth="yes"/>
      <point x="341" y="-233"/>
      <point x="313" y="-250"/>
      <point x="275" y="-250"/>
      <point x="236" y="-228"/>
      <point x="227" y="-198" type="qcurve" smooth="yes"/>
      <point x="221" y="-181"/>
      <point x="235" y="-105"/>
      <point x="264" y="-3"/>
      <point x="305" y="118"/>
      <point x="328" y="180" type="qcurve"/>
      <point x="286" y="179"/>
      <point x="213" y="173"/>
      <point x="159" y="158"/>
      <point x="127" y="133"/>
    </contour>
    <contour>
      <point x="1229" y="676" type="qcurve" smooth="yes"/>
      <point x="1230" y="658"/>
      <point x="1222" y="619"/>
      <point x="1196" y="585"/>
      <point x="1146" y="561"/>
      <point x="1106" y="560" type="qcurve" smooth="yes"/>
      <point x="1064" y="558"/>
      <point x="929" y="582"/>
      <point x="767" y="617"/>
      <point x="595" y="657"/>
      <point x="437" y="689"/>
      <point x="309" y="705"/>
      <point x="274" y="699" type="qcurve" smooth="yes"/>
      <point x="247" y="694"/>
      <point x="199" y="670"/>
      <point x="163" y="636"/>
      <point x="141" y="595"/>
      <point x="140" y="573" type="qcurve" smooth="yes"/>
      <point x="138" y="547"/>
      <point x="156" y="504"/>
      <point x="190" y="476"/>
      <point x="238" y="464"/>
      <point x="266" y="469" type="qcurve" smooth="yes"/>
      <point x="276" y="471"/>
      <point x="261" y="439"/>
      <point x="222" y="397"/>
      <point x="163" y="360"/>
      <point x="130" y="357" type="qcurve" smooth="yes"/>
      <point x="100" y="355"/>
      <point x="49" y="371"/>
      <point x="11" y="403"/>
      <point x="-8" y="449"/>
      <point x="-6" y="477" type="qcurve" smooth="yes"/>
      <point x="-3" y="528"/>
      <point x="36" y="615"/>
      <point x="99" y="684"/>
      <point x="180" y="733"/>
      <point x="227" y="746" type="qcurve" smooth="yes"/>
      <point x="265" y="756"/>
      <point x="375" y="753"/>
      <point x="502" y="736"/>
      <point x="636" y="710"/>
      <point x="760" y="685"/>
      <point x="866" y="666"/>
      <point x="900" y="665" type="qcurve" smooth="yes"/>
      <point x="945" y="663"/>
      <point x="1025" y="673"/>
      <point x="1084" y="695"/>
      <point x="1115" y="730"/>
      <point x="1111" y="754" type="qcurve" smooth="yes"/>
      <point x="1109" y="764"/>
      <point x="1144" y="764"/>
      <point x="1189" y="744"/>
      <point x="1227" y="705"/>
    </contour>
  </outline>
</glyph>
<glyph name="G" format="1">
  <advance width="941"/>
  <unicode hex="0047"/>
  <outline>
    <contour>
      <point x="957" y="114" type="qcurve" smooth="yes"/>
      <point x="956" y="106"/>
      <point x="945" y="93"/>
      <point x="936" y="91" type="qcurve" smooth="yes"/>
      <point x="935" y="91"/>
      <point x="903" y="86"/>
      <point x="846" y="77"/>
      <point x="769" y="63"/>
      <point x="724" y="53" type="qcurve"/>
      <point x="710" y="7"/>
      <point x="674" y="-83"/>
      <point x="652" y="-126" type="qcurve" smooth="yes"/>
      <point x="582" y="-263"/>
      <point x="486" y="-347" type="qcurve" smooth="yes"/>
      <point x="377" y="-444"/>
      <point x="237" y="-475" type="qcurve" smooth="yes"/>
      <point x="211" y="-481"/>
      <point x="186" y="-481" type="qcurve" smooth="yes"/>
      <point x="155" y="-481"/>
      <point x="133" y="-474" type="qcurve" smooth="yes"/>
      <point x="86" y="-461"/>
      <point x="57" y="-424" type="qcurve" smooth="yes"/>
      <point x="32" y="-391"/>
      <point x="30" y="-345" type="qcurve" smooth="yes"/>
      <point x="27" y="-297"/>
      <point x="53" y="-244" type="qcurve" smooth="yes"/>
      <point x="100" y="-145"/>
      <point x="252" y="-65" type="qcurve" smooth="yes"/>
      <point x="309" y="-35"/>
      <point x="453" y="21"/>
      <point x="540" y="46" type="qcurve"/>
      <point x="564" y="118"/>
      <point x="595" y="255"/>
      <point x="605" y="312" type="qcurve"/>
      <point x="584" y="280"/>
      <point x="540" y="221"/>
      <point x="518" y="195" type="qcurve" smooth="yes"/>
      <point x="453" y="116"/>
      <point x="386" y="63" type="qcurve" smooth="yes"/>
      <point x="329" y="18"/>
      <point x="223" y="-29"/>
      <point x="175" y="-29" type="qcurve" smooth="yes"/>
      <point x="170" y="-29"/>
      <point x="161" y="-28"/>
      <point x="156" y="-28" type="qcurve" smooth="yes"/>
      <point x="76" y="-19"/>
      <point x="34" y="49" type="qcurve" smooth="yes"/>
      <point x="22" y="72"/>
      <point x="8" y="124"/>
      <point x="7" y="154" type="qcurve" smooth="yes"/>
      <point x="6" y="217"/>
      <point x="30" y="287" type="qcurve" smooth="yes"/>
      <point x="49" y="341"/>
      <point x="96" y="439"/>
      <point x="125" y="485" type="qcurve" smooth="yes"/>
      <point x="177" y="567"/>
      <point x="242" y="632" type="qcurve" smooth="yes"/>
      <point x="271" y="661"/>
      <point x="342" y="712"/>
      <point x="418" y="745"/>
      <point x="496" y="755"/>
      <point x="533" y="743" type="qcurve" smooth="yes"/>
      <point x="579" y="728"/>
      <point x="645" y="671"/>
      <point x="679" y="602"/>
      <point x="678" y="528"/>
      <point x="657" y="495" type="qcurve" smooth="yes"/>
      <point x="651" y="486"/>
      <point x="625" y="482"/>
      <point x="594" y="485"/>
      <point x="561" y="495"/>
      <point x="536" y="507"/>
      <point x="524" y="520"/>
      <point x="529" y="525" type="qcurve" smooth="yes"/>
      <point x="554" y="550"/>
      <point x="573" y="606"/>
      <point x="568" y="654"/>
      <point x="544" y="690"/>
      <point x="527" y="697" type="qcurve" smooth="yes"/>
      <point x="502" y="707"/>
      <point x="445" y="683"/>
      <point x="384" y="626"/>
      <point x="323" y="542"/>
      <point x="267" y="443"/>
      <point x="217" y="333"/>
      <point x="198" y="279" type="qcurve" smooth="yes"/>
      <point x="171" y="200"/>
      <point x="175" y="89"/>
      <point x="223" y="37"/>
      <point x="309" y="49"/>
      <point x="364" y="93" type="qcurve" smooth="yes"/>
      <point x="429" y="144"/>
      <point x="559" y="304"/>
      <point x="621" y="405" type="qcurve" smooth="yes"/>
      <point x="625" y="412"/>
      <point x="654" y="423"/>
      <point x="693" y="431"/>
      <point x="737" y="435"/>
      <point x="772" y="431"/>
      <point x="795" y="420"/>
      <point x="794" y="409" type="qcurve" smooth="yes"/>
      <point x="788" y="343"/>
      <point x="762" y="182"/>
      <point x="737" y="95" type="qcurve"/>
      <point x="780" y="104"/>
      <point x="852" y="117"/>
      <point x="905" y="126"/>
      <point x="936" y="131"/>
      <point x="936" y="131" type="qcurve" smooth="yes"/>
      <point x="955" y="133"/>
    </contour>
    <contour>
      <point x="91" y="-397" type="qcurve" smooth="yes"/>
      <point x="102" y="-411"/>
      <point x="151" y="-413"/>
      <point x="216" y="-393"/>
      <point x="290" y="-351"/>
      <point x="326" y="-321" type="qcurve" smooth="yes"/>
      <point x="364" y="-289"/>
      <point x="429" y="-203"/>
      <point x="480" y="-113"/>
      <point x="515" y="-29"/>
      <point x="523" y="1" type="qcurve"/>
      <point x="343" y="-53"/>
      <point x="124" y="-183"/>
      <point x="89" y="-257" type="qcurve" smooth="yes"/>
      <point x="69" y="-299"/>
      <point x="70" y="-371"/>
    </contour>
  </outline>
</glyph>
<glyph name="H" format="1">
  <advance width="1190"/>
  <unicode hex="0048"/>
  <outline>
    <contour>
      <point x="1914" y="760" type="qcurve" smooth="yes"/>
      <point x="1907" y="734"/>
      <point x="1861" y="700"/>
      <point x="1815" y="685"/>
      <point x="1786" y="690"/>
      <point x="1796" y="703" type="qcurve" smooth="yes"/>
      <point x="1821" y="737"/>
      <point x="1802" y="782"/>
      <point x="1739" y="804"/>
      <point x="1643" y="801"/>
      <point x="1591" y="786" type="qcurve" smooth="yes"/>
      <point x="1480" y="754"/>
      <point x="1286" y="631"/>
      <point x="1129" y="460"/>
      <point x="1013" y="247"/>
      <point x="980" y="125" type="qcurve"/>
      <point x="1102" y="153"/>
      <point x="1176" y="210" type="qcurve" smooth="yes"/>
      <point x="1192" y="221"/>
      <point x="1204" y="208" type="qcurve" smooth="yes"/>
      <point x="1209" y="201"/>
      <point x="1205" y="185"/>
      <point x="1198" y="180" type="qcurve" smooth="yes"/>
      <point x="1111" y="111"/>
      <point x="971" y="84" type="qcurve"/>
      <point x="959" y="13"/>
      <point x="972" y="-117"/>
      <point x="993" y="-174" type="qcurve" smooth="yes"/>
      <point x="998" y="-188"/>
      <point x="980" y="-207"/>
      <point x="946" y="-219"/>
      <point x="902" y="-222"/>
      <point x="862" y="-218"/>
      <point x="830" y="-204"/>
      <point x="826" y="-193" type="qcurve" smooth="yes"/>
      <point x="808" y="-149"/>
      <point x="795" y="-71"/>
      <point x="794" y="-7"/>
      <point x="798" y="45"/>
      <point x="798" y="64" type="qcurve"/>
      <point x="748" y="62"/>
      <point x="644" y="67"/>
      <point x="587" y="72" type="qcurve"/>
      <point x="575" y="49"/>
      <point x="550" y="8"/>
      <point x="536" y="-12" type="qcurve" smooth="yes"/>
      <point x="501" y="-60"/>
      <point x="416" y="-136"/>
      <point x="369" y="-162" type="qcurve" smooth="yes"/>
      <point x="304" y="-197"/>
      <point x="242" y="-202" type="qcurve" smooth="yes"/>
      <point x="238" y="-203"/>
      <point x="230" y="-203"/>
      <point x="225" y="-203" type="qcurve" smooth="yes"/>
      <point x="189" y="-203"/>
      <point x="159" y="-191" type="qcurve" smooth="yes"/>
      <point x="158" y="-190"/>
      <point x="157" y="-190" type="qcurve" smooth="yes"/>
      <point x="141" y="-183"/>
      <point x="132" y="-175" type="qcurve" smooth="yes"/>
      <point x="109" y="-158"/>
      <point x="85" y="-108"/>
      <point x="86" y="-78" type="qcurve" smooth="yes"/>
      <point x="87" y="-47"/>
      <point x="114" y="17"/>
      <point x="139" y="45" type="qcurve" smooth="yes"/>
      <point x="159" y="69"/>
      <point x="216" y="107"/>
      <point x="248" y="120" type="qcurve" smooth="yes"/>
      <point x="275" y="131"/>
      <point x="333" y="142"/>
      <point x="364" y="143" type="qcurve" smooth="yes"/>
      <point x="385" y="143"/>
      <point x="423" y="139"/>
      <point x="443" y="136" type="qcurve"/>
      <point x="458" y="172"/>
      <point x="477" y="243"/>
      <point x="491" y="315"/>
      <point x="503" y="386"/>
      <point x="511" y="422" type="qcurve"/>
      <point x="495" y="433"/>
      <point x="469" y="458"/>
      <point x="455" y="471" type="qcurve" smooth="yes"/>
      <point x="453" y="474"/>
      <point x="448" y="479"/>
      <point x="446" y="481" type="qcurve" smooth="yes"/>
      <point x="420" y="507"/>
      <point x="366" y="554"/>
      <point x="332" y="568" type="qcurve" smooth="yes"/>
      <point x="293" y="584"/>
      <point x="215" y="581"/>
      <point x="153" y="547"/>
      <point x="114" y="483"/>
      <point x="113" y="439" type="qcurve" smooth="yes"/>
      <point x="113" y="426"/>
      <point x="79" y="413"/>
      <point x="38" y="413"/>
      <point x="5" y="428"/>
      <point x="6" y="443" type="qcurve" smooth="yes"/>
      <point x="8" y="478"/>
      <point x="42" y="537"/>
      <point x="97" y="582"/>
      <point x="168" y="612"/>
      <point x="244" y="625"/>
      <point x="319" y="618"/>
      <point x="351" y="605" type="qcurve" smooth="yes"/>
      <point x="390" y="589"/>
      <point x="449" y="538"/>
      <point x="476" y="511" type="qcurve" smooth="yes"/>
      <point x="486" y="502" type="line" smooth="yes"/>
      <point x="494" y="493"/>
      <point x="512" y="476"/>
      <point x="522" y="468" type="qcurve"/>
      <point x="527" y="485"/>
      <point x="539" y="521"/>
      <point x="547" y="538" type="qcurve" smooth="yes"/>
      <point x="571" y="595"/>
      <point x="653" y="679"/>
      <point x="706" y="699" type="qcurve" smooth="yes"/>
      <point x="750" y="716"/>
      <point x="835" y="710"/>
      <point x="869" y="689" type="qcurve" smooth="yes"/>
      <point x="883" y="683"/>
      <point x="904" y="661"/>
      <point x="909" y="646" type="qcurve" smooth="yes"/>
      <point x="920" y="618"/>
      <point x="912" y="583" type="qcurve" smooth="yes"/>
      <point x="906" y="554"/>
      <point x="888" y="519" type="qcurve" smooth="yes"/>
      <point x="874" y="493"/>
      <point x="838" y="448"/>
      <point x="816" y="431" type="qcurve" smooth="yes"/>
      <point x="768" y="391"/>
      <point x="706" y="377" type="qcurve" smooth="yes"/>
      <point x="698" y="375"/>
      <point x="684" y="373"/>
      <point x="676" y="372" type="qcurve"/>
      <point x="663" y="308"/>
      <point x="633" y="175"/>
      <point x="604" y="111" type="qcurve"/>
      <point x="658" y="106"/>
      <point x="758" y="102"/>
      <point x="805" y="104" type="qcurve"/>
      <point x="817" y="195"/>
      <point x="893" y="368"/>
      <point x="1011" y="522"/>
      <point x="1164" y="655"/>
      <point x="1343" y="758"/>
      <point x="1542" y="825"/>
      <point x="1647" y="838" type="qcurve" smooth="yes"/>
      <point x="1705" y="845"/>
      <point x="1808" y="843"/>
      <point x="1882" y="824"/>
      <point x="1921" y="787"/>
    </contour>
    <contour>
      <point x="127" y="-73" type="qcurve" smooth="yes"/>
      <point x="126" y="-94"/>
      <point x="142" y="-133"/>
      <point x="159" y="-142" type="qcurve" smooth="yes"/>
      <point x="185" y="-156"/>
      <point x="243" y="-141"/>
      <point x="300" y="-100"/>
      <point x="353" y="-41"/>
      <point x="394" y="21"/>
      <point x="422" y="78"/>
      <point x="426" y="97" type="qcurve"/>
      <point x="396" y="103"/>
      <point x="362" y="103" type="qcurve" smooth="yes"/>
      <point x="359" y="103" type="line" smooth="yes"/>
      <point x="303" y="101"/>
      <point x="258" y="84" type="qcurve" smooth="yes"/>
      <point x="202" y="61"/>
      <point x="167" y="21" type="qcurve" smooth="yes"/>
      <point x="148" y="0"/>
      <point x="127" y="-50"/>
    </contour>
    <contour>
      <point x="873" y="585" type="qcurve" smooth="yes"/>
      <point x="878" y="609"/>
      <point x="871" y="627" type="qcurve" smooth="yes"/>
      <point x="863" y="647"/>
      <point x="848" y="652" type="qcurve" smooth="yes"/>
      <point x="839" y="655"/>
      <point x="830" y="655" type="qcurve" smooth="yes"/>
      <point x="818" y="655"/>
      <point x="805" y="650" type="qcurve" smooth="yes"/>
      <point x="790" y="644"/>
      <point x="773" y="631" type="qcurve" smooth="yes"/>
      <point x="766" y="624"/>
      <point x="752" y="609"/>
      <point x="747" y="601" type="qcurve" smooth="yes"/>
      <point x="735" y="584"/>
      <point x="720" y="547"/>
      <point x="713" y="529" type="qcurve" smooth="yes"/>
      <point x="704" y="500"/>
      <point x="690" y="442"/>
      <point x="684" y="413" type="qcurve"/>
      <point x="692" y="413"/>
      <point x="703" y="416" type="qcurve" smooth="yes"/>
      <point x="753" y="427"/>
      <point x="794" y="460" type="qcurve" smooth="yes"/>
      <point x="829" y="490"/>
      <point x="853" y="534" type="qcurve" smooth="yes"/>
      <point x="861" y="548"/>
      <point x="870" y="574"/>
    </contour>
  </outline>
</glyph>
<glyph name="I" format="1">
  <advance width="715"/>
  <unicode hex="0049"/>
  <outline>
    <contour>
      <point x="660" y="489" type="qcurve" smooth="yes"/>
      <point x="651" y="408"/>
      <point x="620" y="252"/>
      <point x="597" y="183" type="qcurve" smooth="yes"/>
      <point x="543" y="11"/>
      <point x="454" y="-97" type="qcurve" smooth="yes"/>
      <point x="349" y="-226"/>
      <point x="206" y="-258" type="qcurve" smooth="yes"/>
      <point x="180" y="-264"/>
      <point x="128" y="-264"/>
      <point x="79" y="-253"/>
      <point x="38" y="-230"/>
      <point x="25" y="-213" type="qcurve" smooth="yes"/>
      <point x="4" y="-189"/>
      <point x="1" y="-155" type="qcurve" smooth="yes"/>
      <point x="-2" y="-138"/>
      <point x="5" y="-100"/>
      <point x="13" y="-80" type="qcurve" smooth="yes"/>
      <point x="21" y="-59"/>
      <point x="50" y="-17"/>
      <point x="68" y="2" type="qcurve" smooth="yes"/>
      <point x="92" y="24"/>
      <point x="170" y="60"/>
      <point x="247" y="70"/>
      <point x="306" y="45"/>
      <point x="309" y="8" type="qcurve" smooth="yes"/>
      <point x="310" y="-9"/>
      <point x="282" y="-33"/>
      <point x="247" y="-42"/>
      <point x="216" y="-34"/>
      <point x="215" y="-17" type="qcurve" smooth="yes"/>
      <point x="213" y="14"/>
      <point x="187" y="31"/>
      <point x="151" y="20"/>
      <point x="111" y="-10"/>
      <point x="94" y="-26" type="qcurve" smooth="yes"/>
      <point x="78" y="-40"/>
      <point x="56" y="-73"/>
      <point x="50" y="-90" type="qcurve" smooth="yes"/>
      <point x="43" y="-107"/>
      <point x="42" y="-149"/>
      <point x="55" y="-185"/>
      <point x="83" y="-210"/>
      <point x="107" y="-210" type="qcurve" smooth="yes"/>
      <point x="162" y="-211"/>
      <point x="255" y="-156"/>
      <point x="333" y="-59"/>
      <point x="398" y="75"/>
      <point x="424" y="153" type="qcurve" smooth="yes"/>
      <point x="445" y="215"/>
      <point x="476" y="354"/>
      <point x="485" y="431" type="qcurve" smooth="yes"/>
      <point x="494" y="497"/>
      <point x="499" y="608"/>
      <point x="499" y="650" type="qcurve"/>
      <point x="421" y="615"/>
      <point x="280" y="527"/>
      <point x="232" y="467" type="qcurve" smooth="yes"/>
      <point x="215" y="445"/>
      <point x="188" y="384"/>
      <point x="190" y="357" type="qcurve" smooth="yes"/>
      <point x="193" y="329"/>
      <point x="214" y="315" type="qcurve" smooth="yes"/>
      <point x="230" y="303"/>
      <point x="267" y="304"/>
      <point x="300" y="322"/>
      <point x="323" y="354"/>
      <point x="326" y="374" type="qcurve" smooth="yes"/>
      <point x="328" y="386"/>
      <point x="355" y="391"/>
      <point x="384" y="380"/>
      <point x="407" y="356"/>
      <point x="404" y="341" type="qcurve" smooth="yes"/>
      <point x="400" y="318"/>
      <point x="348" y="281"/>
      <point x="281" y="262"/>
      <point x="211" y="265"/>
      <point x="188" y="281" type="qcurve" smooth="yes"/>
      <point x="155" y="305"/>
      <point x="150" y="349" type="qcurve" smooth="yes"/>
      <point x="148" y="368"/>
      <point x="157" y="407"/>
      <point x="172" y="444"/>
      <point x="192" y="477"/>
      <point x="202" y="489" type="qcurve" smooth="yes"/>
      <point x="262" y="567"/>
      <point x="380" y="632" type="qcurve" smooth="yes"/>
      <point x="392" y="639"/>
      <point x="444" y="669"/>
      <point x="508" y="704"/>
      <point x="575" y="737"/>
      <point x="631" y="756"/>
      <point x="666" y="754"/>
      <point x="667" y="738" type="qcurve" smooth="yes"/>
      <point x="669" y="684"/>
      <point x="667" y="557"/>
    </contour>
  </outline>
</glyph>
<glyph name="J" format="1">
  <advance width="873"/>
  <unicode hex="004A"/>
  <outline>
    <contour>
      <point x="901" y="151" type="qcurve" smooth="yes"/>
      <point x="901" y="143"/>
      <point x="889" y="130"/>
      <point x="881" y="129" type="qcurve" smooth="yes"/>
      <point x="881" y="129"/>
      <point x="848" y="124"/>
      <point x="792" y="115"/>
      <point x="714" y="100"/>
      <point x="669" y="90" type="qcurve"/>
      <point x="669" y="90"/>
      <point x="667" y="86" type="qcurve" smooth="yes"/>
      <point x="635" y="-14"/>
      <point x="548" y="-179"/>
      <point x="494" y="-244" type="qcurve" smooth="yes"/>
      <point x="364" y="-396"/>
      <point x="180" y="-437" type="qcurve" smooth="yes"/>
      <point x="154" y="-443"/>
      <point x="101" y="-444"/>
      <point x="75" y="-436" type="qcurve" smooth="yes"/>
      <point x="52" y="-429"/>
      <point x="14" y="-404"/>
      <point x="1" y="-386" type="qcurve" smooth="yes"/>
      <point x="-24" y="-353"/>
      <point x="-26" y="-307" type="qcurve" smooth="yes"/>
      <point x="-27" y="-261"/>
      <point x="-3" y="-207" type="qcurve" smooth="yes"/>
      <point x="44" y="-108"/>
      <point x="195" y="-28" type="qcurve" smooth="yes"/>
      <point x="253" y="3"/>
      <point x="397" y="59"/>
      <point x="484" y="84" type="qcurve"/>
      <point x="495" y="116"/>
      <point x="512" y="176"/>
      <point x="520" y="204" type="qcurve" smooth="yes"/>
      <point x="552" y="331"/>
      <point x="567" y="462" type="qcurve" smooth="yes"/>
      <point x="573" y="513"/>
      <point x="580" y="608"/>
      <point x="580" y="652" type="qcurve"/>
      <point x="530" y="630"/>
      <point x="431" y="581"/>
      <point x="339" y="525"/>
      <point x="258" y="459"/>
      <point x="227" y="420" type="qcurve" smooth="yes"/>
      <point x="216" y="407"/>
      <point x="196" y="374"/>
      <point x="181" y="339"/>
      <point x="173" y="303"/>
      <point x="174" y="287" type="qcurve" smooth="yes"/>
      <point x="177" y="253"/>
      <point x="202" y="235" type="qcurve" smooth="yes"/>
      <point x="223" y="219"/>
      <point x="266" y="227"/>
      <point x="300" y="257"/>
      <point x="322" y="299"/>
      <point x="322" y="317" type="qcurve" smooth="yes"/>
      <point x="322" y="332"/>
      <point x="350" y="336"/>
      <point x="382" y="324"/>
      <point x="404" y="299"/>
      <point x="400" y="285" type="qcurve" smooth="yes"/>
      <point x="391" y="256"/>
      <point x="339" y="207"/>
      <point x="273" y="180"/>
      <point x="203" y="180"/>
      <point x="175" y="201" type="qcurve" smooth="yes"/>
      <point x="137" y="230"/>
      <point x="134" y="279" type="qcurve" smooth="yes"/>
      <point x="132" y="301"/>
      <point x="143" y="346"/>
      <point x="162" y="389"/>
      <point x="185" y="427"/>
      <point x="197" y="442" type="qcurve" smooth="yes"/>
      <point x="235" y="489"/>
      <point x="340" y="572"/>
      <point x="410" y="611" type="qcurve" smooth="yes"/>
      <point x="419" y="616"/>
      <point x="476" y="651"/>
      <point x="550" y="693"/>
      <point x="633" y="735"/>
      <point x="702" y="761"/>
      <point x="748" y="760"/>
      <point x="749" y="739" type="qcurve" smooth="yes"/>
      <point x="750" y="723"/>
      <point x="751" y="666"/>
      <point x="750" y="589"/>
      <point x="745" y="498"/>
      <point x="740" y="447" type="qcurve" smooth="yes"/>
      <point x="724" y="279"/>
      <point x="681" y="133" type="qcurve"/>
      <point x="724" y="142"/>
      <point x="798" y="155"/>
      <point x="851" y="164"/>
      <point x="881" y="168"/>
      <point x="881" y="168" type="qcurve" smooth="yes"/>
      <point x="890" y="170"/>
      <point x="901" y="159"/>
    </contour>
    <contour>
      <point x="34" y="-360" type="qcurve" smooth="yes"/>
      <point x="51" y="-378"/>
      <point x="120" y="-369"/>
      <point x="199" y="-333"/>
      <point x="275" y="-279"/>
      <point x="298" y="-253" type="qcurve" smooth="yes"/>
      <point x="358" y="-187"/>
      <point x="439" y="-39"/>
      <point x="468" y="39" type="qcurve"/>
      <point x="288" y="-15"/>
      <point x="68" y="-146"/>
      <point x="32" y="-219" type="qcurve" smooth="yes"/>
      <point x="-8" y="-304"/>
    </contour>
  </outline>
</glyph>
<glyph name="K" format="1">
  <advance width="1228"/>
  <unicode hex="004B"/>
  <outline>
    <contour>
      <point x="915" y="666" type="qcurve" smooth="yes"/>
      <point x="924" y="640"/>
      <point x="916" y="602" type="qcurve" smooth="yes"/>
      <point x="912" y="587"/>
      <point x="900" y="554"/>
      <point x="890" y="537" type="qcurve" smooth="yes"/>
      <point x="874" y="510"/>
      <point x="836" y="463"/>
      <point x="813" y="445" type="qcurve" smooth="yes"/>
      <point x="787" y="425"/>
      <point x="729" y="397"/>
      <point x="698" y="390" type="qcurve" smooth="yes"/>
      <point x="690" y="388"/>
      <point x="676" y="386"/>
      <point x="668" y="385" type="qcurve"/>
      <point x="661" y="340"/>
      <point x="640" y="252"/>
      <point x="625" y="207" type="qcurve"/>
      <point x="697" y="209"/>
      <point x="834" y="265"/>
      <point x="955" y="354"/>
      <point x="1056" y="466"/>
      <point x="1127" y="583"/>
      <point x="1165" y="694"/>
      <point x="1163" y="737" type="qcurve" smooth="yes"/>
      <point x="1163" y="743"/>
      <point x="1192" y="749"/>
      <point x="1233" y="746"/>
      <point x="1278" y="732"/>
      <point x="1308" y="703"/>
      <point x="1316" y="658"/>
      <point x="1300" y="626" type="qcurve" smooth="yes"/>
      <point x="1261" y="549"/>
      <point x="1137" y="394"/>
      <point x="988" y="269"/>
      <point x="828" y="190"/>
      <point x="753" y="190" type="qcurve"/>
      <point x="819" y="185"/>
      <point x="914" y="139"/>
      <point x="984" y="72"/>
      <point x="1034" y="-10"/>
      <point x="1074" y="-94"/>
      <point x="1109" y="-174"/>
      <point x="1149" y="-236"/>
      <point x="1199" y="-274"/>
      <point x="1234" y="-275" type="qcurve" smooth="yes"/>
      <point x="1240" y="-275"/>
      <point x="1241" y="-300"/>
      <point x="1232" y="-337"/>
      <point x="1214" y="-380"/>
      <point x="1187" y="-417"/>
      <point x="1152" y="-441"/>
      <point x="1131" y="-440" type="qcurve" smooth="yes"/>
      <point x="1096" y="-439"/>
      <point x="1044" y="-387"/>
      <point x="1003" y="-303"/>
      <point x="967" y="-196"/>
      <point x="927" y="-84"/>
      <point x="879" y="22"/>
      <point x="814" y="105"/>
      <point x="726" y="156"/>
      <point x="667" y="156" type="qcurve" smooth="yes"/>
      <point x="656" y="156"/>
      <point x="618" y="151"/>
      <point x="603" y="148" type="qcurve"/>
      <point x="561" y="49"/>
      <point x="430" y="-115"/>
      <point x="336" y="-163" type="qcurve" smooth="yes"/>
      <point x="273" y="-195"/>
      <point x="208" y="-200" type="qcurve" smooth="yes"/>
      <point x="176" y="-200"/>
      <point x="123" y="-188"/>
      <point x="101" y="-171" type="qcurve" smooth="yes"/>
      <point x="81" y="-154"/>
      <point x="60" y="-105"/>
      <point x="61" y="-76" type="qcurve" smooth="yes"/>
      <point x="60" y="-46"/>
      <point x="86" y="17"/>
      <point x="107" y="46" type="qcurve" smooth="yes"/>
      <point x="119" y="62"/>
      <point x="163" y="103"/>
      <point x="220" y="133"/>
      <point x="289" y="143"/>
      <point x="327" y="130" type="qcurve" smooth="yes"/>
      <point x="337" y="126"/>
      <point x="333" y="96"/>
      <point x="315" y="68"/>
      <point x="290" y="52"/>
      <point x="280" y="63" type="qcurve" smooth="yes"/>
      <point x="266" y="78"/>
      <point x="226" y="80"/>
      <point x="185" y="65"/>
      <point x="148" y="39"/>
      <point x="137" y="26" type="qcurve" smooth="yes"/>
      <point x="100" y="-19"/>
      <point x="100" y="-68" type="qcurve" smooth="yes"/>
      <point x="99" y="-90"/>
      <point x="113" y="-130"/>
      <point x="131" y="-138" type="qcurve" smooth="yes"/>
      <point x="172" y="-156"/>
      <point x="259" y="-107"/>
      <point x="341" y="-7"/>
      <point x="414" y="128"/>
      <point x="443" y="198" type="qcurve" smooth="yes"/>
      <point x="456" y="231"/>
      <point x="479" y="297"/>
      <point x="496" y="358"/>
      <point x="508" y="409"/>
      <point x="510" y="427" type="qcurve"/>
      <point x="500" y="431"/>
      <point x="460" y="473"/>
      <point x="409" y="524"/>
      <point x="350" y="574"/>
      <point x="320" y="586" type="qcurve" smooth="yes"/>
      <point x="266" y="608"/>
      <point x="186" y="596"/>
      <point x="133" y="550"/>
      <point x="106" y="478"/>
      <point x="106" y="441" type="qcurve" smooth="yes"/>
      <point x="106" y="433"/>
      <point x="73" y="423"/>
      <point x="32" y="423"/>
      <point x="-1" y="435"/>
      <point x="-1" y="451" type="qcurve" smooth="yes"/>
      <point x="-1" y="484"/>
      <point x="30" y="544"/>
      <point x="82" y="594"/>
      <point x="151" y="629"/>
      <point x="227" y="645"/>
      <point x="306" y="639"/>
      <point x="343" y="623" type="qcurve" smooth="yes"/>
      <point x="367" y="613"/>
      <point x="417" y="575"/>
      <point x="465" y="531"/>
      <point x="507" y="488"/>
      <point x="523" y="474" type="qcurve"/>
      <point x="531" y="506"/>
      <point x="551" y="561"/>
      <point x="566" y="584" type="qcurve" smooth="yes"/>
      <point x="605" y="649"/>
      <point x="692" y="710"/>
      <point x="725" y="721" type="qcurve" smooth="yes"/>
      <point x="745" y="728"/>
      <point x="789" y="732"/>
      <point x="809" y="730" type="qcurve" smooth="yes"/>
      <point x="829" y="728"/>
      <point x="862" y="717"/>
      <point x="876" y="709" type="qcurve" smooth="yes"/>
      <point x="904" y="696"/>
    </contour>
    <contour>
      <point x="854" y="550" type="qcurve" smooth="yes"/>
      <point x="863" y="564"/>
      <point x="873" y="590"/>
      <point x="876" y="602" type="qcurve" smooth="yes"/>
      <point x="882" y="628"/>
      <point x="876" y="646" type="qcurve" smooth="yes"/>
      <point x="870" y="664"/>
      <point x="852" y="672" type="qcurve" smooth="yes"/>
      <point x="843" y="675"/>
      <point x="834" y="675" type="qcurve" smooth="yes"/>
      <point x="822" y="675"/>
      <point x="807" y="670" type="qcurve" smooth="yes"/>
      <point x="799" y="667"/>
      <point x="783" y="657"/>
      <point x="775" y="650" type="qcurve" smooth="yes"/>
      <point x="757" y="637"/>
      <point x="747" y="620" type="qcurve" smooth="yes"/>
      <point x="734" y="603"/>
      <point x="718" y="565"/>
      <point x="711" y="547" type="qcurve" smooth="yes"/>
      <point x="701" y="517"/>
      <point x="684" y="456"/>
      <point x="678" y="425" type="qcurve"/>
      <point x="682" y="426"/>
      <point x="692" y="427"/>
      <point x="697" y="429" type="qcurve" smooth="yes"/>
      <point x="750" y="440"/>
      <point x="792" y="474" type="qcurve" smooth="yes"/>
      <point x="809" y="489"/>
      <point x="842" y="527"/>
    </contour>
  </outline>
</glyph>
<glyph name="M" format="1">
  <advance width="1452"/>
  <unicode hex="004D"/>
  <outline>
    <contour>
      <point x="1419" y="743" type="qcurve" smooth="yes"/>
      <point x="1429" y="752"/>
      <point x="1468" y="761"/>
      <point x="1514" y="763"/>
      <point x="1558" y="758"/>
      <point x="1586" y="745"/>
      <point x="1591" y="725"/>
      <point x="1575" y="712" type="qcurve" smooth="yes"/>
      <point x="1519" y="665"/>
      <point x="1427" y="520"/>
      <point x="1356" y="348"/>
      <point x="1308" y="158"/>
      <point x="1284" y="-27"/>
      <point x="1286" y="-195"/>
      <point x="1316" y="-325"/>
      <point x="1376" y="-406"/>
      <point x="1421" y="-410" type="qcurve" smooth="yes"/>
      <point x="1431" y="-411"/>
      <point x="1438" y="-423"/>
      <point x="1435" y="-437"/>
      <point x="1424" y="-449"/>
      <point x="1415" y="-450" type="qcurve" smooth="yes"/>
      <point x="1333" y="-459"/>
      <point x="1223" y="-398"/>
      <point x="1157" y="-284"/>
      <point x="1131" y="-128"/>
      <point x="1133" y="46"/>
      <point x="1160" y="225"/>
      <point x="1200" y="385"/>
      <point x="1249" y="515"/>
      <point x="1273" y="553" type="qcurve"/>
      <point x="1225" y="505"/>
      <point x="1129" y="399"/>
      <point x="1082" y="344" type="qcurve" smooth="yes"/>
      <point x="988" y="232"/>
      <point x="920" y="135" type="qcurve"/>
      <point x="955" y="46"/>
      <point x="959" y="-20" type="qcurve" smooth="yes"/>
      <point x="964" y="-87"/>
      <point x="942" y="-146" type="qcurve" smooth="yes"/>
      <point x="921" y="-200"/>
      <point x="883" y="-232" type="qcurve" smooth="yes"/>
      <point x="849" y="-258"/>
      <point x="813" y="-258" type="qcurve" smooth="yes"/>
      <point x="798" y="-258"/>
      <point x="787" y="-254" type="qcurve" smooth="yes"/>
      <point x="785" y="-254"/>
      <point x="770" y="-247"/>
      <point x="755" y="-238"/>
      <point x="743" y="-227"/>
      <point x="743" y="-222" type="qcurve" smooth="yes"/>
      <point x="719" y="-169"/>
      <point x="770" y="-46" type="qcurve" smooth="yes"/>
      <point x="786" y="-6"/>
      <point x="815" y="44" type="qcurve"/>
      <point x="799" y="95"/>
      <point x="747" y="205"/>
      <point x="720" y="259" type="qcurve"/>
      <point x="710" y="239"/>
      <point x="690" y="200"/>
      <point x="679" y="180" type="qcurve" smooth="yes"/>
      <point x="612" y="56"/>
      <point x="534" y="-28" type="qcurve" smooth="yes"/>
      <point x="489" y="-76"/>
      <point x="395" y="-141"/>
      <point x="346" y="-157" type="qcurve" smooth="yes"/>
      <point x="301" y="-173"/>
      <point x="219" y="-182"/>
      <point x="175" y="-172" type="qcurve" smooth="yes"/>
      <point x="141" y="-164"/>
      <point x="83" y="-128"/>
      <point x="62" y="-102" type="qcurve" smooth="yes"/>
      <point x="39" y="-73"/>
      <point x="13" y="2"/>
      <point x="12" y="44" type="qcurve" smooth="yes"/>
      <point x="11" y="86"/>
      <point x="33" y="168"/>
      <point x="54" y="203" type="qcurve" smooth="yes"/>
      <point x="103" y="283"/>
      <point x="189" y="319" type="qcurve" smooth="yes"/>
      <point x="287" y="360"/>
      <point x="413" y="336" type="qcurve" smooth="yes"/>
      <point x="421" y="334"/>
      <point x="430" y="323"/>
      <point x="430" y="315" type="qcurve" smooth="yes"/>
      <point x="428" y="298"/>
      <point x="412" y="296" type="qcurve" smooth="yes"/>
      <point x="345" y="288"/>
      <point x="252" y="230"/>
      <point x="198" y="149"/>
      <point x="179" y="56"/>
      <point x="193" y="-28"/>
      <point x="238" y="-93"/>
      <point x="309" y="-117"/>
      <point x="404" y="-90"/>
      <point x="463" y="-41" type="qcurve" smooth="yes"/>
      <point x="511" y="-1"/>
      <point x="591" y="108"/>
      <point x="652" y="211"/>
      <point x="691" y="292"/>
      <point x="697" y="305" type="qcurve"/>
      <point x="661" y="374"/>
      <point x="608" y="494"/>
      <point x="602" y="545" type="qcurve" smooth="yes"/>
      <point x="596" y="606"/>
      <point x="611" y="660" type="qcurve" smooth="yes"/>
      <point x="626" y="711"/>
      <point x="659" y="747" type="qcurve" smooth="yes"/>
      <point x="680" y="770"/>
      <point x="732" y="793"/>
      <point x="758" y="792" type="qcurve" smooth="yes"/>
      <point x="763" y="792"/>
      <point x="769" y="790" type="qcurve" smooth="yes"/>
      <point x="770" y="790" type="line" smooth="yes"/>
      <point x="797" y="790"/>
      <point x="816" y="766" type="qcurve" smooth="yes"/>
      <point x="836" y="742"/>
      <point x="844" y="654"/>
      <point x="833" y="594" type="qcurve" smooth="yes"/>
      <point x="827" y="561"/>
      <point x="803" y="471"/>
      <point x="785" y="419" type="qcurve"/>
      <point x="823" y="343" type="line" smooth="yes"/>
      <point x="844" y="302"/>
      <point x="885" y="221"/>
      <point x="902" y="179" type="qcurve"/>
      <point x="934" y="224"/>
      <point x="1009" y="319"/>
      <point x="1052" y="370" type="qcurve" smooth="yes"/>
      <point x="1098" y="424"/>
      <point x="1195" y="529"/>
      <point x="1291" y="625"/>
      <point x="1380" y="709"/>
    </contour>
  </outline>
</glyph>
<glyph name="P" format="1">
  <advance width="951"/>
  <unicode hex="0050"/>
  <outline>
    <contour>
      <point x="860" y="506" type="qcurve" smooth="yes"/>
      <point x="878" y="455"/>
      <point x="877" y="403" type="qcurve" smooth="yes"/>
      <point x="876" y="355"/>
      <point x="843" y="257"/>
      <point x="812" y="212" type="qcurve" smooth="yes"/>
      <point x="777" y="160"/>
      <point x="681" y="77"/>
      <point x="624" y="51" type="qcurve" smooth="yes"/>
      <point x="567" y="24"/>
      <point x="509" y="18" type="qcurve" smooth="yes"/>
      <point x="501" y="17"/>
      <point x="484" y="16"/>
      <point x="476" y="16" type="qcurve" smooth="yes"/>
      <point x="431" y="16"/>
      <point x="393" y="29" type="qcurve" smooth="yes"/>
      <point x="386" y="31"/>
      <point x="378" y="42"/>
      <point x="379" y="50" type="qcurve" smooth="yes"/>
      <point x="381" y="66"/>
      <point x="397" y="68" type="qcurve" smooth="yes"/>
      <point x="443" y="71"/>
      <point x="531" y="107"/>
      <point x="609" y="164"/>
      <point x="670" y="240"/>
      <point x="689" y="285" type="qcurve" smooth="yes"/>
      <point x="719" y="355"/>
      <point x="718" y="500"/>
      <point x="659" y="619"/>
      <point x="544" y="698"/>
      <point x="459" y="703" type="qcurve"/>
      <point x="396" y="702"/>
      <point x="286" y="648"/>
      <point x="199" y="563"/>
      <point x="140" y="455"/>
      <point x="115" y="345"/>
      <point x="128" y="244"/>
      <point x="157" y="208" type="qcurve" smooth="yes"/>
      <point x="163" y="200"/>
      <point x="145" y="178"/>
      <point x="112" y="163"/>
      <point x="73" y="161"/>
      <point x="59" y="172" type="qcurve" smooth="yes"/>
      <point x="26" y="204"/>
      <point x="-3" y="281"/>
      <point x="-1" y="362"/>
      <point x="25" y="443"/>
      <point x="46" y="480" type="qcurve" smooth="yes"/>
      <point x="77" y="535"/>
      <point x="175" y="632"/>
      <point x="290" y="704"/>
      <point x="415" y="746"/>
      <point x="474" y="747" type="qcurve" smooth="yes"/>
      <point x="518" y="748"/>
      <point x="605" y="735"/>
      <point x="688" y="703"/>
      <point x="767" y="648"/>
      <point x="803" y="606" type="qcurve" smooth="yes"/>
      <point x="822" y="583"/>
      <point x="851" y="532"/>
    </contour>
    <contour>
      <point x="123" y="-198" type="qcurve" smooth="yes"/>
      <point x="117" y="-180"/>
      <point x="133" y="-98"/>
      <point x="165" y="12"/>
      <point x="210" y="142"/>
      <point x="257" y="272"/>
      <point x="302" y="395"/>
      <point x="334" y="493"/>
      <point x="348" y="557"/>
      <point x="342" y="563" type="qcurve" smooth="yes"/>
      <point x="337" y="567"/>
      <point x="352" y="578"/>
      <point x="380" y="585"/>
      <point x="416" y="587"/>
      <point x="448" y="579"/>
      <point x="472" y="557"/>
      <point x="474" y="537" type="qcurve" smooth="yes"/>
      <point x="478" y="499"/>
      <point x="445" y="374"/>
      <point x="391" y="225"/>
      <point x="326" y="65"/>
      <point x="271" y="-79"/>
      <point x="235" y="-194"/>
      <point x="237" y="-224" type="qcurve" smooth="yes"/>
      <point x="237" y="-233"/>
      <point x="209" y="-250"/>
      <point x="171" y="-250"/>
      <point x="132" y="-228"/>
    </contour>
  </outline>
</glyph>
<glyph name="Q" format="1">
  <advance width="1099"/>
  <unicode hex="0051"/>
  <outline>
    <contour>
      <point x="1009" y="484" type="qcurve" smooth="yes"/>
      <point x="1027" y="381"/>
      <point x="1000" y="262" type="qcurve" smooth="yes"/>
      <point x="987" y="204"/>
      <point x="941" y="90"/>
      <point x="909" y="39" type="qcurve" smooth="yes"/>
      <point x="846" y="-65"/>
      <point x="754" y="-142" type="qcurve" smooth="yes"/>
      <point x="744" y="-150"/>
      <point x="725" y="-164"/>
      <point x="715" y="-171" type="qcurve"/>
      <point x="790" y="-198"/>
      <point x="937" y="-257"/>
      <point x="1071" y="-299"/>
      <point x="1189" y="-310"/>
      <point x="1236" y="-288" type="qcurve" smooth="yes"/>
      <point x="1244" y="-284"/>
      <point x="1255" y="-321"/>
      <point x="1251" y="-373"/>
      <point x="1226" y="-426"/>
      <point x="1197" y="-439" type="qcurve" smooth="yes"/>
      <point x="1170" y="-451"/>
      <point x="1094" y="-442"/>
      <point x="1002" y="-411"/>
      <point x="898" y="-362"/>
      <point x="786" y="-307"/>
      <point x="670" y="-252"/>
      <point x="613" y="-229" type="qcurve"/>
      <point x="535" y="-264"/>
      <point x="367" y="-285"/>
      <point x="283" y="-266" type="qcurve" smooth="yes"/>
      <point x="226" y="-254"/>
      <point x="130" y="-202"/>
      <point x="95" y="-164" type="qcurve" smooth="yes"/>
      <point x="60" y="-126"/>
      <point x="14" y="-22"/>
      <point x="5" y="41" type="qcurve" smooth="yes"/>
      <point x="-3" y="103"/>
      <point x="8" y="234"/>
      <point x="26" y="301" type="qcurve" smooth="yes"/>
      <point x="45" y="366"/>
      <point x="107" y="494"/>
      <point x="149" y="552" type="qcurve" smooth="yes"/>
      <point x="192" y="611"/>
      <point x="290" y="706"/>
      <point x="344" y="740" type="qcurve" smooth="yes"/>
      <point x="375" y="760"/>
      <point x="448" y="767"/>
      <point x="502" y="753"/>
      <point x="519" y="723"/>
      <point x="495" y="707" type="qcurve" smooth="yes"/>
      <point x="442" y="672"/>
      <point x="349" y="580"/>
      <point x="271" y="472"/>
      <point x="213" y="353"/>
      <point x="195" y="290" type="qcurve" smooth="yes"/>
      <point x="178" y="228"/>
      <point x="169" y="106"/>
      <point x="184" y="-6"/>
      <point x="223" y="-102"/>
      <point x="254" y="-137" type="qcurve" smooth="yes"/>
      <point x="259" y="-142"/>
      <point x="270" y="-153"/>
      <point x="275" y="-158" type="qcurve"/>
      <point x="319" y="-133"/>
      <point x="413" y="-113"/>
      <point x="512" y="-116"/>
      <point x="615" y="-139"/>
      <point x="666" y="-155" type="qcurve"/>
      <point x="683" y="-144"/>
      <point x="714" y="-123"/>
      <point x="728" y="-111" type="qcurve" smooth="yes"/>
      <point x="771" y="-76"/>
      <point x="846" y="11"/>
      <point x="875" y="60" type="qcurve" smooth="yes"/>
      <point x="905" y="109"/>
      <point x="949" y="217"/>
      <point x="973" y="325"/>
      <point x="978" y="429"/>
      <point x="969" y="476" type="qcurve" smooth="yes"/>
      <point x="960" y="528"/>
      <point x="913" y="623"/>
      <point x="846" y="683"/>
      <point x="762" y="696"/>
      <point x="714" y="668" type="qcurve" smooth="yes"/>
      <point x="666" y="641"/>
      <point x="584" y="551"/>
      <point x="559" y="499" type="qcurve" smooth="yes"/>
      <point x="536" y="448"/>
      <point x="520" y="337"/>
      <point x="529" y="284" type="qcurve" smooth="yes"/>
      <point x="532" y="262"/>
      <point x="544" y="223"/>
      <point x="562" y="184"/>
      <point x="586" y="143"/>
      <point x="602" y="118" type="qcurve" smooth="yes"/>
      <point x="610" y="105"/>
      <point x="600" y="82"/>
      <point x="572" y="66"/>
      <point x="533" y="58"/>
      <point x="491" y="61"/>
      <point x="452" y="78"/>
      <point x="440" y="94" type="qcurve" smooth="yes"/>
      <point x="406" y="139"/>
      <point x="367" y="229"/>
      <point x="359" y="278" type="qcurve" smooth="yes"/>
      <point x="350" y="333"/>
      <point x="358" y="394" type="qcurve" smooth="yes"/>
      <point x="363" y="426"/>
      <point x="379" y="487"/>
      <point x="393" y="516" type="qcurve" smooth="yes"/>
      <point x="407" y="545"/>
      <point x="444" y="600"/>
      <point x="467" y="625" type="qcurve" smooth="yes"/>
      <point x="511" y="672"/>
      <point x="564" y="703" type="qcurve" smooth="yes"/>
      <point x="614" y="731"/>
      <point x="720" y="752"/>
      <point x="771" y="743" type="qcurve" smooth="yes"/>
      <point x="816" y="735"/>
      <point x="895" y="692"/>
      <point x="927" y="657" type="qcurve" smooth="yes"/>
      <point x="958" y="623"/>
      <point x="999" y="535"/>
    </contour>
    <contour>
      <point x="553" y="-206" type="qcurve"/>
      <point x="487" y="-184"/>
      <point x="364" y="-169"/>
      <point x="312" y="-186" type="qcurve"/>
      <point x="366" y="-218"/>
      <point x="490" y="-225"/>
    </contour>
  </outline>
</glyph>
<glyph name="V" format="1">
  <advance width="1288"/>
  <unicode hex="0056"/>
  <outline>
    <contour>
      <point x="1731" y="753" type="qcurve" smooth="yes"/>
      <point x="1735" y="741"/>
      <point x="1715" y="713"/>
      <point x="1681" y="688"/>
      <point x="1641" y="669"/>
      <point x="1608" y="663"/>
      <point x="1590" y="672"/>
      <point x="1596" y="689" type="qcurve" smooth="yes"/>
      <point x="1604" y="711"/>
      <point x="1599" y="749"/>
      <point x="1578" y="774"/>
      <point x="1546" y="785"/>
      <point x="1528" y="781" type="qcurve" smooth="yes"/>
      <point x="1433" y="760"/>
      <point x="1310" y="623" type="qcurve" smooth="yes"/>
      <point x="1262" y="569"/>
      <point x="1182" y="461"/>
      <point x="1112" y="352"/>
      <point x="1045" y="243"/>
      <point x="973" y="131"/>
      <point x="889" y="18"/>
      <point x="838" y="-40" type="qcurve" smooth="yes"/>
      <point x="739" y="-149"/>
      <point x="661" y="-206" type="qcurve" smooth="yes"/>
      <point x="577" y="-264"/>
      <point x="519" y="-264" type="qcurve" smooth="yes"/>
      <point x="506" y="-264"/>
      <point x="494" y="-261" type="qcurve" smooth="yes"/>
      <point x="453" y="-252"/>
      <point x="437" y="-219" type="qcurve" smooth="yes"/>
      <point x="427" y="-196"/>
      <point x="432" y="-132"/>
      <point x="446" y="-86" type="qcurve" smooth="yes"/>
      <point x="458" y="-48"/>
      <point x="495" y="42"/>
      <point x="516" y="90" type="qcurve" smooth="yes"/>
      <point x="553" y="175"/>
      <point x="621" y="355"/>
      <point x="632" y="439" type="qcurve" smooth="yes"/>
      <point x="644" y="531"/>
      <point x="585" y="654"/>
      <point x="516" y="692" type="qcurve" smooth="yes"/>
      <point x="468" y="718"/>
      <point x="364" y="720"/>
      <point x="314" y="700" type="qcurve" smooth="yes"/>
      <point x="291" y="691"/>
      <point x="239" y="660"/>
      <point x="189" y="617"/>
      <point x="144" y="562"/>
      <point x="129" y="529" type="qcurve" smooth="yes"/>
      <point x="105" y="476"/>
      <point x="87" y="364"/>
      <point x="110" y="277"/>
      <point x="176" y="230"/>
      <point x="235" y="244" type="qcurve" smooth="yes"/>
      <point x="248" y="247"/>
      <point x="247" y="209"/>
      <point x="219" y="162"/>
      <point x="166" y="125"/>
      <point x="127" y="129" type="qcurve" smooth="yes"/>
      <point x="81" y="134"/>
      <point x="19" y="181"/>
      <point x="-14" y="253"/>
      <point x="-20" y="343"/>
      <point x="-1" y="438"/>
      <point x="42" y="533"/>
      <point x="75" y="573" type="qcurve" smooth="yes"/>
      <point x="104" y="609"/>
      <point x="166" y="661"/>
      <point x="224" y="699"/>
      <point x="277" y="724"/>
      <point x="298" y="732" type="qcurve" smooth="yes"/>
      <point x="344" y="750"/>
      <point x="441" y="770"/>
      <point x="537" y="770"/>
      <point x="629" y="750"/>
      <point x="670" y="728" type="qcurve" smooth="yes"/>
      <point x="754" y="682"/>
      <point x="788" y="609" type="qcurve" smooth="yes"/>
      <point x="802" y="575"/>
      <point x="809" y="497"/>
      <point x="804" y="450" type="qcurve" smooth="yes"/>
      <point x="799" y="408"/>
      <point x="775" y="322"/>
      <point x="743" y="235"/>
      <point x="706" y="150"/>
      <point x="688" y="110" type="qcurve" smooth="yes"/>
      <point x="670" y="69"/>
      <point x="636" y="-9"/>
      <point x="613" y="-76"/>
      <point x="605" y="-130"/>
      <point x="613" y="-147" type="qcurve" smooth="yes"/>
      <point x="620" y="-164"/>
      <point x="648" y="-164"/>
      <point x="684" y="-143"/>
      <point x="725" y="-107"/>
      <point x="764" y="-67"/>
      <point x="798" y="-29"/>
      <point x="809" y="-17" type="qcurve" smooth="yes"/>
      <point x="861" y="41"/>
      <point x="944" y="155"/>
      <point x="1017" y="265"/>
      <point x="1083" y="374"/>
      <point x="1153" y="482"/>
      <point x="1233" y="591"/>
      <point x="1283" y="646" type="qcurve" smooth="yes"/>
      <point x="1343" y="715"/>
      <point x="1397" y="756" type="qcurve" smooth="yes"/>
      <point x="1464" y="806"/>
      <point x="1526" y="820" type="qcurve" smooth="yes"/>
      <point x="1548" y="825"/>
      <point x="1610" y="827"/>
      <point x="1671" y="814"/>
      <point x="1721" y="782"/>
    </contour>
  </outline>
</glyph>
<glyph name="W" format="1">
  <advance width="1759"/>
  <unicode hex="0057"/>
  <outline>
    <contour>
      <point x="809" y="-17" type="qcurve" smooth="yes"/>
      <point x="838" y="15"/>
      <point x="890" y="80"/>
      <point x="913" y="112" type="qcurve"/>
      <point x="921" y="144"/>
      <point x="938" y="208"/>
      <point x="950" y="241" type="qcurve" smooth="yes"/>
      <point x="987" y="347"/>
      <point x="1031" y="429" type="qcurve" smooth="yes"/>
      <point x="1055" y="474"/>
      <point x="1105" y="540"/>
      <point x="1130" y="560" type="qcurve" smooth="yes"/>
      <point x="1163" y="588"/>
      <point x="1215" y="594"/>
      <point x="1232" y="588" type="qcurve" smooth="yes"/>
      <point x="1257" y="580"/>
      <point x="1259" y="553" type="qcurve" smooth="yes"/>
      <point x="1263" y="536"/>
      <point x="1254" y="506" type="qcurve" smooth="yes"/>
      <point x="1254" y="504"/>
      <point x="1250" y="496" type="qcurve" smooth="yes"/>
      <point x="1247" y="490"/>
      <point x="1241" y="476"/>
      <point x="1238" y="468" type="qcurve" smooth="yes"/>
      <point x="1227" y="445"/>
      <point x="1192" y="388"/>
      <point x="1169" y="356" type="qcurve" smooth="yes"/>
      <point x="1167" y="353"/>
      <point x="1162" y="346"/>
      <point x="1160" y="343" type="qcurve" smooth="yes"/>
      <point x="1137" y="292"/>
      <point x="1098" y="177"/>
      <point x="1082" y="117" type="qcurve" smooth="yes"/>
      <point x="1056" y="8"/>
      <point x="1055" y="-156"/>
      <point x="1078" y="-193" type="qcurve"/>
      <point x="1120" y="-169"/>
      <point x="1220" y="-79"/>
      <point x="1280" y="-13" type="qcurve" smooth="yes"/>
      <point x="1349" y="64"/>
      <point x="1461" y="230"/>
      <point x="1568" y="400"/>
      <point x="1682" y="568"/>
      <point x="1754" y="646" type="qcurve" smooth="yes"/>
      <point x="1814" y="715"/>
      <point x="1868" y="756" type="qcurve" smooth="yes"/>
      <point x="1935" y="806"/>
      <point x="1997" y="820" type="qcurve" smooth="yes"/>
      <point x="2019" y="825"/>
      <point x="2081" y="827"/>
      <point x="2142" y="814"/>
      <point x="2192" y="782"/>
      <point x="2202" y="753" type="qcurve" smooth="yes"/>
      <point x="2206" y="741"/>
      <point x="2186" y="713"/>
      <point x="2152" y="688"/>
      <point x="2112" y="669"/>
      <point x="2079" y="663"/>
      <point x="2061" y="672"/>
      <point x="2067" y="689" type="qcurve" smooth="yes"/>
      <point x="2075" y="711"/>
      <point x="2070" y="749"/>
      <point x="2049" y="774"/>
      <point x="2017" y="785"/>
      <point x="1999" y="781" type="qcurve" smooth="yes"/>
      <point x="1953" y="770"/>
      <point x="1862" y="710"/>
      <point x="1772" y="620"/>
      <point x="1683" y="505"/>
      <point x="1639" y="440" type="qcurve" smooth="yes"/>
      <point x="1601" y="384"/>
      <point x="1526" y="264"/>
      <point x="1446" y="142"/>
      <point x="1358" y="21"/>
      <point x="1309" y="-36" type="qcurve" smooth="yes"/>
      <point x="1214" y="-146"/>
      <point x="1132" y="-202" type="qcurve" smooth="yes"/>
      <point x="1105" y="-222"/>
      <point x="1078" y="-235" type="qcurve" smooth="yes"/>
      <point x="1076" y="-237"/>
      <point x="1076" y="-237" type="qcurve"/>
      <point x="1028" y="-260"/>
      <point x="992" y="-260" type="qcurve" smooth="yes"/>
      <point x="979" y="-260"/>
      <point x="967" y="-257" type="qcurve" smooth="yes"/>
      <point x="933" y="-250"/>
      <point x="912" y="-216" type="qcurve" smooth="yes"/>
      <point x="896" y="-188"/>
      <point x="888" y="-139" type="qcurve" smooth="yes"/>
      <point x="884" y="-105"/>
      <point x="888" y="-20"/>
      <point x="896" y="28" type="qcurve"/>
      <point x="882" y="11"/>
      <point x="853" y="-23"/>
      <point x="838" y="-40" type="qcurve" smooth="yes"/>
      <point x="739" y="-149"/>
      <point x="661" y="-206" type="qcurve" smooth="yes"/>
      <point x="577" y="-264"/>
      <point x="519" y="-264" type="qcurve" smooth="yes"/>
      <point x="506" y="-264"/>
      <point x="494" y="-261" type="qcurve" smooth="yes"/>
      <point x="453" y="-252"/>
      <point x="437" y="-219" type="qcurve" smooth="yes"/>
      <point x="427" y="-196"/>
      <point x="432" y="-132"/>
      <point x="446" y="-86" type="qcurve" smooth="yes"/>
      <point x="458" y="-48"/>
      <point x="495" y="42"/>
      <point x="516" y="90" type="qcurve" smooth="yes"/>
      <point x="553" y="175"/>
      <point x="621" y="355"/>
      <point x="632" y="439" type="qcurve" smooth="yes"/>
      <point x="644" y="531"/>
      <point x="585" y="654"/>
      <point x="516" y="692" type="qcurve" smooth="yes"/>
      <point x="468" y="718"/>
      <point x="364" y="720"/>
      <point x="314" y="700" type="qcurve" smooth="yes"/>
      <point x="291" y="691"/>
      <point x="239" y="660"/>
      <point x="189" y="617"/>
      <point x="144" y="562"/>
      <point x="129" y="529" type="qcurve" smooth="yes"/>
      <point x="105" y="476"/>
      <point x="87" y="364"/>
      <point x="110" y="277"/>
      <point x="176" y="230"/>
      <point x="235" y="244" type="qcurve" smooth="yes"/>
      <point x="248" y="247"/>
      <point x="247" y="209"/>
      <point x="219" y="162"/>
      <point x="166" y="125"/>
      <point x="127" y="129" type="qcurve" smooth="yes"/>
      <point x="81" y="134"/>
      <point x="19" y="181"/>
      <point x="-14" y="253"/>
      <point x="-20" y="343"/>
      <point x="-1" y="438"/>
      <point x="42" y="533"/>
      <point x="75" y="573" type="qcurve" smooth="yes"/>
      <point x="104" y="609"/>
      <point x="166" y="661"/>
      <point x="224" y="699"/>
      <point x="277" y="724"/>
      <point x="298" y="732" type="qcurve" smooth="yes"/>
      <point x="344" y="750"/>
      <point x="441" y="770"/>
      <point x="537" y="770"/>
      <point x="629" y="750"/>
      <point x="670" y="728" type="qcurve" smooth="yes"/>
      <point x="754" y="682"/>
      <point x="788" y="609" type="qcurve" smooth="yes"/>
      <point x="802" y="575"/>
      <point x="809" y="497"/>
      <point x="804" y="450" type="qcurve" smooth="yes"/>
      <point x="799" y="408"/>
      <point x="775" y="322"/>
      <point x="743" y="235"/>
      <point x="706" y="150"/>
      <point x="688" y="110" type="qcurve" smooth="yes"/>
      <point x="670" y="69"/>
      <point x="636" y="-9"/>
      <point x="613" y="-76"/>
      <point x="605" y="-130"/>
      <point x="613" y="-147" type="qcurve" smooth="yes"/>
      <point x="620" y="-164"/>
      <point x="648" y="-164"/>
      <point x="684" y="-143"/>
      <point x="725" y="-107"/>
      <point x="764" y="-67"/>
      <point x="798" y="-29"/>
    </contour>
  </outline>
</glyph>
<glyph name="X" format="1">
  <advance width="900"/>
  <unicode hex="0058"/>
  <outline>
    <contour>
      <point x="1212" y="-345" type="qcurve" smooth="yes"/>
      <point x="1227" y="-340"/>
      <point x="1249" y="-353"/>
      <point x="1261" y="-380"/>
      <point x="1263" y="-414"/>
      <point x="1255" y="-446"/>
      <point x="1236" y="-470"/>
      <point x="1220" y="-473" type="qcurve" smooth="yes"/>
      <point x="1180" y="-481"/>
      <point x="1093" y="-489"/>
      <point x="1005" y="-488"/>
      <point x="920" y="-475"/>
      <point x="882" y="-460" type="qcurve" smooth="yes"/>
      <point x="814" y="-435"/>
      <point x="716" y="-352"/>
      <point x="646" y="-243"/>
      <point x="599" y="-114"/>
      <point x="583" y="-43" type="qcurve" smooth="yes"/>
      <point x="566" y="24"/>
      <point x="545" y="160"/>
      <point x="536" y="228" type="qcurve" smooth="yes"/>
      <point x="534" y="242"/>
      <point x="530" y="270"/>
      <point x="528" y="284" type="qcurve"/>
      <point x="33" y="-139" type="line" smooth="yes"/>
      <point x="27" y="-145"/>
      <point x="19" y="-145" type="qcurve" smooth="yes"/>
      <point x="11" y="-145"/>
      <point x="5" y="-139" type="qcurve" smooth="yes"/>
      <point x="0" y="-133"/>
      <point x="3" y="-116"/>
      <point x="10" y="-110" type="qcurve" smooth="yes"/>
      <point x="521" y="327" type="line"/>
      <point x="505" y="426"/>
      <point x="467" y="590"/>
      <point x="409" y="697"/>
      <point x="326" y="739"/>
      <point x="265" y="717" type="qcurve" smooth="yes"/>
      <point x="248" y="711"/>
      <point x="223" y="719"/>
      <point x="214" y="735"/>
      <point x="225" y="756"/>
      <point x="245" y="763" type="qcurve" smooth="yes"/>
      <point x="357" y="802"/>
      <point x="524" y="748"/>
      <point x="573" y="653" type="qcurve" smooth="yes"/>
      <point x="597" y="606"/>
      <point x="628" y="493"/>
      <point x="640" y="429" type="qcurve"/>
      <point x="941" y="687" type="line" smooth="yes"/>
      <point x="948" y="692"/>
      <point x="965" y="692"/>
      <point x="970" y="686" type="qcurve" smooth="yes"/>
      <point x="974" y="680"/>
      <point x="972" y="664"/>
      <point x="965" y="658" type="qcurve" smooth="yes"/>
      <point x="647" y="387" type="line"/>
      <point x="662" y="283"/>
      <point x="693" y="77"/>
      <point x="741" y="-106"/>
      <point x="814" y="-254"/>
      <point x="929" y="-347"/>
      <point x="1095" y="-374"/>
    </contour>
  </outline>
</glyph>
<glyph name="Z" format="1">
  <advance width="883"/>
  <unicode hex="005A"/>
  <outline>
    <contour>
      <point x="1212" y="-119" type="qcurve" smooth="yes"/>
      <point x="1226" y="-106"/>
      <point x="1267" y="-117"/>
      <point x="1300" y="-144"/>
      <point x="1317" y="-179"/>
      <point x="1307" y="-189" type="qcurve" smooth="yes"/>
      <point x="1226" y="-272"/>
      <point x="1069" y="-347"/>
      <point x="919" y="-358"/>
      <point x="777" y="-316"/>
      <point x="647" y="-249"/>
      <point x="529" y="-169"/>
      <point x="478" y="-136" type="qcurve" smooth="yes"/>
      <point x="412" y="-94"/>
      <point x="293" y="-23"/>
      <point x="242" y="-3" type="qcurve" smooth="yes"/>
      <point x="221" y="5" type="line"/>
      <point x="219" y="5" type="line" smooth="yes"/>
      <point x="211" y="5"/>
      <point x="207" y="9" type="qcurve" smooth="yes"/>
      <point x="182" y="16"/>
      <point x="145" y="17"/>
      <point x="118" y="10"/>
      <point x="99" y="-2"/>
      <point x="92" y="-9" type="qcurve" smooth="yes"/>
      <point x="86" y="-15"/>
      <point x="68" y="-16"/>
      <point x="63" y="-11" type="qcurve" smooth="yes"/>
      <point x="58" y="-6"/>
      <point x="59" y="10"/>
      <point x="65" y="17" type="qcurve" smooth="yes"/>
      <point x="115" y="71"/>
      <point x="240" y="199"/>
      <point x="373" y="331"/>
      <point x="508" y="462"/>
      <point x="631" y="579"/>
      <point x="733" y="675"/>
      <point x="767" y="707" type="qcurve"/>
      <point x="673" y="679"/>
      <point x="525" y="668"/>
      <point x="406" y="677"/>
      <point x="311" y="691"/>
      <point x="270" y="688" type="qcurve" smooth="yes"/>
      <point x="247" y="686"/>
      <point x="205" y="666"/>
      <point x="172" y="635"/>
      <point x="150" y="595"/>
      <point x="149" y="573" type="qcurve" smooth="yes"/>
      <point x="147" y="547"/>
      <point x="165" y="504"/>
      <point x="199" y="476"/>
      <point x="247" y="464"/>
      <point x="275" y="469" type="qcurve" smooth="yes"/>
      <point x="285" y="471"/>
      <point x="270" y="439"/>
      <point x="231" y="397"/>
      <point x="172" y="360"/>
      <point x="139" y="357" type="qcurve" smooth="yes"/>
      <point x="109" y="355"/>
      <point x="58" y="371"/>
      <point x="20" y="403"/>
      <point x="1" y="449"/>
      <point x="3" y="477" type="qcurve" smooth="yes"/>
      <point x="6" y="528"/>
      <point x="50" y="622"/>
      <point x="118" y="694"/>
      <point x="207" y="739"/>
      <point x="255" y="741" type="qcurve" smooth="yes"/>
      <point x="283" y="742"/>
      <point x="346" y="730"/>
      <point x="421" y="716"/>
      <point x="509" y="704"/>
      <point x="616" y="707"/>
      <point x="743" y="729"/>
      <point x="820" y="756" type="qcurve" smooth="yes"/>
      <point x="823" y="760"/>
      <point x="854" y="766"/>
      <point x="895" y="768"/>
      <point x="938" y="766"/>
      <point x="970" y="757"/>
      <point x="983" y="741"/>
      <point x="974" y="728" type="qcurve" smooth="yes"/>
      <point x="970" y="723"/>
      <point x="896" y="654"/>
      <point x="779" y="545"/>
      <point x="630" y="405"/>
      <point x="474" y="255"/>
      <point x="320" y="103"/>
      <point x="257" y="36" type="qcurve"/>
      <point x="258" y="36"/>
      <point x="259" y="35"/>
      <point x="260" y="35" type="qcurve" smooth="yes"/>
      <point x="315" y="14"/>
      <point x="436" y="-60"/>
      <point x="502" y="-102" type="qcurve" smooth="yes"/>
      <point x="552" y="-134"/>
      <point x="658" y="-196"/>
      <point x="770" y="-242"/>
      <point x="888" y="-263"/>
      <point x="1012" y="-245"/>
      <point x="1143" y="-182"/>
    </contour>
  </outline>
</glyph>
<glyph name="bracketleft" format="1">
  <advance width="526"/>
  <unicode hex="005B"/>
  <outline>
    <contour>
      <point x="21" y="-168" type="qcurve" smooth="yes"/>
      <point x="17" y="-162"/>
      <point x="19" y="-151" type="qcurve" smooth="yes"/>
      <point x="288" y="668" type="line" smooth="yes"/>
      <point x="291" y="683"/>
      <point x="307" y="683" type="qcurve" smooth="yes"/>
      <point x="498" y="697" type="line" smooth="yes"/>
      <point x="506" y="697"/>
      <point x="518" y="686"/>
      <point x="518" y="678" type="qcurve" smooth="yes"/>
      <point x="519" y="670"/>
      <point x="507" y="657"/>
      <point x="499" y="657" type="qcurve" smooth="yes"/>
      <point x="421" y="644" type="line"/>
      <point x="165" y="-135" type="line"/>
      <point x="254" y="-131" type="line" smooth="yes"/>
      <point x="262" y="-131"/>
      <point x="274" y="-143"/>
      <point x="273" y="-151" type="qcurve" smooth="yes"/>
      <point x="272" y="-159"/>
      <point x="261" y="-171"/>
      <point x="253" y="-171" type="qcurve" smooth="yes"/>
      <point x="36" y="-176" type="line" smooth="yes"/>
      <point x="31" y="-176"/>
      <point x="24" y="-171"/>
    </contour>
  </outline>
</glyph>
<glyph name="bracketright" format="1">
  <advance width="526"/>
  <unicode hex="005D"/>
  <outline>
    <contour>
      <point x="505" y="689" type="qcurve" smooth="yes"/>
      <point x="509" y="683"/>
      <point x="507" y="672" type="qcurve" smooth="yes"/>
      <point x="238" y="-147" type="line" smooth="yes"/>
      <point x="235" y="-162"/>
      <point x="219" y="-162" type="qcurve" smooth="yes"/>
      <point x="28" y="-176" type="line" smooth="yes"/>
      <point x="20" y="-176"/>
      <point x="8" y="-165"/>
      <point x="8" y="-157" type="qcurve" smooth="yes"/>
      <point x="7" y="-149"/>
      <point x="19" y="-136"/>
      <point x="27" y="-136" type="qcurve" smooth="yes"/>
      <point x="105" y="-123" type="line"/>
      <point x="361" y="656" type="line"/>
      <point x="272" y="652" type="line" smooth="yes"/>
      <point x="264" y="652"/>
      <point x="252" y="664"/>
      <point x="253" y="672" type="qcurve" smooth="yes"/>
      <point x="254" y="680"/>
      <point x="265" y="692"/>
      <point x="273" y="692" type="qcurve" smooth="yes"/>
      <point x="490" y="697" type="line" smooth="yes"/>
      <point x="495" y="697"/>
      <point x="502" y="692"/>
    </contour>
  </outline>
</glyph>
<glyph name="asciicircum" format="1">
  <advance width="427"/>
  <unicode hex="005E"/>
  <outline>
    <contour>
      <point x="37" y="469" type="qcurve" smooth="yes"/>
      <point x="44" y="472"/>
      <point x="71" y="503"/>
      <point x="105" y="544"/>
      <point x="143" y="591"/>
      <point x="177" y="629"/>
      <point x="206" y="654"/>
      <point x="213" y="653" type="qcurve" smooth="yes"/>
      <point x="221" y="654"/>
      <point x="249" y="629"/>
      <point x="283" y="591"/>
      <point x="321" y="544"/>
      <point x="355" y="503"/>
      <point x="383" y="472"/>
      <point x="390" y="469" type="qcurve" smooth="yes"/>
      <point x="396" y="466"/>
      <point x="382" y="443"/>
      <point x="354" y="422"/>
      <point x="319" y="412"/>
      <point x="305" y="422" type="qcurve" smooth="yes"/>
      <point x="292" y="431"/>
      <point x="266" y="461"/>
      <point x="242" y="499"/>
      <point x="220" y="542"/>
      <point x="213" y="562" type="qcurve"/>
      <point x="205" y="542"/>
      <point x="185" y="499"/>
      <point x="161" y="461"/>
      <point x="135" y="431"/>
      <point x="122" y="422" type="qcurve" smooth="yes"/>
      <point x="108" y="412"/>
      <point x="73" y="422"/>
      <point x="45" y="443"/>
      <point x="31" y="466"/>
    </contour>
  </outline>
</glyph>
<glyph name="underscore" format="1">
  <advance width="709"/>
  <unicode hex="005F"/>
  <outline>
    <contour>
      <point x="634" y="-64" type="qcurve" smooth="yes"/>
      <point x="639" y="-59"/>
      <point x="652" y="-98"/>
      <point x="659" y="-152"/>
      <point x="653" y="-204"/>
      <point x="639" y="-213" type="qcurve" smooth="yes"/>
      <point x="627" y="-221"/>
      <point x="560" y="-227"/>
      <point x="466" y="-225"/>
      <point x="354" y="-217"/>
      <point x="241" y="-204"/>
      <point x="135" y="-188"/>
      <point x="53" y="-170"/>
      <point x="4" y="-151"/>
      <point x="4" y="-143" type="qcurve" smooth="yes"/>
      <point x="4" y="-137"/>
      <point x="56" y="-126"/>
      <point x="142" y="-116"/>
      <point x="252" y="-105"/>
      <point x="368" y="-96"/>
      <point x="481" y="-86"/>
      <point x="571" y="-77"/>
      <point x="630" y="-68"/>
    </contour>
  </outline>
</glyph>
<glyph name="grave" format="1">
  <advance width="162"/>
  <unicode hex="0060"/>
  <outline>
    <contour>
      <point x="99" y="734" type="qcurve" smooth="yes"/>
      <point x="96" y="722"/>
      <point x="113" y="665"/>
      <point x="131" y="602"/>
      <point x="140" y="550"/>
      <point x="131" y="544" type="qcurve" smooth="yes"/>
      <point x="117" y="535"/>
      <point x="75" y="559"/>
      <point x="36" y="605"/>
      <point x="10" y="666"/>
      <point x="11" y="694" type="qcurve" smooth="yes"/>
      <point x="11" y="711"/>
      <point x="40" y="733"/>
      <point x="74" y="743"/>
      <point x="100" y="741"/>
    </contour>
  </outline>
</glyph>
<glyph name="b" format="1">
  <advance width="537"/>
  <unicode hex="0062"/>
  <outline>
    <contour>
      <point x="126" y="80" type="qcurve" smooth="yes"/>
      <point x="126" y="61"/>
      <point x="109" y="53" type="qcurve"/>
      <point x="115" y="41"/>
      <point x="126" y="41" type="qcurve" smooth="yes"/>
      <point x="139" y="40"/>
      <point x="174" y="67"/>
      <point x="213" y="118"/>
      <point x="255" y="192"/>
      <point x="276" y="239" type="qcurve" smooth="yes"/>
      <point x="289" y="268"/>
      <point x="306" y="337"/>
      <point x="309" y="399"/>
      <point x="295" y="444"/>
      <point x="276" y="449" type="qcurve" smooth="yes"/>
      <point x="253" y="454"/>
      <point x="204" y="416"/>
      <point x="155" y="352"/>
      <point x="108" y="271"/>
      <point x="89" y="234" type="qcurve" smooth="yes"/>
      <point x="71" y="195"/>
      <point x="40" y="126"/>
      <point x="21" y="71"/>
      <point x="13" y="33"/>
      <point x="17" y="25" type="qcurve" smooth="yes"/>
      <point x="21" y="17"/>
      <point x="0" y="0"/>
      <point x="-33" y="-1"/>
      <point x="-68" y="21"/>
      <point x="-77" y="51" type="qcurve" smooth="yes"/>
      <point x="-83" y="69"/>
      <point x="-64" y="149"/>
      <point x="-25" y="256"/>
      <point x="27" y="380"/>
      <point x="82" y="506"/>
      <point x="133" y="625"/>
      <point x="171" y="719"/>
      <point x="189" y="781"/>
      <point x="183" y="787" type="qcurve" smooth="yes"/>
      <point x="176" y="793"/>
      <point x="203" y="809"/>
      <point x="244" y="811"/>
      <point x="286" y="791"/>
      <point x="295" y="761" type="qcurve" smooth="yes"/>
      <point x="300" y="744"/>
      <point x="287" y="682"/>
      <point x="257" y="600"/>
      <point x="216" y="503"/>
      <point x="192" y="452" type="qcurve"/>
      <point x="225" y="483"/>
      <point x="302" y="507"/>
      <point x="347" y="488" type="qcurve" smooth="yes"/>
      <point x="387" y="471"/>
      <point x="422" y="410"/>
      <point x="428" y="337"/>
      <point x="410" y="258"/>
      <point x="397" y="225" type="qcurve" smooth="yes"/>
      <point x="371" y="160"/>
      <point x="307" y="70"/>
      <point x="272" y="43" type="qcurve"/>
      <point x="322" y="54"/>
      <point x="399" y="117"/>
      <point x="434" y="159" type="qcurve" smooth="yes"/>
      <point x="467" y="198"/>
      <point x="520" y="279"/>
      <point x="537" y="312" type="qcurve" smooth="yes"/>
      <point x="540" y="319"/>
      <point x="552" y="324"/>
      <point x="561" y="319" type="qcurve" smooth="yes"/>
      <point x="568" y="315"/>
      <point x="571" y="301"/>
      <point x="568" y="295" type="qcurve" smooth="yes"/>
      <point x="544" y="246"/>
      <point x="481" y="154"/>
      <point x="443" y="111" type="qcurve" smooth="yes"/>
      <point x="418" y="83"/>
      <point x="361" y="36"/>
      <point x="290" y="5"/>
      <point x="200" y="-7"/>
      <point x="142" y="-1" type="qcurve" smooth="yes"/>
      <point x="130" y="0"/>
      <point x="103" y="7"/>
      <point x="80" y="23"/>
      <point x="64" y="50"/>
      <point x="64" y="70" type="qcurve" smooth="yes"/>
      <point x="64" y="90"/>
      <point x="72" y="98" type="qcurve" smooth="yes"/>
      <point x="81" y="109"/>
      <point x="95" y="109" type="qcurve" smooth="yes"/>
      <point x="107" y="109"/>
      <point x="126" y="93"/>
    </contour>
  </outline>
</glyph>
<glyph name="c" format="1">
  <advance width="373"/>
  <unicode hex="0063"/>
  <outline>
    <contour>
      <point x="256" y="421" type="qcurve" smooth="yes"/>
      <point x="256" y="429"/>
      <point x="265" y="443"/>
      <point x="272" y="448" type="qcurve"/>
      <point x="267" y="460"/>
      <point x="256" y="460" type="qcurve" smooth="yes"/>
      <point x="242" y="461"/>
      <point x="208" y="434"/>
      <point x="169" y="383"/>
      <point x="127" y="308"/>
      <point x="106" y="262" type="qcurve" smooth="yes"/>
      <point x="93" y="233"/>
      <point x="76" y="163"/>
      <point x="73" y="101"/>
      <point x="87" y="56"/>
      <point x="106" y="52" type="qcurve" smooth="yes"/>
      <point x="128" y="48"/>
      <point x="179" y="69"/>
      <point x="232" y="111"/>
      <point x="283" y="167"/>
      <point x="328" y="229"/>
      <point x="363" y="290"/>
      <point x="373" y="316" type="qcurve" smooth="yes"/>
      <point x="376" y="324"/>
      <point x="390" y="329"/>
      <point x="398" y="325" type="qcurve" smooth="yes"/>
      <point x="411" y="318"/>
      <point x="405" y="304" type="qcurve" smooth="yes"/>
      <point x="389" y="269"/>
      <point x="342" y="190"/>
      <point x="284" y="116"/>
      <point x="217" y="51"/>
      <point x="146" y="10"/>
      <point x="71" y="-2"/>
      <point x="35" y="13" type="qcurve" smooth="yes"/>
      <point x="-5" y="29"/>
      <point x="-40" y="91"/>
      <point x="-46" y="164"/>
      <point x="-28" y="243"/>
      <point x="-15" y="276" type="qcurve" smooth="yes"/>
      <point x="9" y="337"/>
      <point x="68" y="424"/>
      <point x="134" y="479"/>
      <point x="204" y="503"/>
      <point x="240" y="502" type="qcurve" smooth="yes"/>
      <point x="252" y="501"/>
      <point x="279" y="494"/>
      <point x="302" y="478"/>
      <point x="318" y="451"/>
      <point x="318" y="431" type="qcurve" smooth="yes"/>
      <point x="318" y="411"/>
      <point x="309" y="402" type="qcurve" smooth="yes"/>
      <point x="301" y="392"/>
      <point x="287" y="392" type="qcurve" smooth="yes"/>
      <point x="275" y="392"/>
      <point x="256" y="408"/>
    </contour>
  </outline>
</glyph>
<glyph name="e" format="1">
  <advance width="370"/>
  <unicode hex="0065"/>
  <outline>
    <contour>
      <point x="396" y="325" type="qcurve" smooth="yes"/>
      <point x="408" y="317"/>
      <point x="402" y="303" type="qcurve" smooth="yes"/>
      <point x="385" y="267"/>
      <point x="338" y="188"/>
      <point x="279" y="113"/>
      <point x="213" y="50"/>
      <point x="142" y="10"/>
      <point x="68" y="-2"/>
      <point x="32" y="13" type="qcurve" smooth="yes"/>
      <point x="-8" y="29"/>
      <point x="-43" y="90"/>
      <point x="-49" y="164"/>
      <point x="-31" y="243"/>
      <point x="-18" y="276" type="qcurve" smooth="yes"/>
      <point x="6" y="337"/>
      <point x="65" y="422"/>
      <point x="131" y="476"/>
      <point x="201" y="502"/>
      <point x="237" y="502" type="qcurve" smooth="yes"/>
      <point x="274" y="502"/>
      <point x="309" y="466"/>
      <point x="309" y="408"/>
      <point x="277" y="338"/>
      <point x="218" y="271"/>
      <point x="134" y="216"/>
      <point x="82" y="202" type="qcurve"/>
      <point x="75" y="176"/>
      <point x="69" y="125"/>
      <point x="73" y="83"/>
      <point x="88" y="55"/>
      <point x="103" y="52" type="qcurve" smooth="yes"/>
      <point x="125" y="48"/>
      <point x="176" y="69"/>
      <point x="229" y="111"/>
      <point x="280" y="167"/>
      <point x="325" y="229"/>
      <point x="360" y="290"/>
      <point x="370" y="316" type="qcurve" smooth="yes"/>
      <point x="373" y="324"/>
      <point x="388" y="330"/>
    </contour>
    <contour>
      <point x="103" y="262" type="qcurve" smooth="yes"/>
      <point x="98" y="251"/>
      <point x="95" y="242" type="qcurve"/>
      <point x="155" y="263"/>
      <point x="232" y="336"/>
      <point x="270" y="407"/>
      <point x="271" y="459"/>
      <point x="253" y="460" type="qcurve" smooth="yes"/>
      <point x="226" y="461"/>
      <point x="144" y="355"/>
    </contour>
  </outline>
</glyph>
<glyph name="f" format="1">
  <advance width="253"/>
  <unicode hex="0066"/>
  <outline>
    <contour>
      <point x="97" y="243" type="line"/>
      <point x="170" y="236"/>
      <point x="214" y="264" type="qcurve" smooth="yes"/>
      <point x="227" y="272"/>
      <point x="248" y="297"/>
      <point x="253" y="313" type="qcurve" smooth="yes"/>
      <point x="255" y="320"/>
      <point x="270" y="324"/>
      <point x="276" y="320" type="qcurve" smooth="yes"/>
      <point x="281" y="317"/>
      <point x="287" y="304"/>
      <point x="284" y="296" type="qcurve" smooth="yes"/>
      <point x="276" y="279"/>
      <point x="254" y="256"/>
      <point x="240" y="246" type="qcurve" smooth="yes"/>
      <point x="212" y="227"/>
      <point x="144" y="211"/>
      <point x="114" y="212" type="qcurve"/>
      <point x="114" y="177"/>
      <point x="93" y="69"/>
      <point x="55" y="-51"/>
      <point x="2" y="-171"/>
      <point x="-60" y="-262"/>
      <point x="-131" y="-313"/>
      <point x="-167" y="-305" type="qcurve" smooth="yes"/>
      <point x="-196" y="-299"/>
      <point x="-206" y="-231"/>
      <point x="-183" y="-125"/>
      <point x="-133" y="12"/>
      <point x="-69" y="164"/>
      <point x="2" y="324"/>
      <point x="35" y="400" type="qcurve" smooth="yes"/>
      <point x="68" y="475"/>
      <point x="125" y="608"/>
      <point x="167" y="710"/>
      <point x="188" y="777"/>
      <point x="184" y="787" type="qcurve" smooth="yes"/>
      <point x="180" y="796"/>
      <point x="208" y="812"/>
      <point x="248" y="814"/>
      <point x="287" y="791"/>
      <point x="294" y="761" type="qcurve" smooth="yes"/>
      <point x="300" y="735"/>
      <point x="286" y="658"/>
      <point x="256" y="569"/>
      <point x="214" y="474"/>
      <point x="172" y="386"/>
      <point x="134" y="309"/>
      <point x="122" y="284" type="qcurve" smooth="yes"/>
    </contour>
    <contour>
      <point x="-131" y="-265" type="qcurve" smooth="yes"/>
      <point x="-119" y="-274"/>
      <point x="-76" y="-229"/>
      <point x="-25" y="-145"/>
      <point x="25" y="-35"/>
      <point x="63" y="75"/>
      <point x="82" y="174"/>
      <point x="76" y="205" type="qcurve"/>
      <point x="55" y="160"/>
      <point x="3" y="58"/>
      <point x="-49" y="-45"/>
      <point x="-95" y="-140"/>
      <point x="-127" y="-214"/>
      <point x="-139" y="-262"/>
    </contour>
  </outline>
</glyph>
<glyph name="g" format="1">
  <advance width="525"/>
  <unicode hex="0067"/>
  <outline>
    <contour>
      <point x="253" y="421" type="qcurve" smooth="yes"/>
      <point x="253" y="429"/>
      <point x="262" y="443"/>
      <point x="269" y="448" type="qcurve"/>
      <point x="264" y="460"/>
      <point x="253" y="460" type="qcurve" smooth="yes"/>
      <point x="239" y="461"/>
      <point x="205" y="434"/>
      <point x="166" y="383"/>
      <point x="124" y="308"/>
      <point x="103" y="262" type="qcurve" smooth="yes"/>
      <point x="90" y="233"/>
      <point x="73" y="166"/>
      <point x="71" y="105"/>
      <point x="85" y="59"/>
      <point x="103" y="52" type="qcurve" smooth="yes"/>
      <point x="125" y="43"/>
      <point x="175" y="94"/>
      <point x="225" y="178"/>
      <point x="272" y="275"/>
      <point x="292" y="312" type="qcurve" smooth="yes"/>
      <point x="292" y="315"/>
      <point x="293" y="316" type="qcurve" smooth="yes"/>
      <point x="320" y="380"/>
      <point x="349" y="470"/>
      <point x="341" y="481" type="qcurve" smooth="yes"/>
      <point x="336" y="487"/>
      <point x="364" y="503"/>
      <point x="406" y="505"/>
      <point x="447" y="483"/>
      <point x="456" y="452" type="qcurve" smooth="yes"/>
      <point x="461" y="435"/>
      <point x="441" y="360"/>
      <point x="405" y="266"/>
      <point x="359" y="163"/>
      <point x="317" y="72"/>
      <point x="285" y="4"/>
      <point x="281" y="-9" type="qcurve"/>
      <point x="317" y="15"/>
      <point x="395" y="102"/>
      <point x="463" y="197"/>
      <point x="515" y="287"/>
      <point x="525" y="314" type="qcurve" smooth="yes"/>
      <point x="528" y="323"/>
      <point x="542" y="328"/>
      <point x="554" y="324"/>
      <point x="561" y="312"/>
      <point x="558" y="305" type="qcurve" smooth="yes"/>
      <point x="535" y="254"/>
      <point x="466" y="141"/>
      <point x="384" y="37"/>
      <point x="294" y="-46"/>
      <point x="251" y="-68" type="qcurve"/>
      <point x="245" y="-83"/>
      <point x="225" y="-130"/>
      <point x="204" y="-178"/>
      <point x="187" y="-220"/>
      <point x="183" y="-230" type="qcurve" smooth="yes"/>
      <point x="173" y="-258"/>
      <point x="130" y="-297"/>
      <point x="76" y="-318"/>
      <point x="18" y="-321"/>
      <point x="-32" y="-306"/>
      <point x="-69" y="-271"/>
      <point x="-74" y="-244" type="qcurve" smooth="yes"/>
      <point x="-75" y="-235"/>
      <point x="-68" y="-210"/>
      <point x="-54" y="-196" type="qcurve" smooth="yes"/>
      <point x="-38" y="-180"/>
      <point x="7" y="-154"/>
      <point x="56" y="-130"/>
      <point x="103" y="-105"/>
      <point x="120" y="-90" type="qcurve"/>
      <point x="130" y="-62"/>
      <point x="157" y="6"/>
      <point x="173" y="43" type="qcurve"/>
      <point x="144" y="15"/>
      <point x="75" y="-4"/>
      <point x="32" y="13" type="qcurve" smooth="yes"/>
      <point x="-8" y="29"/>
      <point x="-43" y="91"/>
      <point x="-49" y="164"/>
      <point x="-31" y="243"/>
      <point x="-18" y="276" type="qcurve" smooth="yes"/>
      <point x="6" y="337"/>
      <point x="65" y="424"/>
      <point x="131" y="479"/>
      <point x="201" y="503"/>
      <point x="237" y="502" type="qcurve" smooth="yes"/>
      <point x="249" y="501"/>
      <point x="276" y="494"/>
      <point x="299" y="478"/>
      <point x="315" y="451"/>
      <point x="315" y="431" type="qcurve" smooth="yes"/>
      <point x="315" y="411"/>
      <point x="306" y="402" type="qcurve" smooth="yes"/>
      <point x="298" y="392"/>
      <point x="284" y="392" type="qcurve" smooth="yes"/>
      <point x="272" y="392"/>
      <point x="253" y="408"/>
    </contour>
    <contour>
      <point x="106" y="-135" type="qcurve"/>
      <point x="91" y="-147"/>
      <point x="53" y="-165"/>
      <point x="15" y="-183"/>
      <point x="-20" y="-205"/>
      <point x="-31" y="-220" type="qcurve" smooth="yes"/>
      <point x="-38" y="-230"/>
      <point x="-35" y="-254"/>
      <point x="-20" y="-273"/>
      <point x="3" y="-283"/>
      <point x="31" y="-275"/>
      <point x="61" y="-244"/>
      <point x="74" y="-212" type="qcurve" smooth="yes"/>
      <point x="80" y="-198"/>
      <point x="97" y="-160"/>
    </contour>
  </outline>
</glyph>
<glyph name="h" format="1">
  <advance width="480"/>
  <unicode hex="0068"/>
  <outline>
    <contour>
      <point x="-78" y="51" type="qcurve" smooth="yes"/>
      <point x="-84" y="69"/>
      <point x="-65" y="149"/>
      <point x="-26" y="256"/>
      <point x="26" y="380"/>
      <point x="81" y="506"/>
      <point x="132" y="625"/>
      <point x="170" y="719"/>
      <point x="188" y="781"/>
      <point x="182" y="787" type="qcurve" smooth="yes"/>
      <point x="175" y="793"/>
      <point x="202" y="809"/>
      <point x="243" y="811"/>
      <point x="285" y="791"/>
      <point x="294" y="761" type="qcurve" smooth="yes"/>
      <point x="300" y="742"/>
      <point x="282" y="670"/>
      <point x="246" y="575"/>
      <point x="196" y="463"/>
      <point x="169" y="406" type="qcurve"/>
      <point x="204" y="445"/>
      <point x="277" y="499"/>
      <point x="309" y="500" type="qcurve" smooth="yes"/>
      <point x="348" y="501"/>
      <point x="386" y="431"/>
      <point x="379" y="376" type="qcurve" smooth="yes"/>
      <point x="377" y="342"/>
      <point x="351" y="267"/>
      <point x="318" y="195"/>
      <point x="285" y="130"/>
      <point x="267" y="82"/>
      <point x="270" y="53"/>
      <point x="290" y="53" type="qcurve" smooth="yes"/>
      <point x="299" y="53"/>
      <point x="331" y="82"/>
      <point x="369" y="129"/>
      <point x="410" y="188"/>
      <point x="446" y="246"/>
      <point x="474" y="299"/>
      <point x="480" y="316" type="qcurve" smooth="yes"/>
      <point x="483" y="324"/>
      <point x="497" y="328"/>
      <point x="509" y="324"/>
      <point x="516" y="312"/>
      <point x="512" y="305" type="qcurve" smooth="yes"/>
      <point x="504" y="288"/>
      <point x="474" y="229"/>
      <point x="433" y="162"/>
      <point x="385" y="94"/>
      <point x="334" y="38"/>
      <point x="282" y="2"/>
      <point x="258" y="2" type="qcurve" smooth="yes"/>
      <point x="238" y="1"/>
      <point x="210" y="22"/>
      <point x="192" y="58"/>
      <point x="185" y="103"/>
      <point x="188" y="126" type="qcurve" smooth="yes"/>
      <point x="193" y="167"/>
      <point x="221" y="247"/>
      <point x="254" y="320"/>
      <point x="286" y="381"/>
      <point x="302" y="426"/>
      <point x="297" y="450"/>
      <point x="276" y="449" type="qcurve" smooth="yes"/>
      <point x="263" y="448"/>
      <point x="214" y="406"/>
      <point x="160" y="343"/>
      <point x="108" y="272"/>
      <point x="92" y="243" type="qcurve" smooth="yes"/>
      <point x="79" y="216" type="line"/>
      <point x="79" y="215" type="line"/>
      <point x="77" y="211" type="line" smooth="yes"/>
      <point x="45" y="140"/>
      <point x="8" y="40"/>
      <point x="16" y="25" type="qcurve" smooth="yes"/>
      <point x="20" y="17"/>
      <point x="-1" y="0"/>
      <point x="-34" y="-1"/>
      <point x="-69" y="21"/>
    </contour>
  </outline>
</glyph>
<glyph name="i" format="1">
  <advance width="230"/>
  <unicode hex="0069"/>
  <outline>
    <contour>
      <point x="190" y="551" type="qcurve" smooth="yes"/>
      <point x="190" y="543"/>
      <point x="158" y="543"/>
      <point x="121" y="558"/>
      <point x="89" y="591"/>
      <point x="89" y="616" type="qcurve" smooth="yes"/>
      <point x="89" y="623"/>
      <point x="101" y="646"/>
      <point x="116" y="672"/>
      <point x="128" y="694"/>
      <point x="128" y="700" type="qcurve" smooth="yes"/>
      <point x="128" y="707"/>
      <point x="158" y="707"/>
      <point x="195" y="691"/>
      <point x="225" y="659"/>
      <point x="225" y="634" type="qcurve" smooth="yes"/>
      <point x="225" y="628"/>
      <point x="214" y="606"/>
      <point x="201" y="582"/>
      <point x="190" y="558"/>
    </contour>
    <contour>
      <point x="262" y="305" type="qcurve" smooth="yes"/>
      <point x="266" y="312"/>
      <point x="259" y="324"/>
      <point x="247" y="328"/>
      <point x="233" y="324"/>
      <point x="230" y="316" type="qcurve" smooth="yes"/>
      <point x="224" y="299"/>
      <point x="196" y="247"/>
      <point x="160" y="189"/>
      <point x="120" y="131"/>
      <point x="82" y="84"/>
      <point x="51" y="54"/>
      <point x="41" y="53" type="qcurve" smooth="yes"/>
      <point x="18" y="51"/>
      <point x="23" y="92"/>
      <point x="56" y="161"/>
      <point x="105" y="249"/>
      <point x="148" y="339"/>
      <point x="172" y="422"/>
      <point x="163" y="451" type="qcurve" smooth="yes"/>
      <point x="154" y="481"/>
      <point x="111" y="501"/>
      <point x="71" y="499"/>
      <point x="44" y="483"/>
      <point x="51" y="477" type="qcurve" smooth="yes"/>
      <point x="58" y="470"/>
      <point x="49" y="432"/>
      <point x="26" y="376"/>
      <point x="-5" y="307"/>
      <point x="-35" y="233"/>
      <point x="-58" y="159"/>
      <point x="-62" y="126" type="qcurve" smooth="yes"/>
      <point x="-65" y="99"/>
      <point x="-59" y="52"/>
      <point x="-41" y="19"/>
      <point x="-12" y="1"/>
      <point x="8" y="2" type="qcurve" smooth="yes"/>
      <point x="32" y="2"/>
      <point x="84" y="38"/>
      <point x="135" y="94"/>
      <point x="183" y="162"/>
      <point x="224" y="229"/>
      <point x="254" y="288"/>
    </contour>
  </outline>
</glyph>
<glyph name="j" format="1">
  <advance width="233"/>
  <unicode hex="006A"/>
  <outline>
    <contour>
      <point x="-366" y="-244" type="qcurve" smooth="yes"/>
      <point x="-367" y="-235"/>
      <point x="-360" y="-210"/>
      <point x="-346" y="-196" type="qcurve" smooth="yes"/>
      <point x="-330" y="-180"/>
      <point x="-285" y="-154"/>
      <point x="-236" y="-130"/>
      <point x="-189" y="-105"/>
      <point x="-172" y="-90" type="qcurve"/>
      <point x="-157" y="-47"/>
      <point x="-109" y="66"/>
      <point x="-55" y="187"/>
      <point x="-2" y="306"/>
      <point x="37" y="404"/>
      <point x="56" y="472"/>
      <point x="49" y="481" type="qcurve" smooth="yes"/>
      <point x="44" y="487"/>
      <point x="72" y="503"/>
      <point x="114" y="505"/>
      <point x="155" y="483"/>
      <point x="164" y="452" type="qcurve" smooth="yes"/>
      <point x="169" y="435"/>
      <point x="149" y="360"/>
      <point x="113" y="266"/>
      <point x="67" y="163"/>
      <point x="25" y="72"/>
      <point x="-7" y="4"/>
      <point x="-11" y="-9" type="qcurve"/>
      <point x="25" y="15"/>
      <point x="103" y="102"/>
      <point x="171" y="197"/>
      <point x="223" y="287"/>
      <point x="233" y="314" type="qcurve" smooth="yes"/>
      <point x="236" y="323"/>
      <point x="250" y="328"/>
      <point x="262" y="324"/>
      <point x="269" y="312"/>
      <point x="266" y="305" type="qcurve" smooth="yes"/>
      <point x="243" y="254"/>
      <point x="174" y="141"/>
      <point x="92" y="37"/>
      <point x="2" y="-46"/>
      <point x="-41" y="-68" type="qcurve"/>
      <point x="-47" y="-83"/>
      <point x="-67" y="-130"/>
      <point x="-88" y="-178"/>
      <point x="-105" y="-220"/>
      <point x="-109" y="-230" type="qcurve" smooth="yes"/>
      <point x="-119" y="-258"/>
      <point x="-162" y="-297"/>
      <point x="-216" y="-318"/>
      <point x="-274" y="-321"/>
      <point x="-324" y="-306"/>
      <point x="-361" y="-271"/>
    </contour>
    <contour>
      <point x="-186" y="-135" type="qcurve"/>
      <point x="-201" y="-147"/>
      <point x="-239" y="-165"/>
      <point x="-277" y="-183"/>
      <point x="-312" y="-205"/>
      <point x="-323" y="-220" type="qcurve" smooth="yes"/>
      <point x="-330" y="-230"/>
      <point x="-327" y="-254"/>
      <point x="-312" y="-273"/>
      <point x="-289" y="-283"/>
      <point x="-261" y="-275"/>
      <point x="-231" y="-244"/>
      <point x="-218" y="-212" type="qcurve" smooth="yes"/>
      <point x="-212" y="-198"/>
      <point x="-195" y="-160"/>
    </contour>
    <contour>
      <point x="190" y="551" type="qcurve" smooth="yes"/>
      <point x="190" y="543"/>
      <point x="158" y="543"/>
      <point x="121" y="558"/>
      <point x="89" y="591"/>
      <point x="89" y="616" type="qcurve" smooth="yes"/>
      <point x="89" y="623"/>
      <point x="101" y="646"/>
      <point x="116" y="672"/>
      <point x="128" y="694"/>
      <point x="128" y="700" type="qcurve" smooth="yes"/>
      <point x="128" y="707"/>
      <point x="158" y="707"/>
      <point x="195" y="691"/>
      <point x="225" y="659"/>
      <point x="225" y="634" type="qcurve" smooth="yes"/>
      <point x="225" y="628"/>
      <point x="214" y="606"/>
      <point x="201" y="582"/>
      <point x="190" y="558"/>
    </contour>
  </outline>
</glyph>
<glyph name="k" format="1">
  <advance width="447"/>
  <unicode hex="006B"/>
  <outline>
    <contour>
      <point x="-78" y="51" type="qcurve" smooth="yes"/>
      <point x="-84" y="69"/>
      <point x="-65" y="149"/>
      <point x="-26" y="256"/>
      <point x="26" y="380"/>
      <point x="81" y="506"/>
      <point x="132" y="625"/>
      <point x="170" y="719"/>
      <point x="188" y="781"/>
      <point x="182" y="787" type="qcurve" smooth="yes"/>
      <point x="175" y="793"/>
      <point x="202" y="809"/>
      <point x="243" y="811"/>
      <point x="285" y="791"/>
      <point x="294" y="761" type="qcurve" smooth="yes"/>
      <point x="300" y="740"/>
      <point x="276" y="652"/>
      <point x="230" y="537"/>
      <point x="169" y="405"/>
      <point x="138" y="340" type="qcurve"/>
      <point x="159" y="357"/>
      <point x="211" y="398"/>
      <point x="264" y="442"/>
      <point x="314" y="487"/>
      <point x="353" y="525"/>
      <point x="377" y="556"/>
      <point x="377" y="565" type="qcurve" smooth="yes"/>
      <point x="377" y="574"/>
      <point x="407" y="566"/>
      <point x="437" y="537"/>
      <point x="451" y="492"/>
      <point x="435" y="465" type="qcurve" smooth="yes"/>
      <point x="423" y="444"/>
      <point x="372" y="404"/>
      <point x="308" y="368"/>
      <point x="238" y="336"/>
      <point x="206" y="323" type="qcurve"/>
      <point x="221" y="300"/>
      <point x="266" y="216"/>
      <point x="322" y="115"/>
      <point x="386" y="11"/>
      <point x="455" y="-75"/>
      <point x="524" y="-130"/>
      <point x="557" y="-131" type="qcurve" smooth="yes"/>
      <point x="566" y="-131"/>
      <point x="563" y="-158"/>
      <point x="539" y="-190"/>
      <point x="495" y="-217"/>
      <point x="464" y="-216" type="qcurve" smooth="yes"/>
      <point x="417" y="-215"/>
      <point x="343" y="-141"/>
      <point x="284" y="-30"/>
      <point x="237" y="99"/>
      <point x="198" y="213"/>
      <point x="165" y="292"/>
      <point x="148" y="298" type="qcurve"/>
      <point x="134" y="291"/>
      <point x="113" y="280"/>
      <point x="106" y="275" type="qcurve"/>
      <point x="84" y="229"/>
      <point x="47" y="146"/>
      <point x="22" y="80"/>
      <point x="11" y="34"/>
      <point x="16" y="25" type="qcurve" smooth="yes"/>
      <point x="20" y="17"/>
      <point x="-1" y="0"/>
      <point x="-34" y="-1"/>
      <point x="-69" y="21"/>
    </contour>
  </outline>
</glyph>
<glyph name="l" format="1">
  <advance width="230"/>
  <unicode hex="006C"/>
  <outline>
    <contour>
      <point x="262" y="305" type="qcurve" smooth="yes"/>
      <point x="254" y="288"/>
      <point x="224" y="229"/>
      <point x="183" y="162"/>
      <point x="135" y="94"/>
      <point x="84" y="38"/>
      <point x="32" y="2"/>
      <point x="8" y="2" type="qcurve" smooth="yes"/>
      <point x="-12" y="1"/>
      <point x="-41" y="19"/>
      <point x="-59" y="52"/>
      <point x="-65" y="99"/>
      <point x="-62" y="126" type="qcurve" smooth="yes"/>
      <point x="-58" y="159"/>
      <point x="-16" y="279"/>
      <point x="42" y="422"/>
      <point x="106" y="571"/>
      <point x="157" y="696"/>
      <point x="185" y="780"/>
      <point x="178" y="787" type="qcurve" smooth="yes"/>
      <point x="171" y="793"/>
      <point x="198" y="809"/>
      <point x="238" y="811"/>
      <point x="281" y="791"/>
      <point x="290" y="761" type="qcurve" smooth="yes"/>
      <point x="297" y="739"/>
      <point x="275" y="654"/>
      <point x="232" y="546"/>
      <point x="174" y="421"/>
      <point x="115" y="299"/>
      <point x="62" y="186"/>
      <point x="29" y="101"/>
      <point x="24" y="51"/>
      <point x="41" y="53" type="qcurve" smooth="yes"/>
      <point x="51" y="54"/>
      <point x="82" y="84"/>
      <point x="120" y="131"/>
      <point x="160" y="189"/>
      <point x="196" y="247"/>
      <point x="224" y="299"/>
      <point x="230" y="316" type="qcurve" smooth="yes"/>
      <point x="233" y="324"/>
      <point x="247" y="328"/>
      <point x="259" y="324"/>
      <point x="266" y="312"/>
    </contour>
  </outline>
</glyph>
<glyph name="m" format="1">
  <advance width="711"/>
  <unicode hex="006D"/>
  <outline>
    <contour>
      <point x="613" y="376" type="qcurve" smooth="yes"/>
      <point x="611" y="342"/>
      <point x="585" y="267"/>
      <point x="552" y="195"/>
      <point x="519" y="130"/>
      <point x="501" y="82"/>
      <point x="504" y="53"/>
      <point x="524" y="53" type="qcurve" smooth="yes"/>
      <point x="533" y="53"/>
      <point x="565" y="82"/>
      <point x="603" y="129"/>
      <point x="644" y="188"/>
      <point x="680" y="246"/>
      <point x="708" y="299"/>
      <point x="714" y="316" type="qcurve" smooth="yes"/>
      <point x="717" y="324"/>
      <point x="731" y="328"/>
      <point x="743" y="324"/>
      <point x="750" y="312"/>
      <point x="746" y="305" type="qcurve" smooth="yes"/>
      <point x="738" y="288"/>
      <point x="708" y="229"/>
      <point x="667" y="162"/>
      <point x="619" y="94"/>
      <point x="568" y="38"/>
      <point x="516" y="2"/>
      <point x="492" y="2" type="qcurve" smooth="yes"/>
      <point x="472" y="1"/>
      <point x="444" y="22"/>
      <point x="426" y="58"/>
      <point x="419" y="103"/>
      <point x="422" y="126" type="qcurve" smooth="yes"/>
      <point x="427" y="167"/>
      <point x="455" y="247"/>
      <point x="488" y="319"/>
      <point x="520" y="380"/>
      <point x="536" y="425"/>
      <point x="531" y="449"/>
      <point x="510" y="449" type="qcurve" smooth="yes"/>
      <point x="500" y="449"/>
      <point x="467" y="419"/>
      <point x="427" y="369"/>
      <point x="384" y="304"/>
      <point x="341" y="235"/>
      <point x="303" y="167"/>
      <point x="289" y="138" type="qcurve" smooth="yes"/>
      <point x="271" y="94"/>
      <point x="251" y="32"/>
      <point x="261" y="24" type="qcurve" smooth="yes"/>
      <point x="268" y="18"/>
      <point x="241" y="2"/>
      <point x="201" y="0"/>
      <point x="158" y="20"/>
      <point x="149" y="50" type="qcurve" smooth="yes"/>
      <point x="140" y="79"/>
      <point x="163" y="162"/>
      <point x="205" y="253"/>
      <point x="253" y="341"/>
      <point x="285" y="411"/>
      <point x="289" y="452"/>
      <point x="266" y="450" type="qcurve" smooth="yes"/>
      <point x="256" y="449"/>
      <point x="223" y="421"/>
      <point x="185" y="378"/>
      <point x="146" y="324"/>
      <point x="129" y="297" type="qcurve"/>
      <point x="110" y="256"/>
      <point x="65" y="171"/>
      <point x="29" y="97"/>
      <point x="10" y="40"/>
      <point x="18" y="25" type="qcurve" smooth="yes"/>
      <point x="22" y="17"/>
      <point x="1" y="0"/>
      <point x="-32" y="-1"/>
      <point x="-67" y="21"/>
      <point x="-76" y="51" type="qcurve" smooth="yes"/>
      <point x="-84" y="75"/>
      <point x="-66" y="153"/>
      <point x="-32" y="242"/>
      <point x="10" y="335"/>
      <point x="44" y="413"/>
      <point x="60" y="469"/>
      <point x="52" y="477" type="qcurve" smooth="yes"/>
      <point x="45" y="483"/>
      <point x="72" y="499"/>
      <point x="113" y="501"/>
      <point x="155" y="481"/>
      <point x="164" y="451" type="qcurve" smooth="yes"/>
      <point x="170" y="433"/>
      <point x="165" y="406" type="qcurve"/>
      <point x="197" y="445"/>
      <point x="267" y="500"/>
      <point x="299" y="501" type="qcurve" smooth="yes"/>
      <point x="338" y="502"/>
      <point x="376" y="432"/>
      <point x="369" y="377" type="qcurve" smooth="yes"/>
      <point x="367" y="365"/>
      <point x="363" y="340"/>
      <point x="359" y="327" type="qcurve"/>
      <point x="381" y="361"/>
      <point x="427" y="424"/>
      <point x="475" y="472"/>
      <point x="521" y="500"/>
      <point x="543" y="500" type="qcurve" smooth="yes"/>
      <point x="582" y="500"/>
      <point x="620" y="431"/>
    </contour>
  </outline>
</glyph>
<glyph name="n" format="1">
  <advance width="486"/>
  <unicode hex="006E"/>
  <outline>
    <contour>
      <point x="385" y="376" type="qcurve" smooth="yes"/>
      <point x="383" y="342"/>
      <point x="357" y="267"/>
      <point x="324" y="195"/>
      <point x="291" y="130"/>
      <point x="273" y="82"/>
      <point x="276" y="53"/>
      <point x="296" y="53" type="qcurve" smooth="yes"/>
      <point x="305" y="53"/>
      <point x="337" y="82"/>
      <point x="375" y="129"/>
      <point x="416" y="188"/>
      <point x="452" y="246"/>
      <point x="480" y="299"/>
      <point x="486" y="316" type="qcurve" smooth="yes"/>
      <point x="489" y="324"/>
      <point x="503" y="328"/>
      <point x="515" y="324"/>
      <point x="522" y="312"/>
      <point x="518" y="305" type="qcurve" smooth="yes"/>
      <point x="510" y="288"/>
      <point x="480" y="229"/>
      <point x="439" y="162"/>
      <point x="391" y="94"/>
      <point x="340" y="38"/>
      <point x="288" y="2"/>
      <point x="264" y="2" type="qcurve" smooth="yes"/>
      <point x="244" y="1"/>
      <point x="216" y="22"/>
      <point x="198" y="58"/>
      <point x="191" y="103"/>
      <point x="194" y="126" type="qcurve" smooth="yes"/>
      <point x="199" y="167"/>
      <point x="227" y="247"/>
      <point x="260" y="320"/>
      <point x="292" y="381"/>
      <point x="308" y="426"/>
      <point x="303" y="450"/>
      <point x="282" y="449" type="qcurve" smooth="yes"/>
      <point x="271" y="448"/>
      <point x="231" y="415"/>
      <point x="184" y="364"/>
      <point x="136" y="303"/>
      <point x="117" y="275" type="qcurve"/>
      <point x="98" y="236"/>
      <point x="57" y="159"/>
      <point x="25" y="91"/>
      <point x="10" y="39"/>
      <point x="17" y="25" type="qcurve" smooth="yes"/>
      <point x="21" y="17"/>
      <point x="0" y="0"/>
      <point x="-33" y="-1"/>
      <point x="-68" y="21"/>
      <point x="-77" y="51" type="qcurve" smooth="yes"/>
      <point x="-85" y="75"/>
      <point x="-67" y="153"/>
      <point x="-33" y="242"/>
      <point x="9" y="335"/>
      <point x="43" y="413"/>
      <point x="59" y="469"/>
      <point x="51" y="477" type="qcurve" smooth="yes"/>
      <point x="44" y="483"/>
      <point x="71" y="499"/>
      <point x="112" y="501"/>
      <point x="154" y="481"/>
      <point x="163" y="451" type="qcurve" smooth="yes"/>
      <point x="167" y="438"/>
      <point x="165" y="407"/>
      <point x="161" y="390" type="qcurve"/>
      <point x="180" y="412"/>
      <point x="219" y="452"/>
      <point x="259" y="482"/>
      <point x="297" y="500"/>
      <point x="315" y="500" type="qcurve" smooth="yes"/>
      <point x="354" y="501"/>
      <point x="392" y="431"/>
    </contour>
  </outline>
</glyph>
<glyph name="p" format="1">
  <advance width="537"/>
  <unicode hex="0070"/>
  <outline>
    <contour>
      <point x="126" y="80" type="qcurve" smooth="yes"/>
      <point x="126" y="61"/>
      <point x="109" y="53" type="qcurve"/>
      <point x="115" y="41"/>
      <point x="126" y="41" type="qcurve" smooth="yes"/>
      <point x="139" y="40"/>
      <point x="174" y="67"/>
      <point x="213" y="118"/>
      <point x="255" y="192"/>
      <point x="276" y="239" type="qcurve" smooth="yes"/>
      <point x="289" y="268"/>
      <point x="306" y="337"/>
      <point x="309" y="399"/>
      <point x="295" y="444"/>
      <point x="276" y="449" type="qcurve" smooth="yes"/>
      <point x="259" y="453"/>
      <point x="222" y="433"/>
      <point x="185" y="394"/>
      <point x="148" y="340"/>
      <point x="131" y="311" type="qcurve"/>
      <point x="111" y="259"/>
      <point x="56" y="138"/>
      <point x="-3" y="13"/>
      <point x="-59" y="-105"/>
      <point x="-101" y="-203"/>
      <point x="-122" y="-271"/>
      <point x="-116" y="-283" type="qcurve" smooth="yes"/>
      <point x="-112" y="-291"/>
      <point x="-133" y="-308"/>
      <point x="-166" y="-309"/>
      <point x="-201" y="-287"/>
      <point x="-210" y="-257" type="qcurve" smooth="yes"/>
      <point x="-216" y="-239"/>
      <point x="-197" y="-159"/>
      <point x="-158" y="-52"/>
      <point x="-106" y="72"/>
      <point x="-51" y="198"/>
      <point x="0" y="317"/>
      <point x="38" y="411"/>
      <point x="56" y="473"/>
      <point x="50" y="479" type="qcurve" smooth="yes"/>
      <point x="43" y="485"/>
      <point x="70" y="501"/>
      <point x="111" y="503"/>
      <point x="153" y="483"/>
      <point x="162" y="453" type="qcurve" smooth="yes"/>
      <point x="165" y="442"/>
      <point x="163" y="421" type="qcurve"/>
      <point x="201" y="467"/>
      <point x="291" y="510"/>
      <point x="347" y="488" type="qcurve" smooth="yes"/>
      <point x="387" y="471"/>
      <point x="422" y="410"/>
      <point x="428" y="337"/>
      <point x="410" y="258"/>
      <point x="397" y="225" type="qcurve" smooth="yes"/>
      <point x="371" y="160"/>
      <point x="307" y="70"/>
      <point x="272" y="43" type="qcurve"/>
      <point x="322" y="54"/>
      <point x="399" y="117"/>
      <point x="434" y="159" type="qcurve" smooth="yes"/>
      <point x="467" y="198"/>
      <point x="520" y="279"/>
      <point x="537" y="312" type="qcurve" smooth="yes"/>
      <point x="540" y="319"/>
      <point x="552" y="324"/>
      <point x="561" y="319" type="qcurve" smooth="yes"/>
      <point x="568" y="315"/>
      <point x="571" y="301"/>
      <point x="568" y="295" type="qcurve" smooth="yes"/>
      <point x="544" y="246"/>
      <point x="481" y="154"/>
      <point x="443" y="111" type="qcurve" smooth="yes"/>
      <point x="418" y="83"/>
      <point x="362" y="36"/>
      <point x="293" y="5"/>
      <point x="209" y="-7"/>
      <point x="157" y="-1" type="qcurve"/>
      <point x="142" y="-1" type="line" smooth="yes"/>
      <point x="130" y="0"/>
      <point x="103" y="7"/>
      <point x="80" y="23"/>
      <point x="64" y="50"/>
      <point x="64" y="70" type="qcurve" smooth="yes"/>
      <point x="64" y="92"/>
      <point x="73" y="99" type="qcurve" smooth="yes"/>
      <point x="83" y="109"/>
      <point x="95" y="109" type="qcurve" smooth="yes"/>
      <point x="107" y="109"/>
      <point x="126" y="93"/>
    </contour>
  </outline>
</glyph>
<glyph name="q" format="1">
  <advance width="531"/>
  <unicode hex="0071"/>
  <outline>
    <contour>
      <point x="253" y="421" type="qcurve" smooth="yes"/>
      <point x="253" y="429"/>
      <point x="262" y="443"/>
      <point x="269" y="448" type="qcurve"/>
      <point x="264" y="460"/>
      <point x="253" y="460" type="qcurve" smooth="yes"/>
      <point x="239" y="461"/>
      <point x="205" y="434"/>
      <point x="166" y="383"/>
      <point x="124" y="308"/>
      <point x="103" y="262" type="qcurve" smooth="yes"/>
      <point x="90" y="233"/>
      <point x="73" y="166"/>
      <point x="71" y="105"/>
      <point x="85" y="59"/>
      <point x="103" y="52" type="qcurve" smooth="yes"/>
      <point x="124" y="43"/>
      <point x="172" y="90"/>
      <point x="220" y="169"/>
      <point x="266" y="263"/>
      <point x="286" y="301" type="qcurve" smooth="yes"/>
      <point x="301" y="337"/>
      <point x="326" y="398"/>
      <point x="342" y="445"/>
      <point x="347" y="475"/>
      <point x="343" y="479" type="qcurve" smooth="yes"/>
      <point x="336" y="485"/>
      <point x="363" y="501"/>
      <point x="404" y="503"/>
      <point x="446" y="483"/>
      <point x="455" y="453" type="qcurve" smooth="yes"/>
      <point x="461" y="433"/>
      <point x="440" y="351"/>
      <point x="398" y="244"/>
      <point x="341" y="120"/>
      <point x="311" y="58" type="qcurve"/>
      <point x="345" y="75"/>
      <point x="402" y="128"/>
      <point x="428" y="159" type="qcurve" smooth="yes"/>
      <point x="461" y="198"/>
      <point x="514" y="279"/>
      <point x="531" y="312" type="qcurve" smooth="yes"/>
      <point x="534" y="319"/>
      <point x="546" y="324"/>
      <point x="555" y="319" type="qcurve" smooth="yes"/>
      <point x="562" y="315"/>
      <point x="565" y="301"/>
      <point x="562" y="295" type="qcurve" smooth="yes"/>
      <point x="538" y="246"/>
      <point x="475" y="154"/>
      <point x="437" y="111" type="qcurve" smooth="yes"/>
      <point x="405" y="76"/>
      <point x="334" y="21"/>
      <point x="287" y="7" type="qcurve"/>
      <point x="276" y="-16"/>
      <point x="254" y="-61"/>
      <point x="244" y="-83" type="qcurve"/>
      <point x="276" y="-85"/>
      <point x="341" y="-83"/>
      <point x="393" y="-74"/>
      <point x="426" y="-57"/>
      <point x="426" y="-45" type="qcurve" smooth="yes"/>
      <point x="426" y="-31"/>
      <point x="439" y="-30"/>
      <point x="451" y="-45"/>
      <point x="456" y="-69"/>
      <point x="448" y="-79" type="qcurve" smooth="yes"/>
      <point x="438" y="-91"/>
      <point x="394" y="-113"/>
      <point x="333" y="-129"/>
      <point x="259" y="-139"/>
      <point x="219" y="-139" type="qcurve"/>
      <point x="195" y="-193"/>
      <point x="170" y="-270"/>
      <point x="177" y="-283" type="qcurve" smooth="yes"/>
      <point x="181" y="-291"/>
      <point x="160" y="-308"/>
      <point x="127" y="-309"/>
      <point x="92" y="-287"/>
      <point x="83" y="-257" type="qcurve" smooth="yes"/>
      <point x="78" y="-241"/>
      <point x="90" y="-181"/>
      <point x="104" y="-139" type="qcurve"/>
      <point x="75" y="-140"/>
      <point x="27" y="-146"/>
      <point x="-9" y="-159"/>
      <point x="-30" y="-182"/>
      <point x="-31" y="-200" type="qcurve" smooth="yes"/>
      <point x="-32" y="-213"/>
      <point x="-42" y="-221"/>
      <point x="-53" y="-211"/>
      <point x="-62" y="-183"/>
      <point x="-60" y="-159" type="qcurve" smooth="yes"/>
      <point x="-57" y="-125"/>
      <point x="-26" y="-86"/>
      <point x="25" y="-68"/>
      <point x="91" y="-68"/>
      <point x="128" y="-71" type="qcurve"/>
      <point x="139" y="-43"/>
      <point x="162" y="15"/>
      <point x="175" y="45" type="qcurve"/>
      <point x="146" y="16"/>
      <point x="76" y="-5"/>
      <point x="32" y="13" type="qcurve" smooth="yes"/>
      <point x="-8" y="29"/>
      <point x="-43" y="91"/>
      <point x="-49" y="164"/>
      <point x="-31" y="243"/>
      <point x="-18" y="276" type="qcurve" smooth="yes"/>
      <point x="6" y="337"/>
      <point x="65" y="424"/>
      <point x="131" y="479"/>
      <point x="201" y="503"/>
      <point x="237" y="502" type="qcurve" smooth="yes"/>
      <point x="249" y="501"/>
      <point x="276" y="494"/>
      <point x="299" y="478"/>
      <point x="315" y="451"/>
      <point x="315" y="431" type="qcurve" smooth="yes"/>
      <point x="315" y="411"/>
      <point x="306" y="402" type="qcurve" smooth="yes"/>
      <point x="298" y="392"/>
      <point x="284" y="392" type="qcurve" smooth="yes"/>
      <point x="272" y="392"/>
      <point x="253" y="408"/>
    </contour>
  </outline>
</glyph>
<glyph name="v" format="1">
  <advance width="424"/>
  <unicode hex="0076"/>
  <outline>
    <contour>
      <point x="370" y="451" type="qcurve" smooth="yes"/>
      <point x="377" y="422"/>
      <point x="362" y="332"/>
      <point x="324" y="232"/>
      <point x="264" y="131"/>
      <point x="189" y="50"/>
      <point x="101" y="0"/>
      <point x="53" y="0" type="qcurve" smooth="yes"/>
      <point x="5" y="0"/>
      <point x="-43" y="39"/>
      <point x="-56" y="101"/>
      <point x="-42" y="182"/>
      <point x="-14" y="267"/>
      <point x="20" y="352"/>
      <point x="46" y="421"/>
      <point x="59" y="470"/>
      <point x="51" y="477" type="qcurve" smooth="yes"/>
      <point x="44" y="483"/>
      <point x="71" y="499"/>
      <point x="111" y="501"/>
      <point x="154" y="481"/>
      <point x="163" y="451" type="qcurve" smooth="yes"/>
      <point x="172" y="422"/>
      <point x="148" y="338"/>
      <point x="106" y="247"/>
      <point x="59" y="157"/>
      <point x="32" y="85"/>
      <point x="37" y="41"/>
      <point x="68" y="41" type="qcurve" smooth="yes"/>
      <point x="98" y="41"/>
      <point x="153" y="102"/>
      <point x="200" y="195"/>
      <point x="236" y="304"/>
      <point x="260" y="401"/>
      <point x="268" y="471"/>
      <point x="264" y="477" type="qcurve" smooth="yes"/>
      <point x="260" y="483"/>
      <point x="286" y="499"/>
      <point x="324" y="501"/>
      <point x="362" y="481"/>
    </contour>
  </outline>
</glyph>
<glyph name="w" format="1">
  <advance width="643"/>
  <unicode hex="0077"/>
  <outline>
    <contour>
      <point x="589" y="451" type="qcurve" smooth="yes"/>
      <point x="596" y="422"/>
      <point x="581" y="332"/>
      <point x="543" y="232"/>
      <point x="483" y="131"/>
      <point x="408" y="50"/>
      <point x="320" y="0"/>
      <point x="272" y="0" type="qcurve" smooth="yes"/>
      <point x="234" y="0"/>
      <point x="189" y="25"/>
      <point x="167" y="66"/>
      <point x="166" y="121"/>
      <point x="172" y="153" type="qcurve"/>
      <point x="153" y="123"/>
      <point x="112" y="68"/>
      <point x="69" y="27"/>
      <point x="26" y="3"/>
      <point x="5" y="2" type="qcurve" smooth="yes"/>
      <point x="-15" y="1"/>
      <point x="-44" y="19"/>
      <point x="-62" y="52"/>
      <point x="-68" y="99"/>
      <point x="-65" y="126" type="qcurve" smooth="yes"/>
      <point x="-61" y="159"/>
      <point x="-38" y="233"/>
      <point x="-8" y="307"/>
      <point x="23" y="376"/>
      <point x="46" y="432"/>
      <point x="55" y="471"/>
      <point x="48" y="477" type="qcurve" smooth="yes"/>
      <point x="41" y="483"/>
      <point x="68" y="499"/>
      <point x="108" y="501"/>
      <point x="151" y="481"/>
      <point x="160" y="451" type="qcurve" smooth="yes"/>
      <point x="169" y="422"/>
      <point x="145" y="339"/>
      <point x="102" y="249"/>
      <point x="53" y="160"/>
      <point x="20" y="91"/>
      <point x="15" y="50"/>
      <point x="38" y="53" type="qcurve" smooth="yes"/>
      <point x="50" y="54"/>
      <point x="85" y="89"/>
      <point x="125" y="144"/>
      <point x="167" y="214"/>
      <point x="206" y="288"/>
      <point x="240" y="358"/>
      <point x="252" y="386" type="qcurve" smooth="yes"/>
      <point x="266" y="421"/>
      <point x="278" y="469"/>
      <point x="270" y="477" type="qcurve" smooth="yes"/>
      <point x="263" y="483"/>
      <point x="290" y="499"/>
      <point x="330" y="501"/>
      <point x="373" y="481"/>
      <point x="382" y="451" type="qcurve" smooth="yes"/>
      <point x="391" y="422"/>
      <point x="367" y="338"/>
      <point x="325" y="247"/>
      <point x="278" y="157"/>
      <point x="251" y="85"/>
      <point x="256" y="41"/>
      <point x="287" y="41" type="qcurve" smooth="yes"/>
      <point x="317" y="41"/>
      <point x="372" y="102"/>
      <point x="419" y="195"/>
      <point x="455" y="304"/>
      <point x="479" y="401"/>
      <point x="487" y="471"/>
      <point x="483" y="477" type="qcurve" smooth="yes"/>
      <point x="479" y="483"/>
      <point x="505" y="499"/>
      <point x="543" y="501"/>
      <point x="581" y="481"/>
    </contour>
  </outline>
</glyph>
